G75*
G70*
%OFA0B0*%
%FSLAX24Y24*%
%IPPOS*%
%LPD*%
%AMOC8*
5,1,8,0,0,1.08239X$1,22.5*
%
%ADD10R,0.0525X0.1041*%
%ADD11R,0.0671X0.0592*%
%ADD12C,0.0156*%
%ADD13OC8,0.0780*%
%ADD14R,0.0580X0.0300*%
%ADD15R,0.0300X0.0580*%
%ADD16R,0.0592X0.0671*%
%ADD17C,0.1080*%
%ADD18C,0.1261*%
%ADD19R,0.0710X0.1458*%
%ADD20C,0.0680*%
%ADD21R,0.0631X0.0474*%
%ADD22R,0.0680X0.0680*%
%ADD23OC8,0.0680*%
%ADD24C,0.0600*%
%ADD25C,0.0640*%
D10*
X015865Y002172D03*
X016865Y002172D03*
X017865Y002172D03*
X018865Y002172D03*
X019865Y002172D03*
X019865Y005558D03*
X018865Y005558D03*
X017865Y005558D03*
X016865Y005558D03*
X015865Y005558D03*
D11*
X015845Y006329D03*
X015845Y007195D03*
X016861Y007195D03*
X017876Y007195D03*
X018853Y007195D03*
X018853Y006329D03*
X017876Y006329D03*
X016861Y006329D03*
X020388Y006707D03*
X020388Y005841D03*
X021294Y005841D03*
X021294Y006707D03*
X022199Y006707D03*
X022199Y005841D03*
X023184Y005841D03*
X023184Y006707D03*
X023617Y009266D03*
X024483Y009266D03*
X024483Y010132D03*
X023617Y010132D03*
X021609Y012613D03*
X021609Y013479D03*
X021609Y014050D03*
X022554Y013991D03*
X022554Y014857D03*
X021609Y014877D03*
X020624Y014877D03*
X020624Y014050D03*
X020624Y013479D03*
X020624Y012613D03*
X019640Y012613D03*
X019640Y013479D03*
X019640Y014050D03*
X019640Y014877D03*
X017849Y010353D03*
X017849Y009487D03*
X011243Y006093D03*
X011243Y005227D03*
X008380Y005565D03*
X008380Y006432D03*
X007435Y008164D03*
X007435Y009030D03*
X003554Y008463D03*
X003554Y007597D03*
X003239Y003849D03*
X003239Y002983D03*
X003585Y012715D03*
X003585Y013581D03*
D12*
X002916Y002081D02*
X002838Y002159D01*
X003087Y002092D01*
X003216Y001869D01*
X003149Y001620D01*
X002926Y001491D01*
X002677Y001558D01*
X002548Y001781D01*
X002615Y002030D01*
X002838Y002159D01*
X002854Y002033D01*
X003010Y001991D01*
X003090Y001853D01*
X003048Y001697D01*
X002910Y001617D01*
X002754Y001659D01*
X002674Y001797D01*
X002716Y001953D01*
X002854Y002033D01*
X002871Y001908D01*
X002933Y001891D01*
X002965Y001836D01*
X002948Y001774D01*
X002893Y001742D01*
X002831Y001759D01*
X002799Y001814D01*
X002816Y001876D01*
X002871Y001908D01*
X002416Y002947D02*
X002338Y003025D01*
X002587Y002958D01*
X002716Y002735D01*
X002649Y002486D01*
X002426Y002357D01*
X002177Y002424D01*
X002048Y002647D01*
X002115Y002896D01*
X002338Y003025D01*
X002354Y002899D01*
X002510Y002857D01*
X002590Y002719D01*
X002548Y002563D01*
X002410Y002483D01*
X002254Y002525D01*
X002174Y002663D01*
X002216Y002819D01*
X002354Y002899D01*
X002371Y002774D01*
X002433Y002757D01*
X002465Y002702D01*
X002448Y002640D01*
X002393Y002608D01*
X002331Y002625D01*
X002299Y002680D01*
X002316Y002742D01*
X002371Y002774D01*
X002571Y013370D02*
X002649Y013448D01*
X002716Y013199D01*
X002587Y012976D01*
X002338Y012909D01*
X002115Y013038D01*
X002048Y013287D01*
X002177Y013510D01*
X002426Y013577D01*
X002649Y013448D01*
X002548Y013371D01*
X002590Y013215D01*
X002510Y013077D01*
X002354Y013035D01*
X002216Y013115D01*
X002174Y013271D01*
X002254Y013409D01*
X002410Y013451D01*
X002548Y013371D01*
X002448Y013294D01*
X002465Y013232D01*
X002433Y013177D01*
X002371Y013160D01*
X002316Y013192D01*
X002299Y013254D01*
X002331Y013309D01*
X002393Y013326D01*
X002448Y013294D01*
X003071Y014236D02*
X003149Y014314D01*
X003216Y014065D01*
X003087Y013842D01*
X002838Y013775D01*
X002615Y013904D01*
X002548Y014153D01*
X002677Y014376D01*
X002926Y014443D01*
X003149Y014314D01*
X003048Y014237D01*
X003090Y014081D01*
X003010Y013943D01*
X002854Y013901D01*
X002716Y013981D01*
X002674Y014137D01*
X002754Y014275D01*
X002910Y014317D01*
X003048Y014237D01*
X002948Y014160D01*
X002965Y014098D01*
X002933Y014043D01*
X002871Y014026D01*
X002816Y014058D01*
X002799Y014120D01*
X002831Y014175D01*
X002893Y014192D01*
X002948Y014160D01*
D13*
X002357Y008467D03*
X002357Y007467D03*
X024522Y007388D03*
X024522Y008388D03*
D14*
X022464Y008652D03*
X022464Y008967D03*
X022464Y009282D03*
X022464Y009597D03*
X022464Y009912D03*
X022464Y010227D03*
X022464Y010542D03*
X022464Y010857D03*
X019084Y010857D03*
X019084Y010542D03*
X019084Y010227D03*
X019084Y009912D03*
X019084Y009597D03*
X019084Y009282D03*
X019084Y008967D03*
X019084Y008652D03*
D15*
X019672Y008064D03*
X019987Y008064D03*
X020302Y008064D03*
X020617Y008064D03*
X020932Y008064D03*
X021247Y008064D03*
X021561Y008064D03*
X021876Y008064D03*
X021876Y011444D03*
X021561Y011444D03*
X021247Y011444D03*
X020932Y011444D03*
X020617Y011444D03*
X020302Y011444D03*
X019987Y011444D03*
X019672Y011444D03*
D16*
X022869Y008125D03*
X023735Y008125D03*
X010034Y010014D03*
X009168Y010014D03*
X008400Y010014D03*
X007573Y010014D03*
X008223Y008164D03*
X009089Y008164D03*
X005191Y005172D03*
X004325Y005172D03*
X004325Y004109D03*
X005191Y004109D03*
X005191Y003046D03*
X004325Y003046D03*
D17*
X003223Y004975D03*
X003223Y010802D03*
D18*
X013892Y010841D03*
X013892Y004936D03*
D19*
X005495Y010314D03*
X005495Y012518D03*
D20*
X005479Y014045D02*
X005479Y014645D01*
X006479Y014645D02*
X006479Y014045D01*
X008375Y013818D02*
X008975Y013818D01*
X008975Y012038D02*
X008375Y012038D01*
X010935Y012038D02*
X011535Y012038D01*
X011535Y013818D02*
X010935Y013818D01*
X007069Y006692D02*
X007069Y006092D01*
X007069Y005117D02*
X007069Y004517D01*
X007069Y003543D02*
X007069Y002943D01*
X006069Y002943D02*
X006069Y003543D01*
X006069Y004517D02*
X006069Y005117D01*
X006069Y006092D02*
X006069Y006692D01*
X008375Y004290D02*
X008975Y004290D01*
X010935Y004290D02*
X011535Y004290D01*
X011535Y002510D02*
X010935Y002510D01*
X008975Y002510D02*
X008375Y002510D01*
X021170Y002392D02*
X021770Y002392D01*
X023730Y002392D02*
X024330Y002392D01*
X024330Y004172D02*
X023730Y004172D01*
X021770Y004172D02*
X021170Y004172D01*
D21*
X006373Y008223D03*
X006373Y008971D03*
X005506Y008597D03*
D22*
X016239Y013333D03*
D23*
X017239Y013333D03*
X018239Y013333D03*
X018239Y014333D03*
X017239Y014333D03*
X016239Y014333D03*
D24*
X024207Y013917D03*
X024207Y012017D03*
D25*
X022554Y012022D03*
X021136Y007258D03*
X021215Y005172D03*
X023184Y005172D03*
X009089Y007495D03*
M02*
