G75*
G70*
%OFA0B0*%
%FSLAX24Y24*%
%IPPOS*%
%LPD*%
%AMOC8*
5,1,8,0,0,1.08239X$1,22.5*
%
%ADD10C,0.0000*%
%ADD11C,0.0160*%
%ADD12C,0.0060*%
%ADD13C,0.0040*%
%ADD14C,0.0030*%
%ADD15C,0.0070*%
%ADD16C,0.0080*%
%ADD17C,0.0020*%
%ADD18R,0.0591X0.0591*%
%ADD19C,0.0050*%
%ADD20R,0.0079X0.0079*%
D10*
X013301Y004936D02*
X013303Y004984D01*
X013309Y005032D01*
X013319Y005079D01*
X013332Y005125D01*
X013350Y005170D01*
X013370Y005214D01*
X013395Y005256D01*
X013423Y005295D01*
X013453Y005332D01*
X013487Y005366D01*
X013524Y005398D01*
X013562Y005427D01*
X013603Y005452D01*
X013646Y005474D01*
X013691Y005492D01*
X013737Y005506D01*
X013784Y005517D01*
X013832Y005524D01*
X013880Y005527D01*
X013928Y005526D01*
X013976Y005521D01*
X014024Y005512D01*
X014070Y005500D01*
X014115Y005483D01*
X014159Y005463D01*
X014201Y005440D01*
X014241Y005413D01*
X014279Y005383D01*
X014314Y005350D01*
X014346Y005314D01*
X014376Y005276D01*
X014402Y005235D01*
X014424Y005192D01*
X014444Y005148D01*
X014459Y005103D01*
X014471Y005056D01*
X014479Y005008D01*
X014483Y004960D01*
X014483Y004912D01*
X014479Y004864D01*
X014471Y004816D01*
X014459Y004769D01*
X014444Y004724D01*
X014424Y004680D01*
X014402Y004637D01*
X014376Y004596D01*
X014346Y004558D01*
X014314Y004522D01*
X014279Y004489D01*
X014241Y004459D01*
X014201Y004432D01*
X014159Y004409D01*
X014115Y004389D01*
X014070Y004372D01*
X014024Y004360D01*
X013976Y004351D01*
X013928Y004346D01*
X013880Y004345D01*
X013832Y004348D01*
X013784Y004355D01*
X013737Y004366D01*
X013691Y004380D01*
X013646Y004398D01*
X013603Y004420D01*
X013562Y004445D01*
X013524Y004474D01*
X013487Y004506D01*
X013453Y004540D01*
X013423Y004577D01*
X013395Y004616D01*
X013370Y004658D01*
X013350Y004702D01*
X013332Y004747D01*
X013319Y004793D01*
X013309Y004840D01*
X013303Y004888D01*
X013301Y004936D01*
X013301Y010841D02*
X013303Y010889D01*
X013309Y010937D01*
X013319Y010984D01*
X013332Y011030D01*
X013350Y011075D01*
X013370Y011119D01*
X013395Y011161D01*
X013423Y011200D01*
X013453Y011237D01*
X013487Y011271D01*
X013524Y011303D01*
X013562Y011332D01*
X013603Y011357D01*
X013646Y011379D01*
X013691Y011397D01*
X013737Y011411D01*
X013784Y011422D01*
X013832Y011429D01*
X013880Y011432D01*
X013928Y011431D01*
X013976Y011426D01*
X014024Y011417D01*
X014070Y011405D01*
X014115Y011388D01*
X014159Y011368D01*
X014201Y011345D01*
X014241Y011318D01*
X014279Y011288D01*
X014314Y011255D01*
X014346Y011219D01*
X014376Y011181D01*
X014402Y011140D01*
X014424Y011097D01*
X014444Y011053D01*
X014459Y011008D01*
X014471Y010961D01*
X014479Y010913D01*
X014483Y010865D01*
X014483Y010817D01*
X014479Y010769D01*
X014471Y010721D01*
X014459Y010674D01*
X014444Y010629D01*
X014424Y010585D01*
X014402Y010542D01*
X014376Y010501D01*
X014346Y010463D01*
X014314Y010427D01*
X014279Y010394D01*
X014241Y010364D01*
X014201Y010337D01*
X014159Y010314D01*
X014115Y010294D01*
X014070Y010277D01*
X014024Y010265D01*
X013976Y010256D01*
X013928Y010251D01*
X013880Y010250D01*
X013832Y010253D01*
X013784Y010260D01*
X013737Y010271D01*
X013691Y010285D01*
X013646Y010303D01*
X013603Y010325D01*
X013562Y010350D01*
X013524Y010379D01*
X013487Y010411D01*
X013453Y010445D01*
X013423Y010482D01*
X013395Y010521D01*
X013370Y010563D01*
X013350Y010607D01*
X013332Y010652D01*
X013319Y010698D01*
X013309Y010745D01*
X013303Y010793D01*
X013301Y010841D01*
X001569Y015644D02*
X001569Y020369D01*
X001569Y032180D01*
X040939Y032180D01*
X040939Y000684D01*
X025585Y000684D01*
D11*
X001569Y000684D02*
X001569Y015644D01*
X025585Y015644D01*
X025585Y000684D01*
X001569Y000684D01*
X013380Y000684D02*
X013380Y001098D01*
X013380Y001492D02*
X013380Y001906D01*
X013380Y002300D02*
X013380Y002714D01*
X013380Y003108D02*
X013380Y003522D01*
X013380Y003916D02*
X013380Y004331D01*
X013380Y004724D02*
X013380Y005139D01*
X013380Y005532D02*
X013380Y005947D01*
X013380Y006340D02*
X013380Y006755D01*
X013380Y007149D02*
X013380Y007563D01*
X013380Y007957D02*
X013380Y008371D01*
X013380Y008765D02*
X013380Y009179D01*
X013380Y009573D02*
X013380Y009987D01*
X013380Y010381D02*
X013380Y010795D01*
X013380Y011189D02*
X013380Y011604D01*
X013380Y011997D02*
X013380Y012412D01*
X013380Y012805D02*
X013380Y013220D01*
X013380Y013614D02*
X013380Y014028D01*
X013380Y014422D02*
X013380Y014836D01*
X013380Y015230D02*
X013380Y015644D01*
X023357Y014167D02*
X023357Y011767D01*
X023359Y011710D01*
X023365Y011654D01*
X023374Y011598D01*
X023387Y011542D01*
X023404Y011488D01*
X023424Y011435D01*
X023448Y011384D01*
X023476Y011334D01*
X023506Y011286D01*
X023540Y011240D01*
X023577Y011197D01*
X023616Y011156D01*
X023658Y011118D01*
X023703Y011083D01*
X023750Y011051D01*
X023799Y011022D01*
X023849Y010996D01*
X023902Y010974D01*
X023955Y010955D01*
X024010Y010940D01*
X024066Y010929D01*
X024122Y010921D01*
X024179Y010917D01*
X024235Y010917D01*
X024292Y010921D01*
X024348Y010929D01*
X024404Y010940D01*
X024459Y010955D01*
X024512Y010974D01*
X024565Y010996D01*
X024615Y011022D01*
X024664Y011051D01*
X024711Y011083D01*
X024756Y011118D01*
X024798Y011156D01*
X024837Y011197D01*
X024874Y011240D01*
X024908Y011286D01*
X024938Y011334D01*
X024966Y011384D01*
X024990Y011435D01*
X025010Y011488D01*
X025027Y011542D01*
X025040Y011598D01*
X025049Y011654D01*
X025055Y011710D01*
X025057Y011767D01*
X025057Y014167D01*
X025055Y014224D01*
X025049Y014280D01*
X025040Y014336D01*
X025027Y014392D01*
X025010Y014446D01*
X024990Y014499D01*
X024966Y014550D01*
X024938Y014600D01*
X024908Y014648D01*
X024874Y014694D01*
X024837Y014737D01*
X024798Y014778D01*
X024756Y014816D01*
X024711Y014851D01*
X024664Y014883D01*
X024615Y014912D01*
X024565Y014938D01*
X024512Y014960D01*
X024459Y014979D01*
X024404Y014994D01*
X024348Y015005D01*
X024292Y015013D01*
X024235Y015017D01*
X024179Y015017D01*
X024122Y015013D01*
X024066Y015005D01*
X024010Y014994D01*
X023955Y014979D01*
X023902Y014960D01*
X023849Y014938D01*
X023799Y014912D01*
X023750Y014883D01*
X023703Y014851D01*
X023658Y014816D01*
X023616Y014778D01*
X023577Y014737D01*
X023540Y014694D01*
X023506Y014648D01*
X023476Y014600D01*
X023448Y014550D01*
X023424Y014499D01*
X023404Y014446D01*
X023387Y014392D01*
X023374Y014336D01*
X023365Y014280D01*
X023359Y014224D01*
X023357Y014167D01*
D12*
X023557Y014167D02*
X023557Y011767D01*
X023559Y011717D01*
X023565Y011668D01*
X023574Y011619D01*
X023587Y011571D01*
X023604Y011524D01*
X023624Y011479D01*
X023648Y011435D01*
X023675Y011393D01*
X023706Y011353D01*
X023739Y011316D01*
X023775Y011282D01*
X023813Y011250D01*
X023854Y011221D01*
X023896Y011196D01*
X023941Y011174D01*
X023987Y011155D01*
X024035Y011140D01*
X024083Y011129D01*
X024132Y011121D01*
X024182Y011117D01*
X024232Y011117D01*
X024282Y011121D01*
X024331Y011129D01*
X024379Y011140D01*
X024427Y011155D01*
X024473Y011174D01*
X024518Y011196D01*
X024560Y011221D01*
X024601Y011250D01*
X024639Y011282D01*
X024675Y011316D01*
X024708Y011353D01*
X024739Y011393D01*
X024766Y011435D01*
X024790Y011479D01*
X024810Y011524D01*
X024827Y011571D01*
X024840Y011619D01*
X024849Y011668D01*
X024855Y011717D01*
X024857Y011767D01*
X024857Y014167D01*
X024855Y014217D01*
X024849Y014266D01*
X024840Y014315D01*
X024827Y014363D01*
X024810Y014410D01*
X024790Y014455D01*
X024766Y014499D01*
X024739Y014541D01*
X024708Y014581D01*
X024675Y014618D01*
X024639Y014652D01*
X024601Y014684D01*
X024560Y014713D01*
X024518Y014738D01*
X024473Y014760D01*
X024427Y014779D01*
X024379Y014794D01*
X024331Y014805D01*
X024282Y014813D01*
X024232Y014817D01*
X024182Y014817D01*
X024132Y014813D01*
X024083Y014805D01*
X024035Y014794D01*
X023987Y014779D01*
X023941Y014760D01*
X023896Y014738D01*
X023854Y014713D01*
X023813Y014684D01*
X023775Y014652D01*
X023739Y014618D01*
X023706Y014581D01*
X023675Y014541D01*
X023648Y014499D01*
X023624Y014455D01*
X023604Y014410D01*
X023587Y014363D01*
X023574Y014315D01*
X023565Y014266D01*
X023559Y014217D01*
X023557Y014167D01*
X024207Y013467D02*
X024207Y013217D01*
X024507Y013217D01*
X024507Y013067D02*
X024507Y012867D01*
X023907Y012867D01*
X023907Y013067D01*
X024507Y013067D01*
X024207Y013217D02*
X023907Y013217D01*
X023907Y012717D02*
X024207Y012717D01*
X024207Y012467D01*
X024207Y012717D02*
X024507Y012717D01*
X022154Y011134D02*
X022154Y008514D01*
X022014Y008375D01*
X019394Y008375D01*
X019394Y011134D01*
X022154Y011134D01*
X021713Y008674D02*
X021715Y008697D01*
X021721Y008720D01*
X021730Y008741D01*
X021743Y008761D01*
X021759Y008778D01*
X021777Y008792D01*
X021797Y008803D01*
X021819Y008811D01*
X021842Y008815D01*
X021866Y008815D01*
X021889Y008811D01*
X021911Y008803D01*
X021931Y008792D01*
X021949Y008778D01*
X021965Y008761D01*
X021978Y008741D01*
X021987Y008720D01*
X021993Y008697D01*
X021995Y008674D01*
X021993Y008651D01*
X021987Y008628D01*
X021978Y008607D01*
X021965Y008587D01*
X021949Y008570D01*
X021931Y008556D01*
X021911Y008545D01*
X021889Y008537D01*
X021866Y008533D01*
X021842Y008533D01*
X021819Y008537D01*
X021797Y008545D01*
X021777Y008556D01*
X021759Y008570D01*
X021743Y008587D01*
X021730Y008607D01*
X021721Y008628D01*
X021715Y008651D01*
X021713Y008674D01*
X024828Y006047D02*
X025468Y006047D01*
X025468Y005727D01*
X025361Y005620D01*
X025148Y005620D01*
X025041Y005727D01*
X025041Y006047D01*
X025041Y005403D02*
X025041Y005082D01*
X025148Y004976D01*
X025361Y004976D01*
X025468Y005082D01*
X025468Y005403D01*
X024828Y005403D01*
X025041Y005189D02*
X024828Y004976D01*
X024934Y004758D02*
X024828Y004651D01*
X024828Y004438D01*
X024934Y004331D01*
X025361Y004331D01*
X025468Y004438D01*
X025468Y004651D01*
X025361Y004758D01*
X024934Y004758D01*
X024934Y004114D02*
X024828Y004007D01*
X024828Y003793D01*
X024934Y003687D01*
X025148Y003687D01*
X025148Y003900D01*
X025361Y003687D02*
X025468Y003793D01*
X025468Y004007D01*
X025361Y004114D01*
X024934Y004114D01*
X024828Y003469D02*
X025468Y003469D01*
X025468Y003149D01*
X025361Y003042D01*
X025148Y003042D01*
X025041Y003149D01*
X025041Y003469D01*
X025041Y003256D02*
X024828Y003042D01*
X024828Y002825D02*
X025255Y002825D01*
X025468Y002611D01*
X025255Y002398D01*
X024828Y002398D01*
X024828Y002180D02*
X025468Y002180D01*
X025255Y001966D01*
X025468Y001753D01*
X024828Y001753D01*
X025148Y002398D02*
X025148Y002825D01*
X024050Y002982D02*
X024050Y003582D01*
X023950Y003582D01*
X023950Y003682D01*
X023950Y002982D02*
X023950Y002882D01*
X023950Y002982D02*
X024050Y002982D01*
X023600Y002082D02*
X023250Y002082D01*
X022250Y002082D01*
X021900Y002082D01*
X021550Y002882D02*
X021550Y002982D01*
X021450Y002982D01*
X021450Y003582D01*
X021550Y003582D01*
X021550Y003682D01*
X021900Y004482D02*
X022300Y004482D01*
X023250Y004482D01*
X023600Y004482D01*
X022650Y003282D02*
X022652Y003302D01*
X022658Y003320D01*
X022667Y003338D01*
X022679Y003353D01*
X022694Y003365D01*
X022712Y003374D01*
X022730Y003380D01*
X022750Y003382D01*
X022770Y003380D01*
X022788Y003374D01*
X022806Y003365D01*
X022821Y003353D01*
X022833Y003338D01*
X022842Y003320D01*
X022848Y003302D01*
X022850Y003282D01*
X022848Y003262D01*
X022842Y003244D01*
X022833Y003226D01*
X022821Y003211D01*
X022806Y003199D01*
X022788Y003190D01*
X022770Y003184D01*
X022750Y003182D01*
X022730Y003184D01*
X022712Y003190D01*
X022694Y003199D01*
X022679Y003211D01*
X022667Y003226D01*
X022658Y003244D01*
X022652Y003262D01*
X022650Y003282D01*
X022050Y003282D02*
X022052Y003334D01*
X022058Y003386D01*
X022068Y003438D01*
X022081Y003488D01*
X022098Y003538D01*
X022119Y003586D01*
X022144Y003632D01*
X022172Y003676D01*
X022203Y003718D01*
X022237Y003758D01*
X022274Y003795D01*
X022314Y003829D01*
X022356Y003860D01*
X022400Y003888D01*
X022446Y003913D01*
X022494Y003934D01*
X022544Y003951D01*
X022594Y003964D01*
X022646Y003974D01*
X022698Y003980D01*
X022750Y003982D01*
X022802Y003980D01*
X022854Y003974D01*
X022906Y003964D01*
X022956Y003951D01*
X023006Y003934D01*
X023054Y003913D01*
X023100Y003888D01*
X023144Y003860D01*
X023186Y003829D01*
X023226Y003795D01*
X023263Y003758D01*
X023297Y003718D01*
X023328Y003676D01*
X023356Y003632D01*
X023381Y003586D01*
X023402Y003538D01*
X023419Y003488D01*
X023432Y003438D01*
X023442Y003386D01*
X023448Y003334D01*
X023450Y003282D01*
X023448Y003230D01*
X023442Y003178D01*
X023432Y003126D01*
X023419Y003076D01*
X023402Y003026D01*
X023381Y002978D01*
X023356Y002932D01*
X023328Y002888D01*
X023297Y002846D01*
X023263Y002806D01*
X023226Y002769D01*
X023186Y002735D01*
X023144Y002704D01*
X023100Y002676D01*
X023054Y002651D01*
X023006Y002630D01*
X022956Y002613D01*
X022906Y002600D01*
X022854Y002590D01*
X022802Y002584D01*
X022750Y002582D01*
X022698Y002584D01*
X022646Y002590D01*
X022594Y002600D01*
X022544Y002613D01*
X022494Y002630D01*
X022446Y002651D01*
X022400Y002676D01*
X022356Y002704D01*
X022314Y002735D01*
X022274Y002769D01*
X022237Y002806D01*
X022203Y002846D01*
X022172Y002888D01*
X022144Y002932D01*
X022119Y002978D01*
X022098Y003026D01*
X022081Y003076D01*
X022068Y003126D01*
X022058Y003178D01*
X022052Y003230D01*
X022050Y003282D01*
X025297Y007168D02*
X025297Y007595D01*
X025297Y008168D02*
X025297Y008595D01*
X025083Y008382D02*
X025510Y008382D01*
X018739Y013083D02*
X018489Y012833D01*
X017989Y012833D01*
X017739Y013083D01*
X017739Y014583D01*
X017989Y014833D01*
X018489Y014833D01*
X018739Y014583D01*
X018739Y013083D01*
X017739Y013083D02*
X017489Y012833D01*
X016989Y012833D01*
X016739Y013083D01*
X016739Y014583D01*
X016989Y014833D01*
X017489Y014833D01*
X017739Y014583D01*
X016739Y014583D02*
X016489Y014833D01*
X015989Y014833D01*
X015739Y014583D01*
X015739Y013083D01*
X015989Y012833D01*
X016489Y012833D01*
X016739Y013083D01*
X012681Y012910D02*
X012041Y012910D01*
X012041Y012697D02*
X012041Y013124D01*
X012147Y013341D02*
X012574Y013341D01*
X012681Y013448D01*
X012681Y013662D01*
X012574Y013768D01*
X012147Y013768D01*
X012041Y013662D01*
X012041Y013448D01*
X012147Y013341D01*
X012041Y013986D02*
X012041Y014306D01*
X012147Y014413D01*
X012361Y014413D01*
X012468Y014306D01*
X012468Y013986D01*
X012681Y013986D02*
X012041Y013986D01*
X011155Y013328D02*
X011155Y013228D01*
X011255Y013228D01*
X011255Y012628D01*
X011155Y012628D01*
X011155Y012528D01*
X010805Y011728D02*
X010405Y011728D01*
X009455Y011728D01*
X009105Y011728D01*
X008755Y012528D02*
X008755Y012628D01*
X008655Y012628D01*
X008655Y013228D01*
X008755Y013228D01*
X008755Y013328D01*
X009105Y014128D02*
X009455Y014128D01*
X010455Y014128D01*
X010805Y014128D01*
X009855Y012928D02*
X009857Y012948D01*
X009863Y012966D01*
X009872Y012984D01*
X009884Y012999D01*
X009899Y013011D01*
X009917Y013020D01*
X009935Y013026D01*
X009955Y013028D01*
X009975Y013026D01*
X009993Y013020D01*
X010011Y013011D01*
X010026Y012999D01*
X010038Y012984D01*
X010047Y012966D01*
X010053Y012948D01*
X010055Y012928D01*
X010053Y012908D01*
X010047Y012890D01*
X010038Y012872D01*
X010026Y012857D01*
X010011Y012845D01*
X009993Y012836D01*
X009975Y012830D01*
X009955Y012828D01*
X009935Y012830D01*
X009917Y012836D01*
X009899Y012845D01*
X009884Y012857D01*
X009872Y012872D01*
X009863Y012890D01*
X009857Y012908D01*
X009855Y012928D01*
X009255Y012928D02*
X009257Y012980D01*
X009263Y013032D01*
X009273Y013084D01*
X009286Y013134D01*
X009303Y013184D01*
X009324Y013232D01*
X009349Y013278D01*
X009377Y013322D01*
X009408Y013364D01*
X009442Y013404D01*
X009479Y013441D01*
X009519Y013475D01*
X009561Y013506D01*
X009605Y013534D01*
X009651Y013559D01*
X009699Y013580D01*
X009749Y013597D01*
X009799Y013610D01*
X009851Y013620D01*
X009903Y013626D01*
X009955Y013628D01*
X010007Y013626D01*
X010059Y013620D01*
X010111Y013610D01*
X010161Y013597D01*
X010211Y013580D01*
X010259Y013559D01*
X010305Y013534D01*
X010349Y013506D01*
X010391Y013475D01*
X010431Y013441D01*
X010468Y013404D01*
X010502Y013364D01*
X010533Y013322D01*
X010561Y013278D01*
X010586Y013232D01*
X010607Y013184D01*
X010624Y013134D01*
X010637Y013084D01*
X010647Y013032D01*
X010653Y012980D01*
X010655Y012928D01*
X010653Y012876D01*
X010647Y012824D01*
X010637Y012772D01*
X010624Y012722D01*
X010607Y012672D01*
X010586Y012624D01*
X010561Y012578D01*
X010533Y012534D01*
X010502Y012492D01*
X010468Y012452D01*
X010431Y012415D01*
X010391Y012381D01*
X010349Y012350D01*
X010305Y012322D01*
X010259Y012297D01*
X010211Y012276D01*
X010161Y012259D01*
X010111Y012246D01*
X010059Y012236D01*
X010007Y012230D01*
X009955Y012228D01*
X009903Y012230D01*
X009851Y012236D01*
X009799Y012246D01*
X009749Y012259D01*
X009699Y012276D01*
X009651Y012297D01*
X009605Y012322D01*
X009561Y012350D01*
X009519Y012381D01*
X009479Y012415D01*
X009442Y012452D01*
X009408Y012492D01*
X009377Y012534D01*
X009349Y012578D01*
X009324Y012624D01*
X009303Y012672D01*
X009286Y012722D01*
X009273Y012772D01*
X009263Y012824D01*
X009257Y012876D01*
X009255Y012928D01*
X006979Y014095D02*
X006979Y014595D01*
X006729Y014845D01*
X006229Y014845D01*
X005979Y014595D01*
X005729Y014845D01*
X005229Y014845D01*
X004979Y014595D01*
X004979Y014095D01*
X005229Y013845D01*
X005729Y013845D01*
X005979Y014095D01*
X005979Y014595D01*
X005979Y014095D02*
X006229Y013845D01*
X006729Y013845D01*
X006979Y014095D01*
X002242Y014550D02*
X002029Y014181D01*
X001742Y013684D02*
X001529Y013315D01*
X001451Y013606D02*
X001820Y013393D01*
X001581Y008530D02*
X001581Y008103D01*
X001581Y007530D02*
X001581Y007103D01*
X001368Y007316D02*
X001795Y007316D01*
X005569Y006642D02*
X005569Y006142D01*
X005819Y005892D01*
X006319Y005892D01*
X006569Y006142D01*
X006569Y006642D01*
X006319Y006892D01*
X005819Y006892D01*
X005569Y006642D01*
X006569Y006642D02*
X006819Y006892D01*
X007319Y006892D01*
X007569Y006642D01*
X007569Y006142D01*
X007319Y005892D01*
X006819Y005892D01*
X006569Y006142D01*
X006319Y005317D02*
X005819Y005317D01*
X005569Y005067D01*
X005569Y004567D01*
X005819Y004317D01*
X006319Y004317D01*
X006569Y004567D01*
X006569Y005067D01*
X006319Y005317D01*
X006569Y005067D02*
X006819Y005317D01*
X007319Y005317D01*
X007569Y005067D01*
X007569Y004567D01*
X007319Y004317D01*
X006819Y004317D01*
X006569Y004567D01*
X006319Y003743D02*
X005819Y003743D01*
X005569Y003493D01*
X005569Y002993D01*
X005819Y002743D01*
X006319Y002743D01*
X006569Y002993D01*
X006569Y003493D01*
X006319Y003743D01*
X006569Y003493D02*
X006819Y003743D01*
X007319Y003743D01*
X007569Y003493D01*
X007569Y002993D01*
X007319Y002743D01*
X006819Y002743D01*
X006569Y002993D01*
X008655Y003100D02*
X008755Y003100D01*
X008755Y003000D01*
X008655Y003100D02*
X008655Y003700D01*
X008755Y003700D01*
X008755Y003800D01*
X009105Y004600D02*
X009505Y004600D01*
X010455Y004600D01*
X010805Y004600D01*
X011155Y003800D02*
X011155Y003700D01*
X011255Y003700D01*
X011255Y003100D01*
X011155Y003100D01*
X011155Y003000D01*
X012041Y002888D02*
X012041Y002461D01*
X012041Y002674D02*
X012681Y002674D01*
X012681Y003105D02*
X012254Y003105D01*
X012041Y003319D01*
X012254Y003532D01*
X012681Y003532D01*
X012681Y003750D02*
X012041Y003750D01*
X012041Y004070D01*
X012147Y004177D01*
X012361Y004177D01*
X012468Y004070D01*
X012468Y003750D01*
X012468Y003963D02*
X012681Y004177D01*
X012041Y004394D02*
X012041Y004821D01*
X012041Y004608D02*
X012681Y004608D01*
X012361Y003532D02*
X012361Y003105D01*
X012468Y002243D02*
X012574Y002243D01*
X012681Y002136D01*
X012681Y001923D01*
X012574Y001816D01*
X012361Y001923D02*
X012361Y002136D01*
X012468Y002243D01*
X012147Y002243D02*
X012041Y002136D01*
X012041Y001923D01*
X012147Y001816D01*
X012254Y001816D01*
X012361Y001923D01*
X010805Y002200D02*
X010455Y002200D01*
X009455Y002200D01*
X009105Y002200D01*
X009855Y003400D02*
X009857Y003420D01*
X009863Y003438D01*
X009872Y003456D01*
X009884Y003471D01*
X009899Y003483D01*
X009917Y003492D01*
X009935Y003498D01*
X009955Y003500D01*
X009975Y003498D01*
X009993Y003492D01*
X010011Y003483D01*
X010026Y003471D01*
X010038Y003456D01*
X010047Y003438D01*
X010053Y003420D01*
X010055Y003400D01*
X010053Y003380D01*
X010047Y003362D01*
X010038Y003344D01*
X010026Y003329D01*
X010011Y003317D01*
X009993Y003308D01*
X009975Y003302D01*
X009955Y003300D01*
X009935Y003302D01*
X009917Y003308D01*
X009899Y003317D01*
X009884Y003329D01*
X009872Y003344D01*
X009863Y003362D01*
X009857Y003380D01*
X009855Y003400D01*
X009255Y003400D02*
X009257Y003452D01*
X009263Y003504D01*
X009273Y003556D01*
X009286Y003606D01*
X009303Y003656D01*
X009324Y003704D01*
X009349Y003750D01*
X009377Y003794D01*
X009408Y003836D01*
X009442Y003876D01*
X009479Y003913D01*
X009519Y003947D01*
X009561Y003978D01*
X009605Y004006D01*
X009651Y004031D01*
X009699Y004052D01*
X009749Y004069D01*
X009799Y004082D01*
X009851Y004092D01*
X009903Y004098D01*
X009955Y004100D01*
X010007Y004098D01*
X010059Y004092D01*
X010111Y004082D01*
X010161Y004069D01*
X010211Y004052D01*
X010259Y004031D01*
X010305Y004006D01*
X010349Y003978D01*
X010391Y003947D01*
X010431Y003913D01*
X010468Y003876D01*
X010502Y003836D01*
X010533Y003794D01*
X010561Y003750D01*
X010586Y003704D01*
X010607Y003656D01*
X010624Y003606D01*
X010637Y003556D01*
X010647Y003504D01*
X010653Y003452D01*
X010655Y003400D01*
X010653Y003348D01*
X010647Y003296D01*
X010637Y003244D01*
X010624Y003194D01*
X010607Y003144D01*
X010586Y003096D01*
X010561Y003050D01*
X010533Y003006D01*
X010502Y002964D01*
X010468Y002924D01*
X010431Y002887D01*
X010391Y002853D01*
X010349Y002822D01*
X010305Y002794D01*
X010259Y002769D01*
X010211Y002748D01*
X010161Y002731D01*
X010111Y002718D01*
X010059Y002708D01*
X010007Y002702D01*
X009955Y002700D01*
X009903Y002702D01*
X009851Y002708D01*
X009799Y002718D01*
X009749Y002731D01*
X009699Y002748D01*
X009651Y002769D01*
X009605Y002794D01*
X009561Y002822D01*
X009519Y002853D01*
X009479Y002887D01*
X009442Y002924D01*
X009408Y002964D01*
X009377Y003006D01*
X009349Y003050D01*
X009324Y003096D01*
X009303Y003144D01*
X009286Y003194D01*
X009273Y003244D01*
X009263Y003296D01*
X009257Y003348D01*
X009255Y003400D01*
X002393Y001550D02*
X002023Y001337D01*
X002101Y001629D02*
X002315Y001259D01*
X001815Y002125D02*
X001601Y002495D01*
X012041Y012159D02*
X012147Y012052D01*
X012254Y012052D01*
X012361Y012159D01*
X012361Y012372D01*
X012468Y012479D01*
X012574Y012479D01*
X012681Y012372D01*
X012681Y012159D01*
X012574Y012052D01*
X012041Y012159D02*
X012041Y012372D01*
X012147Y012479D01*
D13*
X016087Y001518D02*
X015920Y001352D01*
X016087Y001518D02*
X016087Y001019D01*
X016253Y001019D02*
X015920Y001019D01*
X016913Y001019D02*
X017247Y001352D01*
X017247Y001435D01*
X017163Y001518D01*
X016997Y001518D01*
X016913Y001435D01*
X016913Y001019D02*
X017247Y001019D01*
X017907Y001102D02*
X017990Y001019D01*
X018157Y001019D01*
X018240Y001102D01*
X018240Y001185D01*
X018157Y001268D01*
X018073Y001268D01*
X018157Y001268D02*
X018240Y001352D01*
X018240Y001435D01*
X018157Y001518D01*
X017990Y001518D01*
X017907Y001435D01*
X018900Y001268D02*
X019233Y001268D01*
X019150Y001019D02*
X019150Y001518D01*
X018900Y001268D01*
X019893Y001268D02*
X020060Y001352D01*
X020143Y001352D01*
X020226Y001268D01*
X020226Y001102D01*
X020143Y001019D01*
X019977Y001019D01*
X019893Y001102D01*
X019893Y001268D02*
X019893Y001518D01*
X020226Y001518D01*
D14*
X021903Y001575D02*
X021951Y001527D01*
X022048Y001527D01*
X022096Y001575D01*
X022096Y001624D01*
X022048Y001672D01*
X021951Y001672D01*
X021903Y001721D01*
X021903Y001769D01*
X021951Y001817D01*
X022048Y001817D01*
X022096Y001769D01*
X022198Y001817D02*
X022198Y001527D01*
X022294Y001624D01*
X022391Y001527D01*
X022391Y001817D01*
X022492Y001479D02*
X022686Y001479D01*
X022787Y001527D02*
X022787Y001817D01*
X022932Y001817D01*
X022980Y001769D01*
X022980Y001672D01*
X022932Y001624D01*
X022787Y001624D01*
X023081Y001624D02*
X023227Y001624D01*
X023275Y001672D01*
X023275Y001769D01*
X023227Y001817D01*
X023081Y001817D01*
X023081Y001527D01*
X023178Y001624D02*
X023275Y001527D01*
X023376Y001575D02*
X023425Y001527D01*
X023521Y001527D01*
X023570Y001575D01*
X023570Y001769D01*
X023521Y001817D01*
X023425Y001817D01*
X023376Y001769D01*
X023376Y001575D01*
X023671Y001575D02*
X023671Y001769D01*
X023719Y001817D01*
X023816Y001817D01*
X023864Y001769D01*
X023864Y001672D02*
X023768Y001672D01*
X023864Y001672D02*
X023864Y001575D01*
X023816Y001527D01*
X023719Y001527D01*
X023671Y001575D01*
X023974Y006332D02*
X024071Y006332D01*
X024022Y006332D02*
X024022Y006623D01*
X023974Y006623D02*
X024071Y006623D01*
X024171Y006623D02*
X024316Y006623D01*
X024364Y006574D01*
X024364Y006478D01*
X024316Y006429D01*
X024171Y006429D01*
X024267Y006429D02*
X024364Y006332D01*
X024465Y006332D02*
X024659Y006332D01*
X024760Y006332D02*
X024953Y006332D01*
X025055Y006332D02*
X025055Y006623D01*
X025200Y006623D01*
X025248Y006574D01*
X025248Y006381D01*
X025200Y006332D01*
X025055Y006332D01*
X024857Y006478D02*
X024760Y006478D01*
X024760Y006623D02*
X024760Y006332D01*
X024760Y006623D02*
X024953Y006623D01*
X025349Y006478D02*
X025543Y006478D01*
X025494Y006623D02*
X025349Y006478D01*
X025494Y006332D02*
X025494Y006623D01*
X024465Y006623D02*
X024465Y006332D01*
X024171Y006332D02*
X024171Y006623D01*
X023515Y007152D02*
X023467Y007104D01*
X023370Y007104D01*
X023322Y007152D01*
X023322Y007249D02*
X023419Y007298D01*
X023467Y007298D01*
X023515Y007249D01*
X023515Y007152D01*
X023322Y007249D02*
X023322Y007394D01*
X023515Y007394D01*
X023221Y007346D02*
X023221Y007249D01*
X023172Y007201D01*
X023027Y007201D01*
X023027Y007104D02*
X023027Y007394D01*
X023172Y007394D01*
X023221Y007346D01*
X023124Y007201D02*
X023221Y007104D01*
X022689Y007346D02*
X022495Y007152D01*
X022495Y007104D01*
X022394Y007104D02*
X022297Y007201D01*
X022346Y007201D02*
X022200Y007201D01*
X022200Y007104D02*
X022200Y007394D01*
X022346Y007394D01*
X022394Y007346D01*
X022394Y007249D01*
X022346Y007201D01*
X022495Y007394D02*
X022689Y007394D01*
X022689Y007346D01*
X021980Y007104D02*
X021786Y007104D01*
X021883Y007104D02*
X021883Y007394D01*
X021786Y007298D01*
X021685Y007346D02*
X021685Y007249D01*
X021637Y007201D01*
X021492Y007201D01*
X021589Y007201D02*
X021685Y007104D01*
X021492Y007104D02*
X021492Y007394D01*
X021637Y007394D01*
X021685Y007346D01*
X020739Y007307D02*
X020691Y007355D01*
X020594Y007355D01*
X020546Y007307D01*
X020739Y007307D02*
X020739Y007258D01*
X020546Y007065D01*
X020739Y007065D01*
X020445Y007065D02*
X020251Y007065D01*
X020348Y007065D02*
X020348Y007355D01*
X020251Y007258D01*
X020150Y007210D02*
X020102Y007161D01*
X019956Y007161D01*
X019956Y007065D02*
X019956Y007355D01*
X020102Y007355D01*
X020150Y007307D01*
X020150Y007210D01*
X020053Y007161D02*
X020150Y007065D01*
X019259Y007537D02*
X019065Y007537D01*
X019162Y007537D02*
X019162Y007827D01*
X019065Y007731D01*
X018964Y007537D02*
X018771Y007537D01*
X018867Y007537D02*
X018867Y007827D01*
X018771Y007731D01*
X018670Y007779D02*
X018670Y007682D01*
X018621Y007634D01*
X018476Y007634D01*
X018476Y007537D02*
X018476Y007827D01*
X018621Y007827D01*
X018670Y007779D01*
X018573Y007634D02*
X018670Y007537D01*
X018275Y007578D02*
X018275Y007771D01*
X018081Y007578D01*
X018130Y007529D01*
X018226Y007529D01*
X018275Y007578D01*
X018275Y007771D02*
X018226Y007820D01*
X018130Y007820D01*
X018081Y007771D01*
X018081Y007578D01*
X017980Y007529D02*
X017786Y007529D01*
X017883Y007529D02*
X017883Y007820D01*
X017786Y007723D01*
X017685Y007771D02*
X017685Y007674D01*
X017637Y007626D01*
X017492Y007626D01*
X017589Y007626D02*
X017685Y007529D01*
X017492Y007529D02*
X017492Y007820D01*
X017637Y007820D01*
X017685Y007771D01*
X016956Y007763D02*
X016956Y007570D01*
X016908Y007521D01*
X016811Y007521D01*
X016763Y007570D01*
X016811Y007667D02*
X016956Y007667D01*
X016956Y007763D02*
X016908Y007812D01*
X016811Y007812D01*
X016763Y007763D01*
X016763Y007715D01*
X016811Y007667D01*
X016662Y007667D02*
X016613Y007618D01*
X016468Y007618D01*
X016468Y007521D02*
X016468Y007812D01*
X016613Y007812D01*
X016662Y007763D01*
X016662Y007667D01*
X016565Y007618D02*
X016662Y007521D01*
X016011Y007562D02*
X015963Y007514D01*
X015866Y007514D01*
X015818Y007562D01*
X015818Y007610D01*
X015866Y007659D01*
X015963Y007659D01*
X016011Y007610D01*
X016011Y007562D01*
X015963Y007659D02*
X016011Y007707D01*
X016011Y007755D01*
X015963Y007804D01*
X015866Y007804D01*
X015818Y007755D01*
X015818Y007707D01*
X015866Y007659D01*
X015717Y007659D02*
X015668Y007610D01*
X015523Y007610D01*
X015523Y007514D02*
X015523Y007804D01*
X015668Y007804D01*
X015717Y007755D01*
X015717Y007659D01*
X015620Y007610D02*
X015717Y007514D01*
X012617Y007419D02*
X012247Y007419D01*
X012247Y007666D01*
X012432Y007543D02*
X012432Y007419D01*
X012432Y007298D02*
X012494Y007236D01*
X012494Y007051D01*
X012617Y007051D02*
X012247Y007051D01*
X012247Y007236D01*
X012309Y007298D01*
X012432Y007298D01*
X012494Y007175D02*
X012617Y007298D01*
X012556Y006930D02*
X012617Y006868D01*
X012617Y006745D01*
X012556Y006683D01*
X012309Y006683D01*
X012247Y006745D01*
X012247Y006868D01*
X012309Y006930D01*
X012071Y007175D02*
X012071Y007236D01*
X012010Y007298D01*
X011701Y007298D01*
X011701Y007051D02*
X011886Y007051D01*
X011948Y007113D01*
X011948Y007298D01*
X011886Y006930D02*
X011763Y006930D01*
X011701Y006868D01*
X011701Y006683D01*
X011578Y006683D02*
X011948Y006683D01*
X011948Y006868D01*
X011886Y006930D01*
X011358Y006930D02*
X011234Y006806D01*
X011234Y006868D02*
X011234Y006683D01*
X011358Y006683D02*
X010987Y006683D01*
X010987Y006868D01*
X011049Y006930D01*
X011172Y006930D01*
X011234Y006868D01*
X011234Y007051D02*
X011234Y007298D01*
X011172Y007298D01*
X011111Y007236D01*
X011111Y007113D01*
X011172Y007051D01*
X011296Y007051D01*
X011358Y007113D01*
X011358Y007236D01*
X011358Y007419D02*
X011111Y007419D01*
X011111Y007481D01*
X011172Y007543D01*
X011111Y007605D01*
X011172Y007666D01*
X011358Y007666D01*
X011358Y007543D02*
X011172Y007543D01*
X011172Y007788D02*
X011296Y007788D01*
X011358Y007850D01*
X011358Y007973D01*
X011296Y008035D01*
X011172Y008035D01*
X011111Y007973D01*
X011111Y007850D01*
X011172Y007788D01*
X011111Y008156D02*
X011111Y008280D01*
X011049Y008218D02*
X011296Y008218D01*
X011358Y008280D01*
X011296Y008402D02*
X011172Y008402D01*
X011111Y008463D01*
X011111Y008587D01*
X011172Y008649D01*
X011234Y008649D01*
X011234Y008402D01*
X011296Y008402D02*
X011358Y008463D01*
X011358Y008587D01*
X011516Y008525D02*
X011578Y008525D01*
X011701Y008525D02*
X011948Y008525D01*
X011948Y008586D02*
X011948Y008463D01*
X011948Y008709D02*
X011578Y008709D01*
X011701Y008525D02*
X011701Y008463D01*
X011701Y008341D02*
X011701Y008280D01*
X011825Y008156D01*
X011948Y008156D02*
X011701Y008156D01*
X011578Y008035D02*
X011578Y007788D01*
X011948Y007788D01*
X011948Y008035D01*
X011763Y007911D02*
X011763Y007788D01*
X012247Y008218D02*
X012309Y008156D01*
X012247Y008218D02*
X012247Y008341D01*
X012309Y008403D01*
X012370Y008403D01*
X012617Y008156D01*
X012617Y008403D01*
X012556Y008524D02*
X012309Y008771D01*
X012556Y008771D01*
X012617Y008710D01*
X012617Y008586D01*
X012556Y008524D01*
X012309Y008524D01*
X012247Y008586D01*
X012247Y008710D01*
X012309Y008771D01*
X012370Y008893D02*
X012247Y009016D01*
X012617Y009016D01*
X012617Y008893D02*
X012617Y009140D01*
X012617Y009261D02*
X012617Y009508D01*
X012617Y009629D02*
X012247Y009876D01*
X012309Y009998D02*
X012247Y010059D01*
X012247Y010183D01*
X012309Y010245D01*
X012370Y010245D01*
X012617Y009998D01*
X012617Y010245D01*
X012556Y010366D02*
X012309Y010613D01*
X012556Y010613D01*
X012617Y010551D01*
X012617Y010428D01*
X012556Y010366D01*
X012309Y010366D01*
X012247Y010428D01*
X012247Y010551D01*
X012309Y010613D01*
X012370Y010734D02*
X012247Y010858D01*
X012617Y010858D01*
X012617Y010981D02*
X012617Y010734D01*
X012617Y011103D02*
X012370Y011349D01*
X012309Y011349D01*
X012247Y011288D01*
X012247Y011164D01*
X012309Y011103D01*
X012617Y011103D02*
X012617Y011349D01*
X011948Y011288D02*
X011948Y011103D01*
X011886Y011041D01*
X011825Y011103D01*
X011825Y011288D01*
X011763Y011288D02*
X011948Y011288D01*
X011763Y011288D02*
X011701Y011226D01*
X011701Y011103D01*
X011639Y011165D02*
X011578Y011226D01*
X011516Y011165D01*
X011578Y011103D01*
X011639Y011165D01*
X011763Y010920D02*
X011948Y010920D01*
X011763Y010920D02*
X011701Y010858D01*
X011701Y010673D01*
X011948Y010673D01*
X011701Y010551D02*
X011701Y010489D01*
X011825Y010366D01*
X011825Y010245D02*
X011825Y009998D01*
X011886Y009998D02*
X011763Y009998D01*
X011701Y010059D01*
X011701Y010183D01*
X011763Y010245D01*
X011825Y010245D01*
X011948Y010183D02*
X011948Y010059D01*
X011886Y009998D01*
X011948Y009876D02*
X011886Y009814D01*
X011639Y009814D01*
X011701Y009752D02*
X011701Y009876D01*
X011639Y009631D02*
X011578Y009569D01*
X011578Y009446D01*
X011639Y009384D01*
X011701Y009384D01*
X011763Y009446D01*
X011763Y009569D01*
X011825Y009631D01*
X011886Y009631D01*
X011948Y009569D01*
X011948Y009446D01*
X011886Y009384D01*
X012247Y009384D02*
X012617Y009384D01*
X012370Y009261D02*
X012247Y009384D01*
X011948Y008894D02*
X011825Y008709D01*
X011701Y008894D01*
X011358Y009200D02*
X011358Y009385D01*
X011296Y009507D02*
X011358Y009568D01*
X011358Y009692D01*
X011296Y009753D01*
X011172Y009753D01*
X011111Y009692D01*
X011111Y009568D01*
X011172Y009507D01*
X011296Y009507D01*
X011111Y009385D02*
X011111Y009200D01*
X011172Y009138D01*
X011296Y009138D01*
X011358Y009200D01*
X011358Y009875D02*
X011111Y009875D01*
X011111Y010060D01*
X011172Y010122D01*
X011358Y010122D01*
X011296Y010305D02*
X011358Y010367D01*
X011296Y010305D02*
X011049Y010305D01*
X011111Y010243D02*
X011111Y010367D01*
X011111Y010489D02*
X011358Y010489D01*
X011234Y010489D02*
X011111Y010612D01*
X011111Y010674D01*
X011172Y010796D02*
X011296Y010796D01*
X011358Y010857D01*
X011358Y010981D01*
X011296Y011043D01*
X011172Y011043D01*
X011111Y010981D01*
X011111Y010857D01*
X011172Y010796D01*
X010987Y011164D02*
X010987Y011226D01*
X011358Y011226D01*
X011358Y011287D02*
X011358Y011164D01*
X011701Y010366D02*
X011948Y010366D01*
X010149Y010771D02*
X009955Y010578D01*
X009955Y010529D01*
X009854Y010529D02*
X009660Y010529D01*
X009757Y010529D02*
X009757Y010820D01*
X009660Y010723D01*
X009559Y010771D02*
X009559Y010674D01*
X009511Y010626D01*
X009366Y010626D01*
X009463Y010626D02*
X009559Y010529D01*
X009366Y010529D02*
X009366Y010820D01*
X009511Y010820D01*
X009559Y010771D01*
X009955Y010820D02*
X010149Y010820D01*
X010149Y010771D01*
X008658Y010674D02*
X008464Y010674D01*
X008609Y010820D01*
X008609Y010529D01*
X008363Y010578D02*
X008363Y010771D01*
X008315Y010820D01*
X008170Y010820D01*
X008170Y010529D01*
X008315Y010529D01*
X008363Y010578D01*
X008069Y010529D02*
X007875Y010529D01*
X007875Y010820D01*
X008069Y010820D01*
X007972Y010674D02*
X007875Y010674D01*
X007774Y010529D02*
X007580Y010529D01*
X007580Y010820D01*
X006108Y009692D02*
X006108Y009401D01*
X006204Y009401D02*
X006011Y009401D01*
X006011Y009595D02*
X006108Y009692D01*
X005910Y009692D02*
X005716Y009692D01*
X005813Y009692D02*
X005813Y009401D01*
X006709Y008978D02*
X006757Y009027D01*
X006806Y009027D01*
X006854Y008978D01*
X006854Y008882D01*
X006806Y008833D01*
X006757Y008833D01*
X006709Y008882D01*
X006709Y008978D01*
X006854Y008978D02*
X006902Y009027D01*
X006951Y009027D01*
X006999Y008978D01*
X006999Y008882D01*
X006951Y008833D01*
X006902Y008833D01*
X006854Y008882D01*
X006999Y008732D02*
X006999Y008539D01*
X006999Y008635D02*
X006709Y008635D01*
X006806Y008539D01*
X006854Y008437D02*
X006902Y008389D01*
X006902Y008244D01*
X006902Y008341D02*
X006999Y008437D01*
X006854Y008437D02*
X006757Y008437D01*
X006709Y008389D01*
X006709Y008244D01*
X006999Y008244D01*
X008421Y008679D02*
X008421Y008969D01*
X008566Y008969D01*
X008614Y008921D01*
X008614Y008824D01*
X008566Y008776D01*
X008421Y008776D01*
X008518Y008776D02*
X008614Y008679D01*
X008716Y008679D02*
X008909Y008679D01*
X008812Y008679D02*
X008812Y008969D01*
X008716Y008872D01*
X009010Y008872D02*
X009059Y008824D01*
X009204Y008824D01*
X009204Y008727D02*
X009204Y008921D01*
X009155Y008969D01*
X009059Y008969D01*
X009010Y008921D01*
X009010Y008872D01*
X009010Y008727D02*
X009059Y008679D01*
X009155Y008679D01*
X009204Y008727D01*
X009137Y006162D02*
X009185Y006114D01*
X009185Y006017D01*
X009137Y005969D01*
X009137Y005868D02*
X009185Y005819D01*
X009185Y005723D01*
X009137Y005674D01*
X008944Y005674D01*
X008895Y005723D01*
X008895Y005819D01*
X008944Y005868D01*
X008944Y005969D02*
X008895Y006017D01*
X008895Y006114D01*
X008944Y006162D01*
X008992Y006162D01*
X009040Y006114D01*
X009089Y006162D01*
X009137Y006162D01*
X009040Y006114D02*
X009040Y006066D01*
X010398Y005913D02*
X010446Y005816D01*
X010543Y005720D01*
X010543Y005865D01*
X010591Y005913D01*
X010640Y005913D01*
X010688Y005865D01*
X010688Y005768D01*
X010640Y005720D01*
X010543Y005720D01*
X010543Y005618D02*
X010591Y005570D01*
X010591Y005425D01*
X010591Y005522D02*
X010688Y005618D01*
X010543Y005618D02*
X010446Y005618D01*
X010398Y005570D01*
X010398Y005425D01*
X010688Y005425D01*
X007631Y005446D02*
X007438Y005446D01*
X007535Y005446D02*
X007535Y005736D01*
X007438Y005639D01*
X007337Y005688D02*
X007288Y005736D01*
X007143Y005736D01*
X007143Y005446D01*
X007288Y005446D01*
X007337Y005494D01*
X007337Y005688D01*
X007042Y005736D02*
X006849Y005736D01*
X006849Y005446D01*
X007042Y005446D01*
X006945Y005591D02*
X006849Y005591D01*
X006747Y005446D02*
X006554Y005446D01*
X006554Y005736D01*
X006453Y005398D02*
X006259Y005398D01*
X006061Y005446D02*
X006061Y005736D01*
X005965Y005736D02*
X006158Y005736D01*
X005863Y005736D02*
X005670Y005446D01*
X005569Y005446D02*
X005375Y005446D01*
X005375Y005736D01*
X005569Y005736D01*
X005670Y005736D02*
X005863Y005446D01*
X005472Y005591D02*
X005375Y005591D01*
X004883Y005714D02*
X004834Y005666D01*
X004738Y005666D01*
X004689Y005714D01*
X004883Y005908D01*
X004883Y005714D01*
X004689Y005714D02*
X004689Y005908D01*
X004738Y005956D01*
X004834Y005956D01*
X004883Y005908D01*
X004588Y005908D02*
X004540Y005956D01*
X004443Y005956D01*
X004395Y005908D01*
X004294Y005908D02*
X004294Y005811D01*
X004245Y005763D01*
X004100Y005763D01*
X004197Y005763D02*
X004294Y005666D01*
X004395Y005666D02*
X004588Y005859D01*
X004588Y005908D01*
X004588Y005666D02*
X004395Y005666D01*
X004294Y005908D02*
X004245Y005956D01*
X004100Y005956D01*
X004100Y005666D01*
X004100Y004775D02*
X004245Y004775D01*
X004294Y004727D01*
X004294Y004630D01*
X004245Y004582D01*
X004100Y004582D01*
X004197Y004582D02*
X004294Y004485D01*
X004395Y004485D02*
X004588Y004678D01*
X004588Y004727D01*
X004540Y004775D01*
X004443Y004775D01*
X004395Y004727D01*
X004395Y004485D02*
X004588Y004485D01*
X004689Y004485D02*
X004883Y004485D01*
X004786Y004485D02*
X004786Y004775D01*
X004689Y004678D01*
X004100Y004775D02*
X004100Y004485D01*
X004061Y003712D02*
X004206Y003712D01*
X004254Y003664D01*
X004254Y003567D01*
X004206Y003519D01*
X004061Y003519D01*
X004157Y003519D02*
X004254Y003422D01*
X004355Y003422D02*
X004549Y003615D01*
X004549Y003664D01*
X004500Y003712D01*
X004404Y003712D01*
X004355Y003664D01*
X004355Y003422D02*
X004549Y003422D01*
X004650Y003422D02*
X004843Y003615D01*
X004843Y003664D01*
X004795Y003712D01*
X004698Y003712D01*
X004650Y003664D01*
X004650Y003422D02*
X004843Y003422D01*
X005375Y003871D02*
X005375Y004161D01*
X005569Y004161D01*
X005670Y004161D02*
X005863Y003871D01*
X005670Y003871D02*
X005863Y004161D01*
X005965Y004161D02*
X006158Y004161D01*
X006061Y004161D02*
X006061Y003871D01*
X006259Y003823D02*
X006453Y003823D01*
X006554Y003871D02*
X006747Y003871D01*
X006849Y003871D02*
X007042Y003871D01*
X007143Y003871D02*
X007288Y003871D01*
X007337Y003920D01*
X007337Y004113D01*
X007288Y004161D01*
X007143Y004161D01*
X007143Y003871D01*
X006945Y004016D02*
X006849Y004016D01*
X006849Y004161D02*
X006849Y003871D01*
X006849Y004161D02*
X007042Y004161D01*
X007438Y004113D02*
X007486Y004161D01*
X007583Y004161D01*
X007631Y004113D01*
X007631Y004065D01*
X007438Y003871D01*
X007631Y003871D01*
X006554Y003871D02*
X006554Y004161D01*
X005569Y003871D02*
X005375Y003871D01*
X005375Y004016D02*
X005472Y004016D01*
X004061Y003712D02*
X004061Y003422D01*
X002763Y003456D02*
X002473Y003456D01*
X002473Y003602D01*
X002521Y003650D01*
X002618Y003650D01*
X002666Y003602D01*
X002666Y003456D01*
X002666Y003553D02*
X002763Y003650D01*
X002618Y003751D02*
X002618Y003945D01*
X002763Y003896D02*
X002473Y003896D01*
X002618Y003751D01*
X003319Y001526D02*
X003415Y001526D01*
X003367Y001526D02*
X003367Y001236D01*
X003319Y001236D02*
X003415Y001236D01*
X003515Y001236D02*
X003515Y001526D01*
X003660Y001526D01*
X003709Y001478D01*
X003709Y001381D01*
X003660Y001333D01*
X003515Y001333D01*
X003612Y001333D02*
X003709Y001236D01*
X003810Y001236D02*
X004003Y001236D01*
X004104Y001236D02*
X004104Y001526D01*
X004298Y001526D01*
X004399Y001526D02*
X004544Y001526D01*
X004593Y001478D01*
X004593Y001285D01*
X004544Y001236D01*
X004399Y001236D01*
X004399Y001526D01*
X004201Y001381D02*
X004104Y001381D01*
X004104Y001236D02*
X004298Y001236D01*
X004694Y001285D02*
X004742Y001236D01*
X004839Y001236D01*
X004887Y001285D01*
X004887Y001333D01*
X004839Y001381D01*
X004790Y001381D01*
X004839Y001381D02*
X004887Y001430D01*
X004887Y001478D01*
X004839Y001526D01*
X004742Y001526D01*
X004694Y001478D01*
X003810Y001526D02*
X003810Y001236D01*
X005375Y002257D02*
X005375Y002547D01*
X005569Y002547D01*
X005670Y002547D02*
X005863Y002257D01*
X005670Y002257D02*
X005863Y002547D01*
X005965Y002547D02*
X006158Y002547D01*
X006061Y002547D02*
X006061Y002257D01*
X006259Y002209D02*
X006453Y002209D01*
X006554Y002257D02*
X006747Y002257D01*
X006849Y002257D02*
X007042Y002257D01*
X007143Y002257D02*
X007288Y002257D01*
X007337Y002305D01*
X007337Y002499D01*
X007288Y002547D01*
X007143Y002547D01*
X007143Y002257D01*
X006945Y002402D02*
X006849Y002402D01*
X006849Y002547D02*
X006849Y002257D01*
X006849Y002547D02*
X007042Y002547D01*
X007438Y002499D02*
X007486Y002547D01*
X007583Y002547D01*
X007631Y002499D01*
X007631Y002451D01*
X007583Y002402D01*
X007631Y002354D01*
X007631Y002305D01*
X007583Y002257D01*
X007486Y002257D01*
X007438Y002305D01*
X007535Y002402D02*
X007583Y002402D01*
X006554Y002547D02*
X006554Y002257D01*
X005569Y002257D02*
X005375Y002257D01*
X005375Y002402D02*
X005472Y002402D01*
X008813Y001887D02*
X008813Y001839D01*
X008861Y001790D01*
X008958Y001790D01*
X009006Y001742D01*
X009006Y001693D01*
X008958Y001645D01*
X008861Y001645D01*
X008813Y001693D01*
X008813Y001887D02*
X008861Y001935D01*
X008958Y001935D01*
X009006Y001887D01*
X009108Y001935D02*
X009108Y001645D01*
X009204Y001742D01*
X009301Y001645D01*
X009301Y001935D01*
X009402Y001597D02*
X009596Y001597D01*
X009697Y001693D02*
X009745Y001645D01*
X009842Y001645D01*
X009890Y001693D01*
X009890Y001742D01*
X009842Y001790D01*
X009745Y001790D01*
X009697Y001839D01*
X009697Y001887D01*
X009745Y001935D01*
X009842Y001935D01*
X009890Y001887D01*
X009992Y001935D02*
X010185Y001935D01*
X010088Y001935D02*
X010088Y001645D01*
X010286Y001645D02*
X010286Y001839D01*
X010383Y001935D01*
X010480Y001839D01*
X010480Y001645D01*
X010581Y001645D02*
X010581Y001935D01*
X010726Y001935D01*
X010774Y001887D01*
X010774Y001790D01*
X010726Y001742D01*
X010581Y001742D01*
X010678Y001742D02*
X010774Y001645D01*
X010972Y001645D02*
X010972Y001935D01*
X010876Y001935D02*
X011069Y001935D01*
X010480Y001790D02*
X010286Y001790D01*
X014639Y002087D02*
X014639Y002232D01*
X014688Y002281D01*
X014881Y002281D01*
X014929Y002232D01*
X014929Y002087D01*
X014639Y002087D01*
X014639Y002382D02*
X014639Y002479D01*
X014639Y002430D02*
X014929Y002430D01*
X014929Y002382D02*
X014929Y002479D01*
X014929Y002578D02*
X014639Y002578D01*
X014639Y002724D01*
X014688Y002772D01*
X014784Y002772D01*
X014833Y002724D01*
X014833Y002578D01*
X014881Y002873D02*
X014929Y002921D01*
X014929Y003018D01*
X014881Y003067D01*
X014833Y003067D01*
X014784Y003018D01*
X014784Y002921D01*
X014736Y002873D01*
X014688Y002873D01*
X014639Y002921D01*
X014639Y003018D01*
X014688Y003067D01*
X014639Y003168D02*
X014929Y003168D01*
X014833Y003264D01*
X014929Y003361D01*
X014639Y003361D01*
X022880Y008540D02*
X022880Y008830D01*
X023025Y008830D01*
X023073Y008782D01*
X023073Y008685D01*
X023025Y008637D01*
X022880Y008637D01*
X022976Y008637D02*
X023073Y008540D01*
X023174Y008540D02*
X023368Y008540D01*
X023271Y008540D02*
X023271Y008830D01*
X023174Y008734D01*
X023469Y008782D02*
X023517Y008830D01*
X023614Y008830D01*
X023662Y008782D01*
X023662Y008734D01*
X023614Y008685D01*
X023662Y008637D01*
X023662Y008588D01*
X023614Y008540D01*
X023517Y008540D01*
X023469Y008588D01*
X023566Y008685D02*
X023614Y008685D01*
X023598Y010451D02*
X023791Y010644D01*
X023791Y010692D01*
X023743Y010741D01*
X023646Y010741D01*
X023598Y010692D01*
X023496Y010692D02*
X023448Y010741D01*
X023351Y010741D01*
X023303Y010692D01*
X023303Y010499D01*
X023351Y010451D01*
X023448Y010451D01*
X023496Y010499D01*
X023598Y010451D02*
X023791Y010451D01*
X024169Y010499D02*
X024169Y010692D01*
X024217Y010741D01*
X024314Y010741D01*
X024362Y010692D01*
X024464Y010596D02*
X024560Y010692D01*
X024657Y010741D01*
X024609Y010596D02*
X024464Y010596D01*
X024464Y010499D01*
X024512Y010451D01*
X024609Y010451D01*
X024657Y010499D01*
X024657Y010547D01*
X024609Y010596D01*
X024362Y010499D02*
X024314Y010451D01*
X024217Y010451D01*
X024169Y010499D01*
X023094Y012636D02*
X022900Y012636D01*
X022852Y012684D01*
X022852Y012781D01*
X022900Y012829D01*
X023094Y012829D01*
X023142Y012781D01*
X023142Y012684D01*
X023094Y012636D01*
X023045Y012732D02*
X023142Y012829D01*
X023142Y012930D02*
X023142Y013124D01*
X023142Y013027D02*
X022852Y013027D01*
X022949Y012930D01*
X022978Y014267D02*
X023171Y014267D01*
X023220Y014316D01*
X023220Y014413D01*
X023171Y014461D01*
X023171Y014562D02*
X023220Y014611D01*
X023220Y014707D01*
X023171Y014756D01*
X023075Y014756D01*
X023026Y014707D01*
X023026Y014659D01*
X023075Y014562D01*
X022929Y014562D01*
X022929Y014756D01*
X022978Y014461D02*
X022929Y014413D01*
X022929Y014316D01*
X022978Y014267D01*
X021251Y014273D02*
X021251Y014466D01*
X021251Y014567D02*
X021251Y014713D01*
X021203Y014761D01*
X021009Y014761D01*
X020961Y014713D01*
X020961Y014567D01*
X021251Y014567D01*
X021106Y014370D02*
X021106Y014273D01*
X020961Y014273D02*
X021251Y014273D01*
X021251Y014172D02*
X021251Y013978D01*
X020961Y013978D01*
X020961Y014273D02*
X020961Y014466D01*
X021058Y014862D02*
X020961Y014959D01*
X021251Y014959D01*
X021251Y014862D02*
X021251Y015056D01*
X020267Y015056D02*
X020267Y014862D01*
X020073Y015056D01*
X020025Y015056D01*
X019977Y015007D01*
X019977Y014910D01*
X020025Y014862D01*
X020025Y014761D02*
X019977Y014713D01*
X019977Y014567D01*
X020267Y014567D01*
X020267Y014713D01*
X020219Y014761D01*
X020025Y014761D01*
X019977Y014466D02*
X019977Y014273D01*
X020267Y014273D01*
X020267Y014466D01*
X020122Y014370D02*
X020122Y014273D01*
X020267Y014172D02*
X020267Y013978D01*
X019977Y013978D01*
X019977Y013475D02*
X019977Y013282D01*
X020122Y013282D01*
X020073Y013379D01*
X020073Y013427D01*
X020122Y013475D01*
X020219Y013475D01*
X020267Y013427D01*
X020267Y013330D01*
X020219Y013282D01*
X020267Y013181D02*
X020267Y012987D01*
X020267Y013084D02*
X019977Y013084D01*
X020073Y012987D01*
X020025Y012886D02*
X020122Y012886D01*
X020170Y012838D01*
X020170Y012693D01*
X020170Y012789D02*
X020267Y012886D01*
X020267Y012693D02*
X019977Y012693D01*
X019977Y012838D01*
X020025Y012886D01*
X019165Y012886D02*
X019068Y012789D01*
X019068Y012838D02*
X019068Y012693D01*
X019165Y012693D02*
X018874Y012693D01*
X018874Y012838D01*
X018923Y012886D01*
X019019Y012886D01*
X019068Y012838D01*
X019165Y012987D02*
X019165Y013181D01*
X019165Y013084D02*
X018874Y013084D01*
X018971Y012987D01*
X019019Y013282D02*
X019019Y013427D01*
X019068Y013475D01*
X019116Y013475D01*
X019165Y013427D01*
X019165Y013330D01*
X019116Y013282D01*
X019019Y013282D01*
X018923Y013379D01*
X018874Y013475D01*
X018874Y013978D02*
X019165Y013978D01*
X019165Y014172D01*
X019165Y014273D02*
X018874Y014273D01*
X018874Y014466D01*
X018874Y014567D02*
X018874Y014713D01*
X018923Y014761D01*
X019116Y014761D01*
X019165Y014713D01*
X019165Y014567D01*
X018874Y014567D01*
X019019Y014370D02*
X019019Y014273D01*
X019165Y014273D02*
X019165Y014466D01*
X019116Y014862D02*
X019165Y014910D01*
X019165Y015007D01*
X019116Y015056D01*
X019068Y015056D01*
X019019Y015007D01*
X019019Y014959D01*
X019019Y015007D02*
X018971Y015056D01*
X018923Y015056D01*
X018874Y015007D01*
X018874Y014910D01*
X018923Y014862D01*
X020961Y013427D02*
X021106Y013282D01*
X021106Y013475D01*
X021251Y013427D02*
X020961Y013427D01*
X020961Y013084D02*
X021251Y013084D01*
X021251Y012987D02*
X021251Y013181D01*
X021058Y012987D02*
X020961Y013084D01*
X021009Y012886D02*
X021106Y012886D01*
X021154Y012838D01*
X021154Y012693D01*
X021154Y012789D02*
X021251Y012886D01*
X021251Y012693D02*
X020961Y012693D01*
X020961Y012838D01*
X021009Y012886D01*
X020382Y010299D02*
X020382Y010009D01*
X020285Y010009D02*
X020479Y010009D01*
X020285Y010202D02*
X020382Y010299D01*
X020184Y010250D02*
X020136Y010299D01*
X020039Y010299D01*
X019991Y010250D01*
X019991Y010057D01*
X020039Y010009D01*
X020136Y010009D01*
X020184Y010057D01*
X019891Y010009D02*
X019794Y010009D01*
X019842Y010009D02*
X019842Y010299D01*
X019794Y010299D02*
X019891Y010299D01*
X017980Y010706D02*
X017786Y010706D01*
X017883Y010706D02*
X017883Y010997D01*
X017786Y010900D01*
X017685Y010948D02*
X017637Y010997D01*
X017540Y010997D01*
X017492Y010948D01*
X017492Y010755D01*
X017540Y010706D01*
X017637Y010706D01*
X017685Y010755D01*
X016851Y012342D02*
X016657Y012342D01*
X016754Y012342D02*
X016754Y012633D01*
X016657Y012536D01*
X016556Y012584D02*
X016556Y012487D01*
X016508Y012439D01*
X016363Y012439D01*
X016363Y012342D02*
X016363Y012633D01*
X016508Y012633D01*
X016556Y012584D01*
X016262Y012584D02*
X016213Y012633D01*
X016117Y012633D01*
X016068Y012584D01*
X016068Y012536D01*
X016117Y012487D01*
X016213Y012487D01*
X016262Y012439D01*
X016262Y012391D01*
X016213Y012342D01*
X016117Y012342D01*
X016068Y012391D01*
X015969Y012342D02*
X015872Y012342D01*
X015920Y012342D02*
X015920Y012633D01*
X015872Y012633D02*
X015969Y012633D01*
X010732Y014656D02*
X010683Y014608D01*
X010538Y014608D01*
X010538Y014511D02*
X010538Y014801D01*
X010683Y014801D01*
X010732Y014753D01*
X010732Y014656D01*
X010437Y014753D02*
X010389Y014801D01*
X010292Y014801D01*
X010243Y014753D01*
X010243Y014559D01*
X010292Y014511D01*
X010389Y014511D01*
X010437Y014559D01*
X010437Y014753D01*
X010142Y014801D02*
X009949Y014801D01*
X010046Y014801D02*
X010046Y014511D01*
X009848Y014559D02*
X009799Y014511D01*
X009703Y014511D01*
X009654Y014559D01*
X009703Y014656D02*
X009799Y014656D01*
X009848Y014608D01*
X009848Y014559D01*
X009703Y014656D02*
X009654Y014704D01*
X009654Y014753D01*
X009703Y014801D01*
X009799Y014801D01*
X009848Y014753D01*
X009553Y014462D02*
X009359Y014462D01*
X009258Y014511D02*
X009258Y014801D01*
X009065Y014801D02*
X009065Y014511D01*
X009162Y014608D01*
X009258Y014511D01*
X008964Y014559D02*
X008915Y014511D01*
X008819Y014511D01*
X008770Y014559D01*
X008819Y014656D02*
X008915Y014656D01*
X008964Y014608D01*
X008964Y014559D01*
X008819Y014656D02*
X008770Y014704D01*
X008770Y014753D01*
X008819Y014801D01*
X008915Y014801D01*
X008964Y014753D01*
X004690Y014740D02*
X004497Y014740D01*
X004593Y014740D02*
X004593Y015030D01*
X004497Y014933D01*
X004396Y014982D02*
X004347Y015030D01*
X004202Y015030D01*
X004202Y014740D01*
X004347Y014740D01*
X004396Y014788D01*
X004396Y014982D01*
X004101Y015030D02*
X003907Y015030D01*
X003907Y014740D01*
X004101Y014740D01*
X004004Y014885D02*
X003907Y014885D01*
X003806Y014740D02*
X003613Y014740D01*
X003613Y015030D01*
X003512Y014982D02*
X003512Y014885D01*
X003463Y014837D01*
X003318Y014837D01*
X003415Y014837D02*
X003512Y014740D01*
X003318Y014740D02*
X003318Y015030D01*
X003463Y015030D01*
X003512Y014982D01*
X003218Y015030D02*
X003122Y015030D01*
X003170Y015030D02*
X003170Y014740D01*
X003122Y014740D02*
X003218Y014740D01*
X004148Y013312D02*
X004100Y013264D01*
X004100Y013167D01*
X004148Y013119D01*
X004148Y013017D02*
X004245Y013017D01*
X004293Y012969D01*
X004293Y012824D01*
X004293Y012921D02*
X004390Y013017D01*
X004390Y013119D02*
X004197Y013312D01*
X004148Y013312D01*
X004390Y013312D02*
X004390Y013119D01*
X004148Y013017D02*
X004100Y012969D01*
X004100Y012824D01*
X004390Y012824D01*
X003834Y010669D02*
X003834Y010476D01*
X003689Y010621D01*
X003980Y010621D01*
X003931Y010374D02*
X003980Y010326D01*
X003980Y010229D01*
X003931Y010181D01*
X003738Y010181D01*
X003689Y010229D01*
X003689Y010326D01*
X003738Y010374D01*
X003744Y009497D02*
X003696Y009448D01*
X003744Y009497D02*
X003841Y009497D01*
X003889Y009448D01*
X003889Y009400D01*
X003696Y009206D01*
X003889Y009206D01*
X003594Y009255D02*
X003594Y009448D01*
X003546Y009497D01*
X003401Y009497D01*
X003401Y009206D01*
X003546Y009206D01*
X003594Y009255D01*
X003300Y009206D02*
X003106Y009206D01*
X003106Y009497D01*
X003300Y009497D01*
X003203Y009352D02*
X003106Y009352D01*
X003005Y009206D02*
X002812Y009206D01*
X002812Y009497D01*
X002711Y009448D02*
X002711Y009352D01*
X002662Y009303D01*
X002517Y009303D01*
X002517Y009206D02*
X002517Y009497D01*
X002662Y009497D01*
X002711Y009448D01*
X002614Y009303D02*
X002711Y009206D01*
X002417Y009206D02*
X002321Y009206D01*
X002369Y009206D02*
X002369Y009497D01*
X002321Y009497D02*
X002417Y009497D01*
X004147Y008224D02*
X004195Y008273D01*
X004244Y008273D01*
X004292Y008224D01*
X004341Y008273D01*
X004389Y008273D01*
X004437Y008224D01*
X004437Y008128D01*
X004389Y008079D01*
X004437Y007978D02*
X004341Y007881D01*
X004341Y007930D02*
X004341Y007784D01*
X004437Y007784D02*
X004147Y007784D01*
X004147Y007930D01*
X004195Y007978D01*
X004292Y007978D01*
X004341Y007930D01*
X004195Y008079D02*
X004147Y008128D01*
X004147Y008224D01*
X004292Y008224D02*
X004292Y008176D01*
D15*
X003167Y006220D02*
X003167Y005693D01*
X002904Y005956D02*
X003431Y005956D01*
X003509Y011704D02*
X002982Y011704D01*
D16*
X004235Y012361D02*
X004550Y012676D01*
X004235Y012361D02*
X004235Y010156D01*
X006754Y010156D02*
X006754Y012361D01*
X006439Y012676D01*
X015115Y005134D02*
X015115Y002595D01*
X015607Y002595D01*
X015124Y003077D01*
X015569Y003077D02*
X015569Y004652D01*
X016160Y004652D01*
X016160Y003077D01*
X015569Y003077D01*
X015607Y002595D02*
X015333Y002595D01*
X016333Y002595D02*
X016386Y002595D01*
X016569Y003077D02*
X016569Y004652D01*
X017160Y004652D01*
X017160Y003077D01*
X016569Y003077D01*
X017333Y002595D02*
X017386Y002595D01*
X017569Y003077D02*
X017569Y004652D01*
X018160Y004652D01*
X018160Y003077D01*
X017569Y003077D01*
X018333Y002595D02*
X018386Y002595D01*
X018569Y003077D02*
X018569Y004652D01*
X019160Y004652D01*
X019160Y003077D01*
X018569Y003077D01*
X019333Y002595D02*
X019386Y002595D01*
X019569Y003077D02*
X019569Y004652D01*
X020160Y004652D01*
X020160Y003077D01*
X019569Y003077D01*
X020386Y002595D02*
X020605Y002595D01*
X020605Y005134D01*
X020386Y005134D01*
X019386Y005134D02*
X019333Y005134D01*
X018386Y005134D02*
X018333Y005134D01*
X017386Y005134D02*
X017333Y005134D01*
X016386Y005134D02*
X016333Y005134D01*
X015333Y005134D02*
X015115Y005134D01*
D17*
X015678Y004954D02*
X015678Y004807D01*
X015714Y004770D01*
X015788Y004770D01*
X015825Y004807D01*
X015825Y004954D01*
X015788Y004991D01*
X015714Y004991D01*
X015678Y004954D01*
X015899Y004991D02*
X016046Y004770D01*
X016046Y004991D01*
X015899Y004991D02*
X015899Y004770D01*
X015869Y002973D02*
X015869Y002753D01*
X015796Y002753D02*
X015943Y002753D01*
X015796Y002899D02*
X015869Y002973D01*
X016796Y002936D02*
X016833Y002973D01*
X016906Y002973D01*
X016943Y002936D01*
X016943Y002899D01*
X016796Y002753D01*
X016943Y002753D01*
X017796Y002789D02*
X017833Y002753D01*
X017906Y002753D01*
X017943Y002789D01*
X017943Y002826D01*
X017906Y002863D01*
X017869Y002863D01*
X017906Y002863D02*
X017943Y002899D01*
X017943Y002936D01*
X017906Y002973D01*
X017833Y002973D01*
X017796Y002936D01*
X018796Y002863D02*
X018943Y002863D01*
X018906Y002753D02*
X018906Y002973D01*
X018796Y002863D01*
X019796Y002863D02*
X019869Y002899D01*
X019906Y002899D01*
X019943Y002863D01*
X019943Y002789D01*
X019906Y002753D01*
X019833Y002753D01*
X019796Y002789D01*
X019796Y002863D02*
X019796Y002973D01*
X019943Y002973D01*
X022250Y002182D02*
X022250Y002082D01*
X022250Y002182D02*
X023250Y002182D01*
X023250Y002082D01*
X023250Y004382D02*
X022300Y004382D01*
X022300Y004482D01*
X023250Y004482D02*
X023250Y004382D01*
X010455Y004500D02*
X010455Y004600D01*
X010455Y004500D02*
X009505Y004500D01*
X009505Y004600D01*
X009455Y002300D02*
X009455Y002200D01*
X009455Y002300D02*
X010455Y002300D01*
X010455Y002200D01*
X010405Y011728D02*
X010405Y011828D01*
X009455Y011828D01*
X009455Y011728D01*
X009455Y014028D02*
X010455Y014028D01*
X010455Y014128D01*
X009455Y014128D02*
X009455Y014028D01*
D18*
X015865Y003373D03*
X016865Y003373D03*
X017865Y003373D03*
X018865Y003373D03*
X019865Y003373D03*
D19*
X024816Y006707D02*
X025260Y006707D01*
X025260Y006904D01*
X025741Y006904D01*
X024816Y006707D02*
X024816Y009069D01*
X025260Y009069D01*
X025260Y008873D01*
X025741Y008873D01*
X025741Y008872D02*
X025803Y008870D01*
X025864Y008864D01*
X025925Y008855D01*
X025986Y008841D01*
X026045Y008824D01*
X026103Y008803D01*
X026160Y008778D01*
X026215Y008750D01*
X026268Y008719D01*
X026319Y008684D01*
X026368Y008646D01*
X026415Y008605D01*
X026458Y008562D01*
X026499Y008515D01*
X026537Y008466D01*
X026572Y008415D01*
X026603Y008362D01*
X026631Y008307D01*
X026656Y008250D01*
X026677Y008192D01*
X026694Y008133D01*
X026708Y008072D01*
X026717Y008011D01*
X026723Y007950D01*
X026725Y007888D01*
X026723Y007826D01*
X026717Y007765D01*
X026708Y007704D01*
X026694Y007643D01*
X026677Y007584D01*
X026656Y007526D01*
X026631Y007469D01*
X026603Y007414D01*
X026572Y007361D01*
X026537Y007310D01*
X026499Y007261D01*
X026458Y007214D01*
X026415Y007171D01*
X026368Y007130D01*
X026319Y007092D01*
X026268Y007057D01*
X026215Y007026D01*
X026160Y006998D01*
X026103Y006973D01*
X026045Y006952D01*
X025986Y006935D01*
X025925Y006921D01*
X025864Y006912D01*
X025803Y006906D01*
X025741Y006904D01*
X006874Y013150D02*
X006874Y013600D01*
X006573Y013600D02*
X006874Y013150D01*
X006573Y013150D02*
X006573Y013600D01*
X006417Y013600D02*
X006266Y013600D01*
X006342Y013600D02*
X006342Y013150D01*
X006417Y013150D02*
X006266Y013150D01*
X006106Y013300D02*
X006106Y013600D01*
X006106Y013300D02*
X005956Y013150D01*
X005806Y013300D01*
X005806Y013600D01*
X002969Y014845D02*
X002584Y015067D01*
X002486Y014897D01*
X002069Y015137D01*
X002969Y014845D02*
X001787Y012800D01*
X001403Y013022D01*
X001502Y013192D01*
X001085Y013433D01*
X001032Y013465D01*
X000982Y013501D01*
X000934Y013540D01*
X000889Y013582D01*
X000846Y013627D01*
X000806Y013674D01*
X000769Y013723D01*
X000735Y013775D01*
X000705Y013829D01*
X000678Y013885D01*
X000655Y013942D01*
X000635Y014001D01*
X000619Y014060D01*
X000607Y014121D01*
X000598Y014182D01*
X000594Y014244D01*
X000593Y014306D01*
X000596Y014367D01*
X000604Y014429D01*
X000615Y014490D01*
X000629Y014550D01*
X000648Y014609D01*
X000670Y014666D01*
X000696Y014723D01*
X000725Y014777D01*
X000757Y014830D01*
X000793Y014880D01*
X000832Y014928D01*
X000874Y014973D01*
X000919Y015016D01*
X000966Y015056D01*
X001015Y015093D01*
X001067Y015127D01*
X001121Y015157D01*
X001177Y015184D01*
X001234Y015207D01*
X001293Y015227D01*
X001352Y015243D01*
X001413Y015255D01*
X001474Y015264D01*
X001536Y015268D01*
X001598Y015269D01*
X001659Y015266D01*
X001721Y015258D01*
X001782Y015247D01*
X001842Y015233D01*
X001901Y015214D01*
X001958Y015192D01*
X002015Y015166D01*
X002069Y015137D01*
X002063Y009148D02*
X001619Y009148D01*
X001619Y008951D01*
X001138Y008951D01*
X002063Y009148D02*
X002063Y006786D01*
X001619Y006786D01*
X001619Y006983D01*
X001138Y006983D01*
X001076Y006985D01*
X001015Y006991D01*
X000954Y007000D01*
X000893Y007014D01*
X000834Y007031D01*
X000776Y007052D01*
X000719Y007077D01*
X000664Y007105D01*
X000611Y007136D01*
X000560Y007171D01*
X000511Y007209D01*
X000464Y007250D01*
X000421Y007293D01*
X000380Y007340D01*
X000342Y007389D01*
X000307Y007440D01*
X000276Y007493D01*
X000248Y007548D01*
X000223Y007605D01*
X000202Y007663D01*
X000185Y007722D01*
X000171Y007783D01*
X000162Y007844D01*
X000156Y007905D01*
X000154Y007967D01*
X000156Y008029D01*
X000162Y008090D01*
X000171Y008151D01*
X000185Y008212D01*
X000202Y008271D01*
X000223Y008329D01*
X000248Y008386D01*
X000276Y008441D01*
X000307Y008494D01*
X000342Y008545D01*
X000380Y008594D01*
X000421Y008641D01*
X000464Y008684D01*
X000511Y008725D01*
X000560Y008763D01*
X000611Y008798D01*
X000664Y008829D01*
X000719Y008857D01*
X000776Y008882D01*
X000834Y008903D01*
X000893Y008920D01*
X000954Y008934D01*
X001015Y008943D01*
X001076Y008949D01*
X001138Y008951D01*
X001787Y003134D02*
X001403Y002913D01*
X001502Y002742D01*
X001085Y002502D01*
X001787Y003134D02*
X002969Y001089D01*
X002584Y000867D01*
X002486Y001037D01*
X002069Y000797D01*
X002015Y000768D01*
X001958Y000742D01*
X001901Y000720D01*
X001842Y000701D01*
X001782Y000687D01*
X001721Y000676D01*
X001659Y000668D01*
X001598Y000665D01*
X001536Y000666D01*
X001474Y000670D01*
X001413Y000679D01*
X001352Y000691D01*
X001293Y000707D01*
X001234Y000727D01*
X001177Y000750D01*
X001121Y000777D01*
X001067Y000807D01*
X001015Y000841D01*
X000966Y000878D01*
X000919Y000918D01*
X000874Y000961D01*
X000832Y001006D01*
X000793Y001054D01*
X000757Y001104D01*
X000725Y001157D01*
X000696Y001211D01*
X000670Y001268D01*
X000648Y001325D01*
X000629Y001384D01*
X000615Y001444D01*
X000604Y001505D01*
X000596Y001567D01*
X000593Y001628D01*
X000594Y001690D01*
X000598Y001752D01*
X000607Y001813D01*
X000619Y001874D01*
X000635Y001933D01*
X000655Y001992D01*
X000678Y002049D01*
X000705Y002105D01*
X000735Y002159D01*
X000769Y002211D01*
X000806Y002260D01*
X000846Y002307D01*
X000889Y002352D01*
X000934Y002394D01*
X000982Y002433D01*
X001032Y002469D01*
X001085Y002501D01*
D20*
X007947Y010014D03*
X019640Y014502D03*
X020624Y014502D03*
X021609Y014502D03*
M02*
