G75*
G70*
%OFA0B0*%
%FSLAX24Y24*%
%IPPOS*%
%LPD*%
%AMOC8*
5,1,8,0,0,1.08239X$1,22.5*
%
%ADD10C,0.0000*%
%ADD11C,0.0160*%
%ADD12C,0.0020*%
%ADD13C,0.0118*%
D10*
X013301Y004936D02*
X013303Y004984D01*
X013309Y005032D01*
X013319Y005079D01*
X013332Y005125D01*
X013350Y005170D01*
X013370Y005214D01*
X013395Y005256D01*
X013423Y005295D01*
X013453Y005332D01*
X013487Y005366D01*
X013524Y005398D01*
X013562Y005427D01*
X013603Y005452D01*
X013646Y005474D01*
X013691Y005492D01*
X013737Y005506D01*
X013784Y005517D01*
X013832Y005524D01*
X013880Y005527D01*
X013928Y005526D01*
X013976Y005521D01*
X014024Y005512D01*
X014070Y005500D01*
X014115Y005483D01*
X014159Y005463D01*
X014201Y005440D01*
X014241Y005413D01*
X014279Y005383D01*
X014314Y005350D01*
X014346Y005314D01*
X014376Y005276D01*
X014402Y005235D01*
X014424Y005192D01*
X014444Y005148D01*
X014459Y005103D01*
X014471Y005056D01*
X014479Y005008D01*
X014483Y004960D01*
X014483Y004912D01*
X014479Y004864D01*
X014471Y004816D01*
X014459Y004769D01*
X014444Y004724D01*
X014424Y004680D01*
X014402Y004637D01*
X014376Y004596D01*
X014346Y004558D01*
X014314Y004522D01*
X014279Y004489D01*
X014241Y004459D01*
X014201Y004432D01*
X014159Y004409D01*
X014115Y004389D01*
X014070Y004372D01*
X014024Y004360D01*
X013976Y004351D01*
X013928Y004346D01*
X013880Y004345D01*
X013832Y004348D01*
X013784Y004355D01*
X013737Y004366D01*
X013691Y004380D01*
X013646Y004398D01*
X013603Y004420D01*
X013562Y004445D01*
X013524Y004474D01*
X013487Y004506D01*
X013453Y004540D01*
X013423Y004577D01*
X013395Y004616D01*
X013370Y004658D01*
X013350Y004702D01*
X013332Y004747D01*
X013319Y004793D01*
X013309Y004840D01*
X013303Y004888D01*
X013301Y004936D01*
X013301Y010841D02*
X013303Y010889D01*
X013309Y010937D01*
X013319Y010984D01*
X013332Y011030D01*
X013350Y011075D01*
X013370Y011119D01*
X013395Y011161D01*
X013423Y011200D01*
X013453Y011237D01*
X013487Y011271D01*
X013524Y011303D01*
X013562Y011332D01*
X013603Y011357D01*
X013646Y011379D01*
X013691Y011397D01*
X013737Y011411D01*
X013784Y011422D01*
X013832Y011429D01*
X013880Y011432D01*
X013928Y011431D01*
X013976Y011426D01*
X014024Y011417D01*
X014070Y011405D01*
X014115Y011388D01*
X014159Y011368D01*
X014201Y011345D01*
X014241Y011318D01*
X014279Y011288D01*
X014314Y011255D01*
X014346Y011219D01*
X014376Y011181D01*
X014402Y011140D01*
X014424Y011097D01*
X014444Y011053D01*
X014459Y011008D01*
X014471Y010961D01*
X014479Y010913D01*
X014483Y010865D01*
X014483Y010817D01*
X014479Y010769D01*
X014471Y010721D01*
X014459Y010674D01*
X014444Y010629D01*
X014424Y010585D01*
X014402Y010542D01*
X014376Y010501D01*
X014346Y010463D01*
X014314Y010427D01*
X014279Y010394D01*
X014241Y010364D01*
X014201Y010337D01*
X014159Y010314D01*
X014115Y010294D01*
X014070Y010277D01*
X014024Y010265D01*
X013976Y010256D01*
X013928Y010251D01*
X013880Y010250D01*
X013832Y010253D01*
X013784Y010260D01*
X013737Y010271D01*
X013691Y010285D01*
X013646Y010303D01*
X013603Y010325D01*
X013562Y010350D01*
X013524Y010379D01*
X013487Y010411D01*
X013453Y010445D01*
X013423Y010482D01*
X013395Y010521D01*
X013370Y010563D01*
X013350Y010607D01*
X013332Y010652D01*
X013319Y010698D01*
X013309Y010745D01*
X013303Y010793D01*
X013301Y010841D01*
X001569Y015644D02*
X001569Y020369D01*
X001569Y032180D01*
X040939Y032180D01*
X040939Y000684D01*
X025585Y000684D01*
D11*
X001569Y000684D02*
X001569Y015644D01*
X025585Y015644D01*
X025585Y000684D01*
X001569Y000684D01*
D12*
X002239Y001392D02*
X002239Y007888D01*
X025546Y007888D01*
X025546Y014384D01*
X002239Y014384D01*
X002239Y007888D01*
X002790Y008794D02*
X002790Y013282D01*
X003341Y009384D01*
X003302Y012928D01*
X003813Y010054D01*
X003853Y012062D01*
X004168Y010762D01*
X004207Y011510D01*
X004640Y012495D02*
X004640Y013321D01*
X022435Y013321D01*
X022435Y012062D01*
X023065Y012062D01*
X023065Y010565D01*
X022475Y010565D01*
X022475Y009148D01*
X004561Y009148D01*
X004561Y009778D01*
X004719Y009778D01*
X004719Y012495D01*
X004640Y012495D01*
X002278Y013321D02*
X002790Y008794D01*
X004640Y007022D02*
X022554Y007022D01*
X022554Y006392D01*
X022396Y006392D01*
X022396Y003676D01*
X022475Y003676D01*
X022475Y002849D01*
X004680Y002849D01*
X004680Y004109D01*
X004050Y004109D01*
X004050Y005605D01*
X004640Y005605D01*
X004640Y007022D01*
X002908Y005723D02*
X002278Y006392D01*
X002908Y005723D02*
X002908Y004109D01*
X002317Y003164D01*
X002239Y001392D02*
X025546Y001392D01*
X025546Y007888D01*
X025073Y006904D02*
X025073Y002416D01*
X024522Y006314D01*
X024561Y002770D01*
X024050Y005644D01*
X024010Y003636D01*
X023695Y004936D01*
X023656Y004188D01*
X025585Y002377D02*
X025073Y006904D01*
X025428Y009739D02*
X024798Y010408D01*
X024798Y012022D01*
X025388Y012967D01*
D13*
X005152Y010565D02*
X003971Y010565D01*
X004561Y005526D02*
X004561Y004345D01*
X003971Y004896D02*
X005152Y004896D01*
M02*
