G75*
G70*
%OFA0B0*%
%FSLAX24Y24*%
%IPPOS*%
%LPD*%
%AMOC8*
5,1,8,0,0,1.08239X$1,22.5*
%
%ADD10R,0.0445X0.0961*%
%ADD11R,0.0591X0.0512*%
%ADD12C,0.0140*%
%ADD13OC8,0.0700*%
%ADD14R,0.0500X0.0220*%
%ADD15R,0.0220X0.0500*%
%ADD16R,0.0512X0.0591*%
%ADD17C,0.1000*%
%ADD18R,0.0630X0.1378*%
%ADD19C,0.0600*%
%ADD20R,0.0551X0.0394*%
%ADD21R,0.0600X0.0600*%
%ADD22OC8,0.0600*%
%ADD23C,0.0520*%
%ADD24C,0.0320*%
%ADD25C,0.0160*%
%ADD26C,0.0560*%
%ADD27C,0.0138*%
%ADD28C,0.0120*%
D10*
X015865Y002172D03*
X016865Y002172D03*
X017865Y002172D03*
X018865Y002172D03*
X019865Y002172D03*
X019865Y005558D03*
X018865Y005558D03*
X017865Y005558D03*
X016865Y005558D03*
X015865Y005558D03*
D11*
X015845Y006329D03*
X015845Y007195D03*
X016861Y007195D03*
X017876Y007195D03*
X018853Y007195D03*
X018853Y006329D03*
X017876Y006329D03*
X016861Y006329D03*
X020388Y006707D03*
X020388Y005841D03*
X021294Y005841D03*
X021294Y006707D03*
X022199Y006707D03*
X022199Y005841D03*
X023184Y005841D03*
X023184Y006707D03*
X023617Y009266D03*
X024483Y009266D03*
X024483Y010132D03*
X023617Y010132D03*
X021609Y012613D03*
X021609Y013479D03*
X021609Y014050D03*
X022554Y013991D03*
X022554Y014857D03*
X021609Y014877D03*
X020624Y014877D03*
X020624Y014050D03*
X020624Y013479D03*
X020624Y012613D03*
X019640Y012613D03*
X019640Y013479D03*
X019640Y014050D03*
X019640Y014877D03*
X017849Y010353D03*
X017849Y009487D03*
X011243Y006093D03*
X011243Y005227D03*
X008380Y005565D03*
X008380Y006432D03*
X007435Y008164D03*
X007435Y009030D03*
X003554Y008463D03*
X003554Y007597D03*
X003239Y003849D03*
X003239Y002983D03*
X003585Y012715D03*
X003585Y013581D03*
D12*
X003051Y014223D02*
X003121Y014293D01*
X003181Y014069D01*
X003066Y013870D01*
X002842Y013810D01*
X002643Y013925D01*
X002583Y014149D01*
X002698Y014348D01*
X002922Y014408D01*
X003121Y014293D01*
X003031Y014224D01*
X003069Y014084D01*
X002997Y013960D01*
X002857Y013922D01*
X002733Y013994D01*
X002695Y014134D01*
X002767Y014258D01*
X002907Y014296D01*
X003031Y014224D01*
X002941Y014155D01*
X002956Y014099D01*
X002928Y014050D01*
X002872Y014035D01*
X002823Y014063D01*
X002808Y014119D01*
X002836Y014168D01*
X002892Y014183D01*
X002941Y014155D01*
X002551Y013357D02*
X002621Y013427D01*
X002681Y013203D01*
X002566Y013004D01*
X002342Y012944D01*
X002143Y013059D01*
X002083Y013283D01*
X002198Y013482D01*
X002422Y013542D01*
X002621Y013427D01*
X002531Y013358D01*
X002569Y013218D01*
X002497Y013094D01*
X002357Y013056D01*
X002233Y013128D01*
X002195Y013268D01*
X002267Y013392D01*
X002407Y013430D01*
X002531Y013358D01*
X002441Y013289D01*
X002456Y013233D01*
X002428Y013184D01*
X002372Y013169D01*
X002323Y013197D01*
X002308Y013253D01*
X002336Y013302D01*
X002392Y013317D01*
X002441Y013289D01*
X002412Y002920D02*
X002342Y002990D01*
X002566Y002930D01*
X002681Y002731D01*
X002621Y002507D01*
X002422Y002392D01*
X002198Y002452D01*
X002083Y002651D01*
X002143Y002875D01*
X002342Y002990D01*
X002357Y002878D01*
X002497Y002840D01*
X002569Y002716D01*
X002531Y002576D01*
X002407Y002504D01*
X002267Y002542D01*
X002195Y002666D01*
X002233Y002806D01*
X002357Y002878D01*
X002372Y002765D01*
X002428Y002750D01*
X002456Y002701D01*
X002441Y002645D01*
X002392Y002617D01*
X002336Y002632D01*
X002308Y002681D01*
X002323Y002737D01*
X002372Y002765D01*
X002912Y002054D02*
X002842Y002124D01*
X003066Y002064D01*
X003181Y001865D01*
X003121Y001641D01*
X002922Y001526D01*
X002698Y001586D01*
X002583Y001785D01*
X002643Y002009D01*
X002842Y002124D01*
X002857Y002012D01*
X002997Y001974D01*
X003069Y001850D01*
X003031Y001710D01*
X002907Y001638D01*
X002767Y001676D01*
X002695Y001800D01*
X002733Y001940D01*
X002857Y002012D01*
X002872Y001899D01*
X002928Y001884D01*
X002956Y001835D01*
X002941Y001779D01*
X002892Y001751D01*
X002836Y001766D01*
X002808Y001815D01*
X002823Y001871D01*
X002872Y001899D01*
D13*
X002357Y007467D03*
X002357Y008467D03*
X024522Y008388D03*
X024522Y007388D03*
D14*
X022464Y008652D03*
X022464Y008967D03*
X022464Y009282D03*
X022464Y009597D03*
X022464Y009912D03*
X022464Y010227D03*
X022464Y010542D03*
X022464Y010857D03*
X019084Y010857D03*
X019084Y010542D03*
X019084Y010227D03*
X019084Y009912D03*
X019084Y009597D03*
X019084Y009282D03*
X019084Y008967D03*
X019084Y008652D03*
D15*
X019672Y008064D03*
X019987Y008064D03*
X020302Y008064D03*
X020617Y008064D03*
X020932Y008064D03*
X021247Y008064D03*
X021561Y008064D03*
X021876Y008064D03*
X021876Y011444D03*
X021561Y011444D03*
X021247Y011444D03*
X020932Y011444D03*
X020617Y011444D03*
X020302Y011444D03*
X019987Y011444D03*
X019672Y011444D03*
D16*
X022869Y008125D03*
X023735Y008125D03*
X010034Y010014D03*
X009168Y010014D03*
X008400Y010014D03*
X007573Y010014D03*
X008223Y008164D03*
X009089Y008164D03*
X005191Y005172D03*
X004325Y005172D03*
X004325Y004109D03*
X005191Y004109D03*
X005191Y003046D03*
X004325Y003046D03*
D17*
X003223Y004975D03*
X003223Y010802D03*
D18*
X005495Y010314D03*
X005495Y012518D03*
D19*
X005479Y014045D02*
X005479Y014645D01*
X006479Y014645D02*
X006479Y014045D01*
X008375Y013818D02*
X008975Y013818D01*
X008975Y012038D02*
X008375Y012038D01*
X010935Y012038D02*
X011535Y012038D01*
X011535Y013818D02*
X010935Y013818D01*
X007069Y006692D02*
X007069Y006092D01*
X007069Y005117D02*
X007069Y004517D01*
X007069Y003543D02*
X007069Y002943D01*
X006069Y002943D02*
X006069Y003543D01*
X006069Y004517D02*
X006069Y005117D01*
X006069Y006092D02*
X006069Y006692D01*
X008375Y004290D02*
X008975Y004290D01*
X010935Y004290D02*
X011535Y004290D01*
X011535Y002510D02*
X010935Y002510D01*
X008975Y002510D02*
X008375Y002510D01*
X021170Y002392D02*
X021770Y002392D01*
X023730Y002392D02*
X024330Y002392D01*
X024330Y004172D02*
X023730Y004172D01*
X021770Y004172D02*
X021170Y004172D01*
D20*
X006373Y008223D03*
X006373Y008971D03*
X005506Y008597D03*
D21*
X016239Y013333D03*
D22*
X017239Y013333D03*
X018239Y013333D03*
X018239Y014333D03*
X017239Y014333D03*
X016239Y014333D03*
D23*
X024207Y013917D03*
X024207Y012017D03*
D24*
X008380Y006432D02*
X007109Y006432D01*
X007069Y006392D01*
X006069Y006392D02*
X005991Y006392D01*
X005191Y005593D01*
X005191Y005172D01*
X004325Y005172D02*
X004325Y006928D01*
X003656Y007597D01*
X004113Y007597D01*
X005073Y008558D01*
X005073Y008597D01*
X005506Y008597D01*
X005073Y008597D02*
X004247Y009424D01*
X002908Y009424D01*
X002357Y009975D01*
X002357Y011510D01*
X003561Y012715D01*
X003585Y012715D01*
X003585Y013581D02*
X003058Y014109D01*
X002882Y014109D01*
X002121Y014542D02*
X002121Y013504D01*
X002382Y013243D01*
X002121Y014542D02*
X002554Y014975D01*
X004140Y014975D01*
X004770Y014345D01*
X005479Y014345D01*
X005479Y012534D01*
X005495Y012518D01*
X003396Y010628D02*
X003223Y010802D01*
X003550Y008467D02*
X002357Y008467D01*
X002357Y007467D02*
X002357Y005841D01*
X003223Y004975D01*
X003813Y004109D02*
X003554Y003849D01*
X003239Y003849D01*
X003199Y003810D01*
X003813Y004109D02*
X004325Y004109D01*
X004325Y003046D01*
X005191Y003046D02*
X005873Y003046D01*
X006069Y003243D01*
X005361Y004109D02*
X005191Y004109D01*
X005361Y004109D02*
X006069Y004817D01*
X006069Y004829D01*
X004325Y005172D02*
X004325Y004109D01*
X003239Y002983D02*
X002674Y002983D01*
X002382Y002691D01*
X003554Y007597D02*
X003656Y007597D01*
X003554Y008463D02*
X003550Y008467D01*
D25*
X002029Y002175D02*
X002029Y001144D01*
X025125Y001144D01*
X025125Y015184D01*
X023015Y015184D01*
X023017Y015182D01*
X023029Y015136D01*
X023029Y014905D01*
X022602Y014905D01*
X022602Y014809D01*
X023029Y014809D01*
X023029Y014577D01*
X023017Y014531D01*
X022993Y014490D01*
X022962Y014459D01*
X022985Y014450D01*
X023052Y014383D01*
X023089Y014294D01*
X023089Y014237D01*
X023820Y014237D01*
X023924Y014341D01*
X024108Y014417D01*
X024307Y014417D01*
X024490Y014341D01*
X024631Y014200D01*
X024707Y014017D01*
X024707Y013818D01*
X024631Y013634D01*
X024490Y013493D01*
X024307Y013417D01*
X024160Y013417D01*
X023703Y012960D01*
X023703Y012960D01*
X023658Y012915D01*
X023658Y012915D01*
X023642Y012896D01*
X023624Y012852D01*
X023622Y012828D01*
X023622Y011653D01*
X023760Y011791D01*
X023707Y011918D01*
X023707Y012117D01*
X023783Y012300D01*
X023924Y012441D01*
X024108Y012517D01*
X024307Y012517D01*
X024490Y012441D01*
X024631Y012300D01*
X024707Y012117D01*
X024707Y011918D01*
X024631Y011734D01*
X024490Y011593D01*
X024450Y011577D01*
X024386Y011512D01*
X023956Y011082D01*
X023989Y011082D01*
X023989Y011082D01*
X024049Y011082D01*
X024049Y011082D01*
X024277Y010988D01*
X024277Y010988D01*
X024319Y010946D01*
X024319Y010946D01*
X024365Y010900D01*
X024409Y010856D01*
X024409Y010856D01*
X024511Y010753D01*
X024511Y010753D01*
X024556Y010708D01*
X024601Y010663D01*
X024601Y010663D01*
X024636Y010628D01*
X024826Y010628D01*
X024914Y010592D01*
X024981Y010524D01*
X025018Y010436D01*
X025018Y009829D01*
X024981Y009741D01*
X024914Y009673D01*
X024891Y009664D01*
X024922Y009633D01*
X024946Y009592D01*
X024958Y009546D01*
X024958Y009314D01*
X024531Y009314D01*
X024531Y009218D01*
X024958Y009218D01*
X024958Y008987D01*
X024946Y008941D01*
X024922Y008900D01*
X024889Y008866D01*
X024882Y008863D01*
X025112Y008633D01*
X025112Y008144D01*
X024814Y007846D01*
X025052Y007608D01*
X025052Y007388D01*
X024522Y007388D01*
X024522Y007388D01*
X024522Y006858D01*
X024303Y006858D01*
X023992Y007169D01*
X023992Y007388D01*
X024522Y007388D01*
X024522Y006858D01*
X024742Y006858D01*
X025052Y007169D01*
X025052Y007388D01*
X024522Y007388D01*
X024522Y007388D01*
X024522Y007388D01*
X023992Y007388D01*
X023992Y007589D01*
X023431Y007589D01*
X023343Y007626D01*
X023302Y007667D01*
X023260Y007626D01*
X023172Y007589D01*
X022754Y007589D01*
X023140Y007203D01*
X023527Y007203D01*
X023615Y007167D01*
X023682Y007099D01*
X023719Y007011D01*
X023719Y006404D01*
X023682Y006315D01*
X023641Y006274D01*
X023682Y006233D01*
X023719Y006145D01*
X023719Y005537D01*
X023682Y005449D01*
X023646Y005413D01*
X023704Y005275D01*
X023704Y005068D01*
X023624Y004877D01*
X023478Y004731D01*
X023287Y004652D01*
X023080Y004652D01*
X022889Y004731D01*
X022743Y004877D01*
X022664Y005068D01*
X022664Y005275D01*
X022721Y005413D01*
X022691Y005443D01*
X022630Y005382D01*
X022542Y005345D01*
X022519Y005345D01*
X022519Y004837D01*
X022471Y004720D01*
X022228Y004477D01*
X022310Y004279D01*
X022310Y004065D01*
X022228Y003866D01*
X022076Y003714D01*
X021878Y003632D01*
X021063Y003632D01*
X020865Y003714D01*
X020713Y003866D01*
X020630Y004065D01*
X020630Y004279D01*
X020713Y004478D01*
X020865Y004630D01*
X021015Y004692D01*
X020920Y004731D01*
X020800Y004852D01*
X020796Y004852D01*
X020590Y004646D01*
X020590Y004163D01*
X020541Y004046D01*
X019388Y002893D01*
X019271Y002844D01*
X011880Y002844D01*
X011901Y002823D01*
X011946Y002762D01*
X011980Y002694D01*
X012003Y002623D01*
X012015Y002548D01*
X012015Y002530D01*
X011255Y002530D01*
X011255Y002490D01*
X011255Y002030D01*
X011573Y002030D01*
X011648Y002042D01*
X011719Y002065D01*
X011787Y002100D01*
X011848Y002144D01*
X011901Y002197D01*
X011946Y002259D01*
X011980Y002326D01*
X012003Y002398D01*
X012015Y002472D01*
X012015Y002490D01*
X011255Y002490D01*
X011215Y002490D01*
X010455Y002490D01*
X010455Y002472D01*
X010467Y002398D01*
X010490Y002326D01*
X010525Y002259D01*
X010569Y002197D01*
X010622Y002144D01*
X010684Y002100D01*
X010751Y002065D01*
X010823Y002042D01*
X010897Y002030D01*
X011215Y002030D01*
X011215Y002490D01*
X011215Y002530D01*
X010455Y002530D01*
X010455Y002548D01*
X010467Y002623D01*
X010490Y002694D01*
X010525Y002762D01*
X010569Y002823D01*
X010590Y002844D01*
X010521Y002844D01*
X010404Y002893D01*
X010314Y002983D01*
X009605Y003691D01*
X009556Y003809D01*
X009556Y006731D01*
X009605Y006849D01*
X009695Y006939D01*
X011585Y008829D01*
X011703Y008878D01*
X015216Y008878D01*
X016963Y010624D01*
X017081Y010673D01*
X017320Y010673D01*
X017328Y010692D01*
X015156Y012865D01*
X015108Y012982D01*
X015108Y013739D01*
X015156Y013857D01*
X015246Y013947D01*
X015699Y014399D01*
X015699Y014557D01*
X015836Y014694D01*
X015757Y014694D01*
X010896Y009833D01*
X010896Y009833D01*
X010806Y009743D01*
X010688Y009694D01*
X010530Y009694D01*
X010530Y009671D01*
X010493Y009583D01*
X010426Y009516D01*
X010338Y009479D01*
X009730Y009479D01*
X009642Y009516D01*
X009601Y009557D01*
X009560Y009516D01*
X009471Y009479D01*
X008864Y009479D01*
X008784Y009512D01*
X008704Y009479D01*
X008096Y009479D01*
X008008Y009516D01*
X007944Y009580D01*
X007940Y009575D01*
X007899Y009551D01*
X007853Y009539D01*
X007621Y009539D01*
X007621Y009966D01*
X007525Y009966D01*
X007525Y009539D01*
X007294Y009539D01*
X007248Y009551D01*
X007207Y009575D01*
X007173Y009609D01*
X007150Y009650D01*
X007137Y009695D01*
X007137Y009966D01*
X007525Y009966D01*
X007525Y010062D01*
X007137Y010062D01*
X007137Y010333D01*
X007150Y010379D01*
X007173Y010420D01*
X007207Y010454D01*
X007248Y010477D01*
X007294Y010490D01*
X007525Y010490D01*
X007525Y010062D01*
X007621Y010062D01*
X007621Y010490D01*
X007853Y010490D01*
X007899Y010477D01*
X007940Y010454D01*
X007944Y010449D01*
X008008Y010513D01*
X008096Y010550D01*
X008704Y010550D01*
X008784Y010516D01*
X008864Y010550D01*
X009471Y010550D01*
X009560Y010513D01*
X009601Y010472D01*
X009642Y010513D01*
X009730Y010550D01*
X010338Y010550D01*
X010426Y010513D01*
X010493Y010446D01*
X010525Y010368D01*
X011664Y011507D01*
X011643Y011498D01*
X010828Y011498D01*
X010629Y011580D01*
X010477Y011732D01*
X010395Y011930D01*
X010395Y012145D01*
X010477Y012344D01*
X010629Y012495D01*
X010828Y012578D01*
X011643Y012578D01*
X011841Y012495D01*
X011993Y012344D01*
X012075Y012145D01*
X012075Y011930D01*
X012066Y011909D01*
X015342Y015184D01*
X005588Y015184D01*
X005785Y015103D01*
X005937Y014951D01*
X006013Y014766D01*
X006034Y014829D01*
X006068Y014897D01*
X006113Y014958D01*
X006166Y015011D01*
X006227Y015056D01*
X006295Y015090D01*
X006366Y015113D01*
X006441Y015125D01*
X006459Y015125D01*
X006459Y014365D01*
X006499Y014365D01*
X006959Y014365D01*
X006959Y014683D01*
X006947Y014757D01*
X006924Y014829D01*
X006889Y014897D01*
X006845Y014958D01*
X006791Y015011D01*
X006730Y015056D01*
X006663Y015090D01*
X006591Y015113D01*
X006517Y015125D01*
X006499Y015125D01*
X006499Y014365D01*
X006499Y014325D01*
X006959Y014325D01*
X006959Y014007D01*
X006947Y013933D01*
X006924Y013861D01*
X006889Y013793D01*
X006845Y013732D01*
X006791Y013679D01*
X006730Y013634D01*
X006663Y013600D01*
X006591Y013577D01*
X006517Y013565D01*
X006499Y013565D01*
X006499Y014325D01*
X006459Y014325D01*
X006459Y013565D01*
X006441Y013565D01*
X006366Y013577D01*
X006295Y013600D01*
X006227Y013634D01*
X006166Y013679D01*
X006113Y013732D01*
X006068Y013793D01*
X006034Y013861D01*
X006013Y013924D01*
X005937Y013739D01*
X005879Y013681D01*
X005879Y013438D01*
X005945Y013411D01*
X006013Y013343D01*
X006050Y013255D01*
X006050Y011782D01*
X006013Y011693D01*
X005945Y011626D01*
X005857Y011589D01*
X005132Y011589D01*
X005044Y011626D01*
X004976Y011693D01*
X004940Y011782D01*
X004940Y013255D01*
X004976Y013343D01*
X005044Y013411D01*
X005079Y013425D01*
X005079Y013681D01*
X005021Y013739D01*
X004939Y013938D01*
X004939Y013945D01*
X004691Y013945D01*
X004544Y014006D01*
X004431Y014118D01*
X004431Y014118D01*
X003975Y014575D01*
X003255Y014575D01*
X003389Y014497D01*
X003446Y014286D01*
X003655Y014077D01*
X003928Y014077D01*
X004016Y014041D01*
X004084Y013973D01*
X004120Y013885D01*
X004120Y013278D01*
X004084Y013189D01*
X004043Y013148D01*
X004084Y013107D01*
X004120Y013019D01*
X004120Y012411D01*
X004084Y012323D01*
X004016Y012256D01*
X003928Y012219D01*
X003631Y012219D01*
X002757Y011345D01*
X002757Y011297D01*
X002774Y011314D01*
X002844Y011368D01*
X002921Y011413D01*
X003004Y011447D01*
X003090Y011470D01*
X003178Y011482D01*
X003204Y011482D01*
X003204Y010820D01*
X003241Y010820D01*
X003241Y011482D01*
X003267Y011482D01*
X003356Y011470D01*
X003442Y011447D01*
X003524Y011413D01*
X003601Y011368D01*
X003672Y011314D01*
X003735Y011251D01*
X003790Y011180D01*
X003834Y011103D01*
X003868Y011021D01*
X003891Y010935D01*
X003903Y010846D01*
X003903Y010820D01*
X003241Y010820D01*
X003241Y010783D01*
X003241Y010122D01*
X003267Y010122D01*
X003356Y010133D01*
X003442Y010156D01*
X003524Y010191D01*
X003601Y010235D01*
X003672Y010289D01*
X003735Y010352D01*
X005417Y010352D01*
X005417Y010391D02*
X005417Y010236D01*
X005000Y010236D01*
X005000Y009601D01*
X005012Y009555D01*
X005036Y009514D01*
X005069Y009480D01*
X005110Y009457D01*
X005156Y009445D01*
X005417Y009445D01*
X005417Y010236D01*
X005572Y010236D01*
X005572Y009445D01*
X005833Y009445D01*
X005879Y009457D01*
X005920Y009480D01*
X005954Y009514D01*
X005977Y009555D01*
X005990Y009601D01*
X005990Y010236D01*
X005572Y010236D01*
X005572Y010391D01*
X005417Y010391D01*
X005000Y010391D01*
X005000Y011026D01*
X005012Y011072D01*
X005036Y011113D01*
X005069Y011147D01*
X005110Y011170D01*
X005156Y011182D01*
X005417Y011182D01*
X005417Y010391D01*
X005495Y010314D02*
X005963Y010628D01*
X005963Y011106D01*
X008675Y013818D01*
X011235Y013818D01*
X011215Y013838D02*
X011215Y013798D01*
X010455Y013798D01*
X010455Y013780D01*
X010467Y013705D01*
X010490Y013633D01*
X010525Y013566D01*
X010569Y013505D01*
X010622Y013452D01*
X010684Y013407D01*
X010751Y013373D01*
X010823Y013350D01*
X010897Y013338D01*
X011215Y013338D01*
X011215Y013798D01*
X011255Y013798D01*
X011255Y013838D01*
X011215Y013838D01*
X011215Y014298D01*
X010897Y014298D01*
X010823Y014286D01*
X010751Y014263D01*
X010684Y014228D01*
X010622Y014184D01*
X010569Y014130D01*
X010525Y014069D01*
X010490Y014002D01*
X010467Y013930D01*
X010455Y013855D01*
X010455Y013838D01*
X011215Y013838D01*
X011215Y013839D02*
X011255Y013839D01*
X011255Y013838D02*
X011255Y014298D01*
X011573Y014298D01*
X011648Y014286D01*
X011719Y014263D01*
X011787Y014228D01*
X011848Y014184D01*
X011901Y014130D01*
X011946Y014069D01*
X011980Y014002D01*
X012003Y013930D01*
X012015Y013855D01*
X012015Y013838D01*
X011255Y013838D01*
X011255Y013798D02*
X012015Y013798D01*
X012015Y013780D01*
X012003Y013705D01*
X011980Y013633D01*
X011946Y013566D01*
X011901Y013505D01*
X011848Y013452D01*
X011787Y013407D01*
X011719Y013373D01*
X011648Y013350D01*
X011573Y013338D01*
X011255Y013338D01*
X011255Y013798D01*
X011255Y013681D02*
X011215Y013681D01*
X011215Y013522D02*
X011255Y013522D01*
X011255Y013364D02*
X011215Y013364D01*
X010779Y013364D02*
X009131Y013364D01*
X009159Y013373D02*
X009227Y013407D01*
X009288Y013452D01*
X009341Y013505D01*
X009386Y013566D01*
X009420Y013633D01*
X009443Y013705D01*
X009455Y013780D01*
X009455Y013798D01*
X008695Y013798D01*
X008695Y013838D01*
X008655Y013838D01*
X008655Y014298D01*
X008337Y014298D01*
X008263Y014286D01*
X008191Y014263D01*
X008124Y014228D01*
X008062Y014184D01*
X008009Y014130D01*
X007965Y014069D01*
X007930Y014002D01*
X007907Y013930D01*
X007895Y013855D01*
X007895Y013838D01*
X008655Y013838D01*
X008655Y013798D01*
X007895Y013798D01*
X007895Y013780D01*
X007907Y013705D01*
X007930Y013633D01*
X007965Y013566D01*
X008009Y013505D01*
X008062Y013452D01*
X008124Y013407D01*
X008191Y013373D01*
X008263Y013350D01*
X008337Y013338D01*
X008655Y013338D01*
X008655Y013798D01*
X008695Y013798D01*
X008695Y013338D01*
X009013Y013338D01*
X009088Y013350D01*
X009159Y013373D01*
X009354Y013522D02*
X010557Y013522D01*
X010475Y013681D02*
X009435Y013681D01*
X009455Y013838D02*
X008695Y013838D01*
X008695Y014298D01*
X009013Y014298D01*
X009088Y014286D01*
X009159Y014263D01*
X009227Y014228D01*
X009288Y014184D01*
X009341Y014130D01*
X009386Y014069D01*
X009420Y014002D01*
X009443Y013930D01*
X009455Y013855D01*
X009455Y013838D01*
X009455Y013839D02*
X010455Y013839D01*
X010489Y013998D02*
X009421Y013998D01*
X009316Y014156D02*
X010595Y014156D01*
X011215Y014156D02*
X011255Y014156D01*
X011255Y013998D02*
X011215Y013998D01*
X011876Y014156D02*
X014314Y014156D01*
X014472Y014315D02*
X006959Y014315D01*
X006959Y014473D02*
X014631Y014473D01*
X014789Y014632D02*
X006959Y014632D01*
X006936Y014790D02*
X014948Y014790D01*
X015106Y014949D02*
X006852Y014949D01*
X006610Y015107D02*
X015265Y015107D01*
X015624Y015014D02*
X016558Y015014D01*
X017239Y014333D01*
X017545Y014790D02*
X018017Y014790D01*
X018040Y014813D02*
X017779Y014552D01*
X017779Y014557D01*
X017462Y014873D01*
X017151Y014873D01*
X016840Y015184D01*
X019172Y015184D01*
X019165Y015156D01*
X019165Y014924D01*
X019592Y014924D01*
X019592Y014829D01*
X019165Y014829D01*
X019165Y014597D01*
X019177Y014551D01*
X019201Y014510D01*
X019205Y014506D01*
X019141Y014442D01*
X019105Y014353D01*
X019105Y013837D01*
X018955Y013986D01*
X018929Y013997D01*
X018918Y014008D01*
X018918Y014008D01*
X018831Y014095D01*
X018719Y014142D01*
X018719Y014313D01*
X018259Y014313D01*
X018259Y014353D01*
X018719Y014353D01*
X018719Y014532D01*
X018437Y014813D01*
X018259Y014813D01*
X018259Y014353D01*
X018219Y014353D01*
X018219Y014813D01*
X018040Y014813D01*
X018219Y014790D02*
X018259Y014790D01*
X018259Y014632D02*
X018219Y014632D01*
X018219Y014473D02*
X018259Y014473D01*
X018239Y014333D02*
X018782Y014877D01*
X019640Y014877D01*
X020624Y014877D01*
X021609Y014877D01*
X021657Y014924D02*
X022078Y014924D01*
X022078Y014905D01*
X022506Y014905D01*
X022506Y014809D01*
X022084Y014809D01*
X022084Y014829D01*
X021657Y014829D01*
X021657Y014924D01*
X021561Y014924D02*
X021561Y014829D01*
X021488Y014829D01*
X021434Y014851D01*
X020672Y014851D01*
X020672Y014924D01*
X021100Y014924D01*
X021100Y015156D01*
X021092Y015184D01*
X021141Y015184D01*
X021133Y015156D01*
X021133Y014924D01*
X021561Y014924D01*
X021133Y014949D02*
X021100Y014949D01*
X021100Y015107D02*
X021133Y015107D01*
X020577Y014924D02*
X020577Y014851D01*
X019815Y014851D01*
X019761Y014829D01*
X019688Y014829D01*
X019688Y014924D01*
X020115Y014924D01*
X020115Y015156D01*
X020108Y015184D01*
X020157Y015184D01*
X020149Y015156D01*
X020149Y014924D01*
X020577Y014924D01*
X020149Y014949D02*
X020115Y014949D01*
X020115Y015107D02*
X020149Y015107D01*
X019165Y015107D02*
X016917Y015107D01*
X017076Y014949D02*
X019165Y014949D01*
X019165Y014790D02*
X018461Y014790D01*
X018619Y014632D02*
X019165Y014632D01*
X019173Y014473D02*
X018719Y014473D01*
X018719Y014156D02*
X019105Y014156D01*
X019105Y013998D02*
X018928Y013998D01*
X019103Y013839D02*
X019105Y013839D01*
X018932Y013558D02*
X018774Y013715D01*
X018932Y013558D02*
X018932Y012219D01*
X019128Y012022D01*
X019758Y012022D01*
X019987Y011794D01*
X019987Y011444D01*
X020302Y011444D02*
X020302Y011991D01*
X019680Y012613D01*
X019640Y012613D01*
X019640Y013479D02*
X019640Y014050D01*
X019105Y014315D02*
X018259Y014315D01*
X017858Y014632D02*
X017704Y014632D01*
X017239Y013333D02*
X017239Y012022D01*
X018404Y010857D01*
X019084Y010857D01*
X019084Y010542D02*
X018274Y010542D01*
X018085Y010353D01*
X017849Y010353D01*
X017144Y010353D01*
X015349Y008558D01*
X011766Y008558D01*
X009876Y006668D01*
X009876Y003873D01*
X010585Y003164D01*
X019207Y003164D01*
X020270Y004227D01*
X020270Y004778D01*
X020664Y005172D01*
X021215Y005172D01*
X021294Y005251D01*
X021294Y005841D01*
X021294Y006707D02*
X021136Y006865D01*
X021136Y007258D01*
X020932Y007463D01*
X020932Y008064D01*
X021404Y008554D02*
X021719Y008554D01*
X021974Y008554D01*
X021974Y009125D01*
X022011Y009213D01*
X022034Y009236D01*
X022034Y009277D01*
X021923Y009277D01*
X021805Y009326D01*
X021546Y009586D01*
X021456Y009676D01*
X021407Y009793D01*
X021407Y009921D01*
X021106Y010222D01*
X019574Y010222D01*
X019574Y009754D01*
X019538Y009666D01*
X019514Y009643D01*
X019514Y009597D01*
X019466Y009597D01*
X019466Y009597D01*
X019466Y009597D01*
X019514Y009597D01*
X019514Y009551D01*
X019538Y009528D01*
X019574Y009440D01*
X019574Y008554D01*
X021404Y008554D01*
X021974Y008609D02*
X019574Y008609D01*
X019574Y008767D02*
X021974Y008767D01*
X021974Y008926D02*
X019574Y008926D01*
X019574Y009084D02*
X021974Y009084D01*
X022034Y009243D02*
X019574Y009243D01*
X019574Y009401D02*
X021730Y009401D01*
X021790Y009282D02*
X021475Y009597D01*
X019084Y009597D01*
X018195Y009597D01*
X018085Y009487D01*
X017849Y009487D01*
X017897Y009535D02*
X018324Y009535D01*
X018324Y009766D01*
X018312Y009812D01*
X018288Y009853D01*
X018257Y009884D01*
X018280Y009894D01*
X018348Y009961D01*
X018384Y010049D01*
X018384Y010199D01*
X018407Y010222D01*
X018594Y010222D01*
X018594Y009754D01*
X018631Y009666D01*
X018654Y009643D01*
X018654Y009597D01*
X018702Y009597D01*
X018702Y009597D01*
X018702Y009597D01*
X018654Y009597D01*
X018654Y009551D01*
X018631Y009528D01*
X018594Y009440D01*
X018594Y009287D01*
X018324Y009287D01*
X018324Y009439D01*
X017897Y009439D01*
X017897Y009535D01*
X017801Y009535D02*
X017801Y009439D01*
X017374Y009439D01*
X017374Y009287D01*
X016797Y009287D01*
X016679Y009238D01*
X015610Y008169D01*
X012569Y008169D01*
X012451Y008120D01*
X011061Y006730D01*
X010971Y006640D01*
X010950Y006589D01*
X010900Y006589D01*
X010811Y006552D01*
X010744Y006485D01*
X010707Y006397D01*
X010707Y005789D01*
X010744Y005701D01*
X010785Y005660D01*
X010744Y005619D01*
X010707Y005531D01*
X010707Y004923D01*
X010744Y004835D01*
X010772Y004807D01*
X010629Y004748D01*
X010477Y004596D01*
X010395Y004398D01*
X010395Y004183D01*
X010477Y003984D01*
X010629Y003832D01*
X010828Y003750D01*
X011643Y003750D01*
X011841Y003832D01*
X011993Y003984D01*
X012075Y004183D01*
X012075Y004398D01*
X011993Y004596D01*
X011841Y004748D01*
X011709Y004803D01*
X011741Y004835D01*
X011778Y004923D01*
X011778Y005531D01*
X011741Y005619D01*
X011700Y005660D01*
X011741Y005701D01*
X011778Y005789D01*
X011778Y006397D01*
X011741Y006485D01*
X011731Y006495D01*
X012765Y007529D01*
X015322Y007529D01*
X015310Y007499D01*
X012735Y007499D01*
X012577Y007341D02*
X015310Y007341D01*
X015310Y007499D02*
X015310Y006892D01*
X015346Y006804D01*
X015387Y006762D01*
X015346Y006721D01*
X015310Y006633D01*
X015310Y006026D01*
X015346Y005937D01*
X015402Y005881D01*
X015402Y005030D01*
X015439Y004941D01*
X015506Y004874D01*
X015594Y004837D01*
X016135Y004837D01*
X016223Y004874D01*
X016291Y004941D01*
X016327Y005030D01*
X016327Y005921D01*
X016344Y005937D01*
X016353Y005959D01*
X016362Y005937D01*
X016402Y005897D01*
X016402Y005030D01*
X016439Y004941D01*
X016506Y004874D01*
X016594Y004837D01*
X017135Y004837D01*
X017223Y004874D01*
X017291Y004941D01*
X017327Y005030D01*
X017327Y005905D01*
X017359Y005937D01*
X017369Y005959D01*
X017378Y005937D01*
X017402Y005913D01*
X017402Y005030D01*
X017439Y004941D01*
X017506Y004874D01*
X017594Y004837D01*
X018135Y004837D01*
X018223Y004874D01*
X018291Y004941D01*
X018327Y005030D01*
X018327Y005889D01*
X018365Y005927D01*
X018402Y005889D01*
X018402Y005030D01*
X018439Y004941D01*
X018506Y004874D01*
X018594Y004837D01*
X019135Y004837D01*
X019223Y004874D01*
X019291Y004941D01*
X019327Y005030D01*
X019327Y005913D01*
X019352Y005937D01*
X019388Y006026D01*
X019388Y006633D01*
X019352Y006721D01*
X019310Y006762D01*
X019352Y006804D01*
X019386Y006887D01*
X019853Y006887D01*
X019853Y006404D01*
X019890Y006315D01*
X019927Y006278D01*
X019594Y006278D01*
X019506Y006241D01*
X019439Y006174D01*
X019402Y006086D01*
X019402Y005030D01*
X019439Y004941D01*
X019506Y004874D01*
X019594Y004837D01*
X019950Y004837D01*
X019950Y004359D01*
X019075Y003484D01*
X010718Y003484D01*
X010196Y004005D01*
X010196Y006535D01*
X011899Y008238D01*
X015413Y008238D01*
X015530Y008286D01*
X015620Y008376D01*
X017277Y010033D01*
X017320Y010033D01*
X017350Y009961D01*
X017418Y009894D01*
X017440Y009884D01*
X017410Y009853D01*
X017386Y009812D01*
X017374Y009766D01*
X017374Y009535D01*
X017801Y009535D01*
X017374Y009560D02*
X016803Y009560D01*
X016645Y009401D02*
X017374Y009401D01*
X017374Y009718D02*
X016962Y009718D01*
X017120Y009877D02*
X017433Y009877D01*
X017849Y010353D02*
X017849Y010625D01*
X015428Y013046D01*
X015428Y013676D01*
X016085Y014333D01*
X016239Y014333D01*
X015773Y014632D02*
X015694Y014632D01*
X015699Y014473D02*
X015536Y014473D01*
X015614Y014315D02*
X015377Y014315D01*
X015455Y014156D02*
X015219Y014156D01*
X015297Y013998D02*
X015060Y013998D01*
X015149Y013839D02*
X014902Y013839D01*
X014743Y013681D02*
X015108Y013681D01*
X015108Y013522D02*
X014585Y013522D01*
X014426Y013364D02*
X015108Y013364D01*
X015108Y013205D02*
X014268Y013205D01*
X014109Y013047D02*
X015108Y013047D01*
X015147Y012888D02*
X013951Y012888D01*
X013792Y012730D02*
X015291Y012730D01*
X015450Y012571D02*
X013634Y012571D01*
X013475Y012413D02*
X015608Y012413D01*
X015767Y012254D02*
X013317Y012254D01*
X013158Y012096D02*
X015925Y012096D01*
X016084Y011937D02*
X013000Y011937D01*
X012841Y011779D02*
X013619Y011779D01*
X013699Y011812D02*
X013342Y011664D01*
X013069Y011391D01*
X012922Y011034D01*
X012922Y010648D01*
X013069Y010291D01*
X013342Y010018D01*
X013699Y009871D01*
X014085Y009871D01*
X014442Y010018D01*
X014715Y010291D01*
X014863Y010648D01*
X014863Y011034D01*
X014715Y011391D01*
X014442Y011664D01*
X014085Y011812D01*
X013699Y011812D01*
X013299Y011620D02*
X012683Y011620D01*
X012524Y011462D02*
X013140Y011462D01*
X013033Y011303D02*
X012366Y011303D01*
X012207Y011145D02*
X012967Y011145D01*
X012922Y010986D02*
X012049Y010986D01*
X011890Y010828D02*
X012922Y010828D01*
X012922Y010669D02*
X011732Y010669D01*
X011573Y010511D02*
X012979Y010511D01*
X013044Y010352D02*
X011415Y010352D01*
X011256Y010194D02*
X013167Y010194D01*
X013326Y010035D02*
X011098Y010035D01*
X010939Y009877D02*
X013684Y009877D01*
X014100Y009877D02*
X016215Y009877D01*
X016374Y010035D02*
X014459Y010035D01*
X014617Y010194D02*
X016532Y010194D01*
X016691Y010352D02*
X014740Y010352D01*
X014806Y010511D02*
X016849Y010511D01*
X017071Y010669D02*
X014863Y010669D01*
X014863Y010828D02*
X017193Y010828D01*
X017035Y010986D02*
X014863Y010986D01*
X014817Y011145D02*
X016876Y011145D01*
X016718Y011303D02*
X014751Y011303D01*
X014644Y011462D02*
X016559Y011462D01*
X016401Y011620D02*
X014486Y011620D01*
X014165Y011779D02*
X016242Y011779D01*
X017739Y012428D02*
X018722Y011444D01*
X019076Y011444D01*
X019084Y010542D02*
X021239Y010542D01*
X021727Y010054D01*
X021900Y010227D01*
X022464Y010227D01*
X023613Y010227D01*
X023617Y010132D01*
X023925Y010763D02*
X023959Y010761D01*
X023992Y010755D01*
X024024Y010746D01*
X024055Y010733D01*
X024085Y010717D01*
X024112Y010698D01*
X024137Y010675D01*
X024330Y010482D01*
X024404Y010304D02*
X024483Y010132D01*
X024404Y010304D02*
X024402Y010332D01*
X024398Y010360D01*
X024390Y010387D01*
X024379Y010413D01*
X024365Y010438D01*
X024349Y010461D01*
X024330Y010482D01*
X024595Y010669D02*
X025125Y010669D01*
X025125Y010511D02*
X024987Y010511D01*
X025018Y010352D02*
X025125Y010352D01*
X025125Y010194D02*
X025018Y010194D01*
X025018Y010035D02*
X025125Y010035D01*
X025125Y009877D02*
X025018Y009877D01*
X024959Y009718D02*
X025125Y009718D01*
X025125Y009560D02*
X024954Y009560D01*
X024958Y009401D02*
X025125Y009401D01*
X025125Y009243D02*
X024531Y009243D01*
X024483Y009266D02*
X023617Y009266D01*
X023593Y009290D01*
X023065Y009290D01*
X023065Y009778D01*
X022932Y009912D01*
X022464Y009912D01*
X022464Y009597D02*
X021987Y009597D01*
X021727Y009857D01*
X021727Y010054D01*
X021407Y009877D02*
X019574Y009877D01*
X019574Y010035D02*
X021293Y010035D01*
X021134Y010194D02*
X019574Y010194D01*
X019559Y009718D02*
X021438Y009718D01*
X021571Y009560D02*
X019514Y009560D01*
X019084Y008967D02*
X016861Y008967D01*
X015743Y007849D01*
X012632Y007849D01*
X011243Y006459D01*
X011243Y006093D01*
X011778Y006073D02*
X015310Y006073D01*
X015310Y006231D02*
X011778Y006231D01*
X011778Y006390D02*
X015310Y006390D01*
X015310Y006548D02*
X011784Y006548D01*
X011943Y006707D02*
X015340Y006707D01*
X015321Y006865D02*
X012101Y006865D01*
X012260Y007024D02*
X015310Y007024D01*
X015310Y007182D02*
X012418Y007182D01*
X011988Y007658D02*
X011319Y007658D01*
X011477Y007816D02*
X012147Y007816D01*
X012305Y007975D02*
X011636Y007975D01*
X011794Y008133D02*
X012482Y008133D01*
X011830Y007499D02*
X011160Y007499D01*
X011002Y007341D02*
X011671Y007341D01*
X011513Y007182D02*
X010843Y007182D01*
X010685Y007024D02*
X011354Y007024D01*
X011196Y006865D02*
X010526Y006865D01*
X010368Y006707D02*
X011037Y006707D01*
X010807Y006548D02*
X010209Y006548D01*
X010196Y006390D02*
X010707Y006390D01*
X010707Y006231D02*
X010196Y006231D01*
X010196Y006073D02*
X010707Y006073D01*
X010707Y005914D02*
X010196Y005914D01*
X010196Y005756D02*
X010721Y005756D01*
X010735Y005597D02*
X010196Y005597D01*
X010196Y005439D02*
X010707Y005439D01*
X010707Y005280D02*
X010196Y005280D01*
X010196Y005122D02*
X010707Y005122D01*
X010707Y004963D02*
X010196Y004963D01*
X010196Y004805D02*
X010766Y004805D01*
X010527Y004646D02*
X010196Y004646D01*
X010196Y004488D02*
X010432Y004488D01*
X010395Y004329D02*
X010196Y004329D01*
X010196Y004171D02*
X010400Y004171D01*
X010466Y004012D02*
X010196Y004012D01*
X010348Y003854D02*
X010608Y003854D01*
X010506Y003695D02*
X019286Y003695D01*
X019444Y003854D02*
X011862Y003854D01*
X012005Y004012D02*
X013585Y004012D01*
X013699Y003965D02*
X014085Y003965D01*
X014442Y004113D01*
X014715Y004386D01*
X014863Y004743D01*
X014863Y005129D01*
X014715Y005485D01*
X014442Y005758D01*
X014085Y005906D01*
X013699Y005906D01*
X013342Y005758D01*
X013069Y005485D01*
X012922Y005129D01*
X012922Y004743D01*
X013069Y004386D01*
X013342Y004113D01*
X013699Y003965D01*
X013285Y004171D02*
X012070Y004171D01*
X012075Y004329D02*
X013126Y004329D01*
X013027Y004488D02*
X012038Y004488D01*
X011943Y004646D02*
X012962Y004646D01*
X012922Y004805D02*
X011711Y004805D01*
X011778Y004963D02*
X012922Y004963D01*
X012922Y005122D02*
X011778Y005122D01*
X011778Y005280D02*
X012984Y005280D01*
X013050Y005439D02*
X011778Y005439D01*
X011750Y005597D02*
X013181Y005597D01*
X013340Y005756D02*
X011764Y005756D01*
X011778Y005914D02*
X015370Y005914D01*
X015402Y005756D02*
X014445Y005756D01*
X014603Y005597D02*
X015402Y005597D01*
X015402Y005439D02*
X014734Y005439D01*
X014800Y005280D02*
X015402Y005280D01*
X015402Y005122D02*
X014863Y005122D01*
X014863Y004963D02*
X015430Y004963D01*
X014863Y004805D02*
X019950Y004805D01*
X019950Y004646D02*
X014823Y004646D01*
X014757Y004488D02*
X019950Y004488D01*
X019920Y004329D02*
X014658Y004329D01*
X014500Y004171D02*
X019761Y004171D01*
X019603Y004012D02*
X014199Y004012D01*
X015498Y002763D02*
X015474Y002722D01*
X015462Y002676D01*
X015462Y002203D01*
X015833Y002203D01*
X015833Y002141D01*
X015462Y002141D01*
X015462Y001668D01*
X015474Y001622D01*
X015498Y001581D01*
X015532Y001547D01*
X015573Y001524D01*
X015618Y001511D01*
X015833Y001511D01*
X015833Y002141D01*
X015896Y002141D01*
X015896Y002203D01*
X016267Y002203D01*
X016267Y002676D01*
X016255Y002722D01*
X016231Y002763D01*
X016198Y002796D01*
X016157Y002820D01*
X016111Y002832D01*
X015896Y002832D01*
X015896Y002203D01*
X015833Y002203D01*
X015833Y002832D01*
X015618Y002832D01*
X015573Y002820D01*
X015532Y002796D01*
X015498Y002763D01*
X015487Y002744D02*
X011955Y002744D01*
X012009Y002586D02*
X015462Y002586D01*
X015462Y002427D02*
X012008Y002427D01*
X011951Y002269D02*
X015462Y002269D01*
X015462Y002110D02*
X011801Y002110D01*
X011574Y002172D02*
X015865Y002172D01*
X016865Y002172D01*
X017865Y002172D01*
X018865Y002172D01*
X019865Y002172D01*
X021053Y002172D01*
X021470Y002392D01*
X024030Y002392D01*
X023834Y002397D01*
X024995Y003558D01*
X024995Y007219D01*
X024837Y007377D01*
X025052Y007341D02*
X025125Y007341D01*
X025125Y007499D02*
X025052Y007499D01*
X025002Y007658D02*
X025125Y007658D01*
X025125Y007816D02*
X024844Y007816D01*
X024943Y007975D02*
X025125Y007975D01*
X025125Y008133D02*
X025101Y008133D01*
X025112Y008292D02*
X025125Y008292D01*
X025112Y008450D02*
X025125Y008450D01*
X025112Y008609D02*
X025125Y008609D01*
X025125Y008767D02*
X024978Y008767D01*
X024937Y008926D02*
X025125Y008926D01*
X025125Y009084D02*
X024958Y009084D01*
X024435Y009218D02*
X024007Y009218D01*
X023665Y009218D01*
X023665Y009314D01*
X024435Y009314D01*
X024435Y009218D01*
X024435Y009243D02*
X023665Y009243D01*
X023665Y009218D02*
X023665Y008830D01*
X023936Y008830D01*
X023981Y008843D01*
X024022Y008866D01*
X024050Y008894D01*
X024077Y008866D01*
X024118Y008843D01*
X024137Y008838D01*
X023959Y008660D01*
X023431Y008660D01*
X023343Y008623D01*
X023302Y008582D01*
X023260Y008623D01*
X023173Y008660D01*
X023140Y008739D01*
X023050Y008829D01*
X022955Y008923D01*
X022954Y008924D01*
X022954Y009125D01*
X022918Y009213D01*
X022894Y009236D01*
X022894Y009282D01*
X022846Y009282D01*
X022846Y009282D01*
X022846Y009282D01*
X022894Y009282D01*
X022894Y009328D01*
X022918Y009351D01*
X022954Y009439D01*
X022954Y009755D01*
X022918Y009843D01*
X022894Y009866D01*
X022894Y009907D01*
X023081Y009907D01*
X023081Y009829D01*
X023118Y009741D01*
X023185Y009673D01*
X023208Y009664D01*
X023177Y009633D01*
X023154Y009592D01*
X023141Y009546D01*
X023141Y009314D01*
X023569Y009314D01*
X023569Y009218D01*
X023665Y009218D01*
X023617Y009266D02*
X023577Y009184D01*
X023569Y009218D02*
X023569Y008830D01*
X023298Y008830D01*
X023252Y008843D01*
X023211Y008866D01*
X023177Y008900D01*
X023154Y008941D01*
X023141Y008987D01*
X023141Y009218D01*
X023569Y009218D01*
X023569Y009243D02*
X022894Y009243D01*
X022938Y009401D02*
X023141Y009401D01*
X023065Y009290D02*
X022472Y009290D01*
X022464Y009282D01*
X021790Y009282D01*
X022464Y008652D02*
X022774Y008652D01*
X022869Y008558D01*
X022869Y008125D01*
X023275Y008609D02*
X023328Y008609D01*
X023112Y008767D02*
X024067Y008767D01*
X023665Y008926D02*
X023569Y008926D01*
X023569Y009084D02*
X023665Y009084D01*
X023141Y009084D02*
X022954Y009084D01*
X022954Y008926D02*
X023162Y008926D01*
X023145Y009560D02*
X022954Y009560D01*
X022954Y009718D02*
X023140Y009718D01*
X023081Y009877D02*
X022894Y009877D01*
X022915Y010542D02*
X022464Y010542D01*
X022464Y010857D02*
X022687Y010857D01*
X023218Y011388D01*
X023302Y011589D02*
X023302Y012828D01*
X023622Y012730D02*
X025125Y012730D01*
X025125Y012888D02*
X023639Y012888D01*
X023431Y013141D02*
X023405Y013112D01*
X023382Y013082D01*
X023361Y013049D01*
X023343Y013015D01*
X023329Y012979D01*
X023317Y012942D01*
X023309Y012905D01*
X023304Y012867D01*
X023302Y012828D01*
X023431Y013141D02*
X024207Y013917D01*
X022672Y013917D01*
X022598Y013991D01*
X022554Y013991D01*
X022976Y014473D02*
X025125Y014473D01*
X025125Y014315D02*
X024517Y014315D01*
X024649Y014156D02*
X025125Y014156D01*
X025125Y013998D02*
X024707Y013998D01*
X024707Y013839D02*
X025125Y013839D01*
X025125Y013681D02*
X024650Y013681D01*
X024519Y013522D02*
X025125Y013522D01*
X025125Y013364D02*
X024106Y013364D01*
X023948Y013205D02*
X025125Y013205D01*
X025125Y013047D02*
X023789Y013047D01*
X023622Y012571D02*
X025125Y012571D01*
X025125Y012413D02*
X024519Y012413D01*
X024650Y012254D02*
X025125Y012254D01*
X025125Y012096D02*
X024707Y012096D01*
X024707Y011937D02*
X025125Y011937D01*
X025125Y011779D02*
X024650Y011779D01*
X024517Y011620D02*
X025125Y011620D01*
X025125Y011462D02*
X024335Y011462D01*
X024177Y011303D02*
X025125Y011303D01*
X025125Y011145D02*
X024018Y011145D01*
X024278Y010986D02*
X025125Y010986D01*
X025125Y010828D02*
X024437Y010828D01*
X023925Y010762D02*
X023184Y010762D01*
X022997Y010576D01*
X022983Y010564D01*
X022968Y010555D01*
X022951Y010548D01*
X022933Y010543D01*
X022915Y010542D01*
X023184Y010762D02*
X024160Y011738D01*
X024207Y011853D02*
X024207Y012017D01*
X024207Y011853D02*
X024206Y011832D01*
X024201Y011811D01*
X024195Y011791D01*
X024185Y011772D01*
X024174Y011754D01*
X024160Y011738D01*
X023747Y011779D02*
X023622Y011779D01*
X023622Y011937D02*
X023707Y011937D01*
X023707Y012096D02*
X023622Y012096D01*
X023622Y012254D02*
X023764Y012254D01*
X023896Y012413D02*
X023622Y012413D01*
X023302Y011589D02*
X023300Y011557D01*
X023295Y011526D01*
X023286Y011495D01*
X023274Y011466D01*
X023258Y011438D01*
X023240Y011412D01*
X023219Y011388D01*
X022554Y012022D02*
X022239Y012022D01*
X021876Y011660D01*
X021876Y011444D01*
X020932Y011444D02*
X020932Y011778D01*
X021609Y012455D01*
X021609Y012613D01*
X021609Y013479D02*
X021609Y014050D01*
X020624Y014050D02*
X020624Y013479D01*
X020624Y012613D02*
X020624Y011452D01*
X020617Y011444D01*
X018594Y010194D02*
X018384Y010194D01*
X018378Y010035D02*
X018594Y010035D01*
X018594Y009877D02*
X018265Y009877D01*
X018324Y009718D02*
X018609Y009718D01*
X018654Y009560D02*
X018324Y009560D01*
X018324Y009401D02*
X018594Y009401D01*
X016690Y009243D02*
X016486Y009243D01*
X016525Y009084D02*
X016328Y009084D01*
X016367Y008926D02*
X016169Y008926D01*
X016208Y008767D02*
X016011Y008767D01*
X016050Y008609D02*
X015852Y008609D01*
X015891Y008450D02*
X015694Y008450D01*
X015733Y008292D02*
X015535Y008292D01*
X015264Y008926D02*
X007911Y008926D01*
X007911Y008982D02*
X007483Y008982D01*
X007483Y009078D01*
X007388Y009078D01*
X007388Y009466D01*
X007117Y009466D01*
X007071Y009454D01*
X007030Y009430D01*
X006996Y009396D01*
X006972Y009355D01*
X006960Y009310D01*
X006960Y009078D01*
X007388Y009078D01*
X007388Y009004D01*
X007339Y009024D01*
X006828Y009024D01*
X006828Y009192D01*
X006816Y009237D01*
X006792Y009278D01*
X006759Y009312D01*
X006718Y009336D01*
X006672Y009348D01*
X006391Y009348D01*
X006391Y008989D01*
X006354Y008989D01*
X006354Y009348D01*
X006073Y009348D01*
X006027Y009336D01*
X005986Y009312D01*
X005953Y009278D01*
X005929Y009237D01*
X005917Y009192D01*
X005917Y008998D01*
X005830Y009034D01*
X005202Y009034D01*
X004473Y009763D01*
X004326Y009824D01*
X003074Y009824D01*
X002757Y010141D01*
X002757Y010306D01*
X002774Y010289D01*
X002844Y010235D01*
X002921Y010191D01*
X003004Y010156D01*
X003090Y010133D01*
X003178Y010122D01*
X003204Y010122D01*
X003204Y010783D01*
X003241Y010783D01*
X003903Y010783D01*
X003903Y010757D01*
X003891Y010669D01*
X005000Y010669D01*
X005000Y010511D02*
X003838Y010511D01*
X003834Y010500D02*
X003868Y010583D01*
X003891Y010669D01*
X003903Y010828D02*
X005000Y010828D01*
X005000Y010986D02*
X003877Y010986D01*
X003810Y011145D02*
X005067Y011145D01*
X005417Y011145D02*
X005572Y011145D01*
X005572Y011182D02*
X005572Y010391D01*
X005990Y010391D01*
X005990Y011026D01*
X005977Y011072D01*
X005954Y011113D01*
X005920Y011147D01*
X005879Y011170D01*
X005833Y011182D01*
X005572Y011182D01*
X005572Y010986D02*
X005417Y010986D01*
X005417Y010828D02*
X005572Y010828D01*
X005572Y010669D02*
X005417Y010669D01*
X005417Y010511D02*
X005572Y010511D01*
X005572Y010352D02*
X007142Y010352D01*
X007137Y010194D02*
X005990Y010194D01*
X005990Y010035D02*
X007525Y010035D01*
X007525Y009877D02*
X007621Y009877D01*
X007621Y009718D02*
X007525Y009718D01*
X007525Y009560D02*
X007621Y009560D01*
X007754Y009466D02*
X007483Y009466D01*
X007483Y009078D01*
X007911Y009078D01*
X007911Y009310D01*
X007899Y009355D01*
X007875Y009396D01*
X007841Y009430D01*
X007800Y009454D01*
X007754Y009466D01*
X007870Y009401D02*
X015740Y009401D01*
X015898Y009560D02*
X010470Y009560D01*
X010746Y009718D02*
X016057Y009718D01*
X015581Y009243D02*
X007911Y009243D01*
X007911Y009084D02*
X015423Y009084D01*
X012095Y011937D02*
X012075Y011937D01*
X012075Y012096D02*
X012253Y012096D01*
X012412Y012254D02*
X012030Y012254D01*
X011924Y012413D02*
X012570Y012413D01*
X012729Y012571D02*
X011658Y012571D01*
X010812Y012571D02*
X009098Y012571D01*
X009083Y012578D02*
X009281Y012495D01*
X009433Y012344D01*
X009515Y012145D01*
X009515Y011930D01*
X009433Y011732D01*
X009281Y011580D01*
X009083Y011498D01*
X008268Y011498D01*
X008069Y011580D01*
X007917Y011732D01*
X007835Y011930D01*
X007835Y012145D01*
X007917Y012344D01*
X008069Y012495D01*
X008268Y012578D01*
X009083Y012578D01*
X009364Y012413D02*
X010546Y012413D01*
X010440Y012254D02*
X009470Y012254D01*
X009515Y012096D02*
X010395Y012096D01*
X010395Y011937D02*
X009515Y011937D01*
X009452Y011779D02*
X010458Y011779D01*
X010589Y011620D02*
X009321Y011620D01*
X009562Y010511D02*
X009640Y010511D01*
X010034Y010014D02*
X010624Y010014D01*
X015624Y015014D01*
X014155Y013998D02*
X011981Y013998D01*
X012015Y013839D02*
X013997Y013839D01*
X013838Y013681D02*
X011995Y013681D01*
X011914Y013522D02*
X013680Y013522D01*
X013521Y013364D02*
X011691Y013364D01*
X012887Y012730D02*
X006050Y012730D01*
X006050Y012888D02*
X013046Y012888D01*
X013204Y013047D02*
X006050Y013047D01*
X006050Y013205D02*
X013363Y013205D01*
X011619Y011462D02*
X003387Y011462D01*
X003241Y011462D02*
X003204Y011462D01*
X003058Y011462D02*
X002874Y011462D01*
X002763Y011303D02*
X002757Y011303D01*
X003032Y011620D02*
X005057Y011620D01*
X004941Y011779D02*
X003191Y011779D01*
X003349Y011937D02*
X004940Y011937D01*
X004940Y012096D02*
X003508Y012096D01*
X004012Y012254D02*
X004940Y012254D01*
X004940Y012413D02*
X004120Y012413D01*
X004120Y012571D02*
X004940Y012571D01*
X004940Y012730D02*
X004120Y012730D01*
X004120Y012888D02*
X004940Y012888D01*
X004940Y013047D02*
X004109Y013047D01*
X004090Y013205D02*
X004940Y013205D01*
X004997Y013364D02*
X004120Y013364D01*
X004120Y013522D02*
X005079Y013522D01*
X005079Y013681D02*
X004120Y013681D01*
X004120Y013839D02*
X004980Y013839D01*
X004564Y013998D02*
X004059Y013998D01*
X004235Y014315D02*
X003438Y014315D01*
X003396Y014473D02*
X004076Y014473D01*
X004393Y014156D02*
X003576Y014156D01*
X005879Y013681D02*
X006164Y013681D01*
X006045Y013839D02*
X005978Y013839D01*
X005879Y013522D02*
X007997Y013522D01*
X007915Y013681D02*
X006793Y013681D01*
X006913Y013839D02*
X007895Y013839D01*
X007929Y013998D02*
X006957Y013998D01*
X006959Y014156D02*
X008035Y014156D01*
X008655Y014156D02*
X008695Y014156D01*
X008695Y013998D02*
X008655Y013998D01*
X008655Y013839D02*
X008695Y013839D01*
X008695Y013681D02*
X008655Y013681D01*
X008655Y013522D02*
X008695Y013522D01*
X008695Y013364D02*
X008655Y013364D01*
X008219Y013364D02*
X005993Y013364D01*
X006459Y013681D02*
X006499Y013681D01*
X006499Y013839D02*
X006459Y013839D01*
X006459Y013998D02*
X006499Y013998D01*
X006499Y014156D02*
X006459Y014156D01*
X006459Y014315D02*
X006499Y014315D01*
X006499Y014473D02*
X006459Y014473D01*
X006459Y014632D02*
X006499Y014632D01*
X006499Y014790D02*
X006459Y014790D01*
X006459Y014949D02*
X006499Y014949D01*
X006499Y015107D02*
X006459Y015107D01*
X006348Y015107D02*
X005774Y015107D01*
X005938Y014949D02*
X006106Y014949D01*
X006021Y014790D02*
X006003Y014790D01*
X006050Y012571D02*
X008252Y012571D01*
X007986Y012413D02*
X006050Y012413D01*
X006050Y012254D02*
X007880Y012254D01*
X007835Y012096D02*
X006050Y012096D01*
X006050Y011937D02*
X007835Y011937D01*
X007898Y011779D02*
X006048Y011779D01*
X005932Y011620D02*
X008029Y011620D01*
X008006Y010511D02*
X005990Y010511D01*
X005990Y010669D02*
X010827Y010669D01*
X010985Y010828D02*
X005990Y010828D01*
X005990Y010986D02*
X011144Y010986D01*
X011302Y011145D02*
X005922Y011145D01*
X005572Y010194D02*
X005417Y010194D01*
X005417Y010035D02*
X005572Y010035D01*
X005572Y009877D02*
X005417Y009877D01*
X005417Y009718D02*
X005572Y009718D01*
X005572Y009560D02*
X005417Y009560D01*
X005011Y009560D02*
X004676Y009560D01*
X004518Y009718D02*
X005000Y009718D01*
X005000Y009877D02*
X003021Y009877D01*
X002862Y010035D02*
X005000Y010035D01*
X005000Y010194D02*
X003530Y010194D01*
X003735Y010352D02*
X003790Y010423D01*
X003834Y010500D01*
X003241Y010511D02*
X003204Y010511D01*
X003204Y010669D02*
X003241Y010669D01*
X003241Y010828D02*
X003204Y010828D01*
X003204Y010986D02*
X003241Y010986D01*
X003241Y011145D02*
X003204Y011145D01*
X003204Y011303D02*
X003241Y011303D01*
X003683Y011303D02*
X011461Y011303D01*
X010668Y010511D02*
X010428Y010511D01*
X009168Y010014D02*
X008400Y010014D01*
X007964Y009560D02*
X007913Y009560D01*
X007483Y009401D02*
X007388Y009401D01*
X007388Y009243D02*
X007483Y009243D01*
X007483Y009084D02*
X007388Y009084D01*
X007435Y009030D02*
X009286Y009030D01*
X010113Y008203D01*
X010113Y007495D01*
X009325Y006707D01*
X009325Y005959D01*
X008932Y005565D01*
X008380Y005565D01*
X008384Y005530D01*
X008428Y005518D02*
X008428Y005130D01*
X008699Y005130D01*
X008745Y005142D01*
X008786Y005166D01*
X008820Y005199D01*
X008843Y005240D01*
X008856Y005286D01*
X008856Y005518D01*
X008428Y005518D01*
X008428Y005613D01*
X008856Y005613D01*
X008856Y005845D01*
X008843Y005891D01*
X008820Y005932D01*
X008789Y005963D01*
X008812Y005972D01*
X008879Y006040D01*
X008916Y006128D01*
X008916Y006735D01*
X008879Y006823D01*
X008812Y006891D01*
X008723Y006928D01*
X008037Y006928D01*
X007949Y006891D01*
X007890Y006832D01*
X007596Y006832D01*
X007527Y006998D01*
X007375Y007150D01*
X007177Y007232D01*
X006962Y007232D01*
X006763Y007150D01*
X006612Y006998D01*
X006569Y006896D01*
X006527Y006998D01*
X006375Y007150D01*
X006177Y007232D01*
X005962Y007232D01*
X005763Y007150D01*
X005612Y006998D01*
X005529Y006800D01*
X005529Y006497D01*
X004852Y005820D01*
X004791Y005673D01*
X004791Y005662D01*
X004758Y005629D01*
X004725Y005662D01*
X004725Y007007D01*
X004664Y007154D01*
X004450Y007369D01*
X005241Y008160D01*
X005830Y008160D01*
X005857Y008171D01*
X005857Y007978D01*
X005893Y007890D01*
X005961Y007823D01*
X006049Y007786D01*
X006696Y007786D01*
X006784Y007823D01*
X006805Y007844D01*
X006907Y007844D01*
X006937Y007772D01*
X007004Y007705D01*
X007092Y007668D01*
X007779Y007668D01*
X007814Y007683D01*
X007831Y007665D01*
X007919Y007629D01*
X008527Y007629D01*
X008593Y007656D01*
X008569Y007598D01*
X008569Y007391D01*
X008648Y007200D01*
X008794Y007054D01*
X008986Y006975D01*
X009192Y006975D01*
X009384Y007054D01*
X009530Y007200D01*
X009609Y007391D01*
X009609Y007598D01*
X009551Y007739D01*
X009585Y007821D01*
X009585Y008507D01*
X009548Y008595D01*
X009481Y008663D01*
X009393Y008699D01*
X008785Y008699D01*
X008697Y008663D01*
X008656Y008621D01*
X008615Y008663D01*
X008527Y008699D01*
X007919Y008699D01*
X007888Y008686D01*
X007899Y008705D01*
X007911Y008750D01*
X007911Y008982D01*
X007911Y008767D02*
X011523Y008767D01*
X011365Y008609D02*
X009535Y008609D01*
X009585Y008450D02*
X011206Y008450D01*
X011048Y008292D02*
X009585Y008292D01*
X009585Y008133D02*
X010889Y008133D01*
X010731Y007975D02*
X009585Y007975D01*
X009583Y007816D02*
X010572Y007816D01*
X010414Y007658D02*
X009584Y007658D01*
X009609Y007499D02*
X010255Y007499D01*
X010097Y007341D02*
X009588Y007341D01*
X009512Y007182D02*
X009938Y007182D01*
X009780Y007024D02*
X009311Y007024D01*
X009621Y006865D02*
X008837Y006865D01*
X008867Y007024D02*
X007502Y007024D01*
X007582Y006865D02*
X007923Y006865D01*
X008590Y007341D02*
X004478Y007341D01*
X004580Y007499D02*
X008569Y007499D01*
X008666Y007182D02*
X007298Y007182D01*
X006841Y007182D02*
X006298Y007182D01*
X006502Y007024D02*
X006637Y007024D01*
X005841Y007182D02*
X004637Y007182D01*
X004718Y007024D02*
X005637Y007024D01*
X005556Y006865D02*
X004725Y006865D01*
X004725Y006707D02*
X005529Y006707D01*
X005529Y006548D02*
X004725Y006548D01*
X004725Y006390D02*
X005422Y006390D01*
X005264Y006231D02*
X004725Y006231D01*
X004725Y006073D02*
X005105Y006073D01*
X004947Y005914D02*
X004725Y005914D01*
X004725Y005756D02*
X004826Y005756D01*
X004739Y007658D02*
X007849Y007658D01*
X008223Y008164D02*
X007435Y008164D01*
X006432Y008164D01*
X006373Y008223D01*
X005857Y008133D02*
X005214Y008133D01*
X005056Y007975D02*
X005858Y007975D01*
X005977Y007816D02*
X004897Y007816D01*
X005152Y009084D02*
X005917Y009084D01*
X005932Y009243D02*
X004993Y009243D01*
X004835Y009401D02*
X007001Y009401D01*
X006960Y009243D02*
X006813Y009243D01*
X006828Y009084D02*
X006960Y009084D01*
X007435Y009030D02*
X006432Y009030D01*
X006373Y008971D01*
X006354Y009084D02*
X006391Y009084D01*
X006391Y009243D02*
X006354Y009243D01*
X005978Y009560D02*
X007234Y009560D01*
X007137Y009718D02*
X005990Y009718D01*
X005990Y009877D02*
X007137Y009877D01*
X007525Y010194D02*
X007621Y010194D01*
X007621Y010352D02*
X007525Y010352D01*
X009089Y008164D02*
X009089Y007495D01*
X008916Y006707D02*
X009556Y006707D01*
X009556Y006548D02*
X008916Y006548D01*
X008916Y006390D02*
X009556Y006390D01*
X009556Y006231D02*
X008916Y006231D01*
X008893Y006073D02*
X009556Y006073D01*
X009556Y005914D02*
X008830Y005914D01*
X008856Y005756D02*
X009556Y005756D01*
X009556Y005597D02*
X008428Y005597D01*
X008428Y005518D02*
X008332Y005518D01*
X007905Y005518D01*
X007905Y005286D01*
X007917Y005240D01*
X007941Y005199D01*
X007975Y005166D01*
X008016Y005142D01*
X008061Y005130D01*
X008332Y005130D01*
X008332Y005518D01*
X008332Y005613D01*
X007905Y005613D01*
X007905Y005845D01*
X007917Y005891D01*
X007941Y005932D01*
X007972Y005963D01*
X007949Y005972D01*
X007890Y006032D01*
X007609Y006032D01*
X007609Y005985D01*
X007527Y005786D01*
X007375Y005634D01*
X007304Y005605D01*
X007375Y005575D01*
X007527Y005423D01*
X007609Y005225D01*
X007609Y004410D01*
X007527Y004212D01*
X007375Y004060D01*
X007304Y004030D01*
X007375Y004000D01*
X007527Y003849D01*
X007609Y003650D01*
X007609Y002835D01*
X007527Y002637D01*
X007375Y002485D01*
X007177Y002403D01*
X006962Y002403D01*
X006763Y002485D01*
X006612Y002637D01*
X006569Y002739D01*
X006527Y002637D01*
X006375Y002485D01*
X006177Y002403D01*
X005962Y002403D01*
X005763Y002485D01*
X005642Y002606D01*
X005583Y002547D01*
X005495Y002511D01*
X004888Y002511D01*
X004800Y002547D01*
X004758Y002588D01*
X004717Y002547D01*
X004629Y002511D01*
X004022Y002511D01*
X003950Y002540D01*
X003686Y002540D01*
X003670Y002523D01*
X003582Y002487D01*
X002938Y002487D01*
X002922Y002426D01*
X003271Y002332D01*
X003515Y001909D01*
X003389Y001437D01*
X002966Y001192D01*
X002494Y001319D01*
X002249Y001742D01*
X002343Y002091D01*
X002029Y002175D01*
X002029Y002110D02*
X002272Y002110D01*
X002305Y001952D02*
X002029Y001952D01*
X002029Y001793D02*
X002263Y001793D01*
X002311Y001635D02*
X002029Y001635D01*
X002029Y001476D02*
X002403Y001476D01*
X002498Y001318D02*
X002029Y001318D01*
X002029Y001159D02*
X025125Y001159D01*
X025125Y001318D02*
X003183Y001318D01*
X003400Y001476D02*
X025125Y001476D01*
X025125Y001635D02*
X020258Y001635D01*
X020255Y001622D02*
X020267Y001668D01*
X020267Y002141D01*
X019896Y002141D01*
X019896Y002203D01*
X020267Y002203D01*
X020267Y002676D01*
X020255Y002722D01*
X020231Y002763D01*
X020198Y002796D01*
X020157Y002820D01*
X020111Y002832D01*
X019896Y002832D01*
X019896Y002203D01*
X019833Y002203D01*
X019833Y002141D01*
X019462Y002141D01*
X019462Y001668D01*
X019474Y001622D01*
X019498Y001581D01*
X019532Y001547D01*
X019573Y001524D01*
X019618Y001511D01*
X019833Y001511D01*
X019833Y002141D01*
X019896Y002141D01*
X019896Y001511D01*
X020111Y001511D01*
X020157Y001524D01*
X020198Y001547D01*
X020231Y001581D01*
X020255Y001622D01*
X020267Y001793D02*
X025125Y001793D01*
X025125Y001952D02*
X024523Y001952D01*
X024515Y001947D02*
X024582Y001981D01*
X024643Y002026D01*
X024697Y002079D01*
X024741Y002140D01*
X024775Y002208D01*
X024799Y002280D01*
X024810Y002354D01*
X024810Y002372D01*
X024050Y002372D01*
X024050Y001912D01*
X024368Y001912D01*
X024443Y001924D01*
X024515Y001947D01*
X024719Y002110D02*
X025125Y002110D01*
X025125Y002269D02*
X024795Y002269D01*
X024810Y002412D02*
X024810Y002430D01*
X024799Y002504D01*
X024775Y002576D01*
X024741Y002644D01*
X024697Y002705D01*
X024643Y002758D01*
X024582Y002803D01*
X024515Y002837D01*
X024443Y002860D01*
X024368Y002872D01*
X024050Y002872D01*
X024050Y002412D01*
X024010Y002412D01*
X024010Y002372D01*
X023250Y002372D01*
X023250Y002354D01*
X023262Y002280D01*
X023286Y002208D01*
X023320Y002140D01*
X023364Y002079D01*
X023418Y002026D01*
X023479Y001981D01*
X023546Y001947D01*
X023618Y001924D01*
X023693Y001912D01*
X024010Y001912D01*
X024010Y002372D01*
X024050Y002372D01*
X024050Y002412D01*
X024810Y002412D01*
X024810Y002427D02*
X025125Y002427D01*
X025125Y002586D02*
X024771Y002586D01*
X024657Y002744D02*
X025125Y002744D01*
X025125Y002903D02*
X019398Y002903D01*
X019532Y002796D02*
X019498Y002763D01*
X019474Y002722D01*
X019462Y002676D01*
X019462Y002203D01*
X019833Y002203D01*
X019833Y002832D01*
X019618Y002832D01*
X019573Y002820D01*
X019532Y002796D01*
X019487Y002744D02*
X019242Y002744D01*
X019231Y002763D02*
X019198Y002796D01*
X019157Y002820D01*
X019111Y002832D01*
X018896Y002832D01*
X018896Y002203D01*
X019267Y002203D01*
X019267Y002676D01*
X019255Y002722D01*
X019231Y002763D01*
X019267Y002586D02*
X019462Y002586D01*
X019462Y002427D02*
X019267Y002427D01*
X019267Y002269D02*
X019462Y002269D01*
X019462Y002110D02*
X019267Y002110D01*
X019267Y002141D02*
X018896Y002141D01*
X018896Y002203D01*
X018833Y002203D01*
X018833Y002141D01*
X018462Y002141D01*
X018462Y001668D01*
X018474Y001622D01*
X018498Y001581D01*
X018532Y001547D01*
X018573Y001524D01*
X018618Y001511D01*
X018833Y001511D01*
X018833Y002141D01*
X018896Y002141D01*
X018896Y001511D01*
X019111Y001511D01*
X019157Y001524D01*
X019198Y001547D01*
X019231Y001581D01*
X019255Y001622D01*
X019267Y001668D01*
X019267Y002141D01*
X019267Y001952D02*
X019462Y001952D01*
X019462Y001793D02*
X019267Y001793D01*
X019258Y001635D02*
X019471Y001635D01*
X019833Y001635D02*
X019896Y001635D01*
X019896Y001793D02*
X019833Y001793D01*
X019833Y001952D02*
X019896Y001952D01*
X019896Y002110D02*
X019833Y002110D01*
X019833Y002269D02*
X019896Y002269D01*
X019896Y002427D02*
X019833Y002427D01*
X019833Y002586D02*
X019896Y002586D01*
X019896Y002744D02*
X019833Y002744D01*
X020242Y002744D02*
X020844Y002744D01*
X020858Y002758D02*
X020804Y002705D01*
X020760Y002644D01*
X020726Y002576D01*
X020702Y002504D01*
X020690Y002430D01*
X020690Y002412D01*
X021450Y002412D01*
X021450Y002372D01*
X020690Y002372D01*
X020690Y002354D01*
X020702Y002280D01*
X020726Y002208D01*
X020760Y002140D01*
X020804Y002079D01*
X020858Y002026D01*
X020919Y001981D01*
X020986Y001947D01*
X021058Y001924D01*
X021133Y001912D01*
X021450Y001912D01*
X021450Y002372D01*
X021490Y002372D01*
X021490Y001912D01*
X021808Y001912D01*
X021883Y001924D01*
X021955Y001947D01*
X022022Y001981D01*
X022083Y002026D01*
X022137Y002079D01*
X022181Y002140D01*
X022215Y002208D01*
X022239Y002280D01*
X022250Y002354D01*
X022250Y002372D01*
X021490Y002372D01*
X021490Y002412D01*
X021450Y002412D01*
X021450Y002872D01*
X021133Y002872D01*
X021058Y002860D01*
X020986Y002837D01*
X020919Y002803D01*
X020858Y002758D01*
X020730Y002586D02*
X020267Y002586D01*
X020267Y002427D02*
X020690Y002427D01*
X020706Y002269D02*
X020267Y002269D01*
X020267Y002110D02*
X020782Y002110D01*
X020978Y001952D02*
X020267Y001952D01*
X021450Y001952D02*
X021490Y001952D01*
X021490Y002110D02*
X021450Y002110D01*
X021450Y002269D02*
X021490Y002269D01*
X021490Y002412D02*
X022250Y002412D01*
X022250Y002430D01*
X022239Y002504D01*
X022215Y002576D01*
X022181Y002644D01*
X022137Y002705D01*
X022083Y002758D01*
X022022Y002803D01*
X021955Y002837D01*
X021883Y002860D01*
X021808Y002872D01*
X021490Y002872D01*
X021490Y002412D01*
X021490Y002427D02*
X021450Y002427D01*
X021450Y002586D02*
X021490Y002586D01*
X021490Y002744D02*
X021450Y002744D01*
X022097Y002744D02*
X023404Y002744D01*
X023418Y002758D02*
X023364Y002705D01*
X023320Y002644D01*
X023286Y002576D01*
X023262Y002504D01*
X023250Y002430D01*
X023250Y002412D01*
X024010Y002412D01*
X024010Y002872D01*
X023693Y002872D01*
X023618Y002860D01*
X023546Y002837D01*
X023479Y002803D01*
X023418Y002758D01*
X023290Y002586D02*
X022211Y002586D01*
X022250Y002427D02*
X023250Y002427D01*
X023266Y002269D02*
X022235Y002269D01*
X022159Y002110D02*
X023342Y002110D01*
X023538Y001952D02*
X021963Y001952D01*
X022030Y003695D02*
X023471Y003695D01*
X023425Y003714D02*
X023623Y003632D01*
X024438Y003632D01*
X024636Y003714D01*
X024788Y003866D01*
X024870Y004065D01*
X024870Y004279D01*
X024788Y004478D01*
X024636Y004630D01*
X024438Y004712D01*
X023623Y004712D01*
X023425Y004630D01*
X023273Y004478D01*
X023190Y004279D01*
X023190Y004065D01*
X023273Y003866D01*
X023425Y003714D01*
X023285Y003854D02*
X022216Y003854D01*
X022289Y004012D02*
X023212Y004012D01*
X023190Y004171D02*
X022310Y004171D01*
X022290Y004329D02*
X023211Y004329D01*
X023282Y004488D02*
X022239Y004488D01*
X022397Y004646D02*
X023464Y004646D01*
X023552Y004805D02*
X025125Y004805D01*
X025125Y004963D02*
X023660Y004963D01*
X023704Y005122D02*
X025125Y005122D01*
X025125Y005280D02*
X023702Y005280D01*
X023672Y005439D02*
X025125Y005439D01*
X025125Y005597D02*
X023719Y005597D01*
X023719Y005756D02*
X025125Y005756D01*
X025125Y005914D02*
X023719Y005914D01*
X023719Y006073D02*
X025125Y006073D01*
X025125Y006231D02*
X023683Y006231D01*
X023713Y006390D02*
X025125Y006390D01*
X025125Y006548D02*
X023719Y006548D01*
X023719Y006707D02*
X025125Y006707D01*
X025125Y006865D02*
X024748Y006865D01*
X024907Y007024D02*
X025125Y007024D01*
X025125Y007182D02*
X025052Y007182D01*
X024522Y007182D02*
X024522Y007182D01*
X024522Y007024D02*
X024522Y007024D01*
X024522Y006865D02*
X024522Y006865D01*
X024296Y006865D02*
X023719Y006865D01*
X023714Y007024D02*
X024137Y007024D01*
X023992Y007182D02*
X023577Y007182D01*
X023992Y007341D02*
X023003Y007341D01*
X022844Y007499D02*
X023992Y007499D01*
X024522Y007341D02*
X024522Y007341D01*
X024258Y008125D02*
X023735Y008125D01*
X024258Y008125D02*
X024522Y008388D01*
X023311Y007658D02*
X023292Y007658D01*
X022554Y007337D02*
X023184Y006707D01*
X023065Y006747D01*
X023184Y005841D02*
X023184Y005172D01*
X022707Y004963D02*
X022519Y004963D01*
X022519Y005122D02*
X022664Y005122D01*
X022666Y005280D02*
X022519Y005280D01*
X022687Y005439D02*
X022695Y005439D01*
X022199Y005841D02*
X022199Y004901D01*
X021470Y004172D01*
X020911Y003695D02*
X020191Y003695D01*
X020349Y003854D02*
X020725Y003854D01*
X020652Y004012D02*
X020508Y004012D01*
X020590Y004171D02*
X020630Y004171D01*
X020651Y004329D02*
X020590Y004329D01*
X020590Y004488D02*
X020722Y004488D01*
X020591Y004646D02*
X020904Y004646D01*
X020847Y004805D02*
X020749Y004805D01*
X019865Y005558D02*
X020164Y005857D01*
X020388Y005841D01*
X019859Y006390D02*
X019388Y006390D01*
X019388Y006548D02*
X019853Y006548D01*
X019853Y006707D02*
X019358Y006707D01*
X019377Y006865D02*
X019853Y006865D01*
X020302Y006841D02*
X020388Y006707D01*
X021215Y006707D02*
X021294Y006707D01*
X019496Y006231D02*
X019388Y006231D01*
X019388Y006073D02*
X019402Y006073D01*
X019402Y005914D02*
X019328Y005914D01*
X019327Y005756D02*
X019402Y005756D01*
X019402Y005597D02*
X019327Y005597D01*
X019327Y005439D02*
X019402Y005439D01*
X019402Y005280D02*
X019327Y005280D01*
X019327Y005122D02*
X019402Y005122D01*
X019430Y004963D02*
X019300Y004963D01*
X018865Y005558D02*
X018853Y005569D01*
X018853Y006329D01*
X018377Y005914D02*
X018352Y005914D01*
X018327Y005756D02*
X018402Y005756D01*
X018402Y005597D02*
X018327Y005597D01*
X018327Y005439D02*
X018402Y005439D01*
X018402Y005280D02*
X018327Y005280D01*
X018327Y005122D02*
X018402Y005122D01*
X018430Y004963D02*
X018300Y004963D01*
X017865Y005558D02*
X017865Y006317D01*
X017876Y006329D01*
X017401Y005914D02*
X017336Y005914D01*
X017327Y005756D02*
X017402Y005756D01*
X017402Y005597D02*
X017327Y005597D01*
X017327Y005439D02*
X017402Y005439D01*
X017402Y005280D02*
X017327Y005280D01*
X017327Y005122D02*
X017402Y005122D01*
X017430Y004963D02*
X017300Y004963D01*
X016865Y005558D02*
X016865Y006325D01*
X016861Y006329D01*
X016385Y005914D02*
X016327Y005914D01*
X016327Y005756D02*
X016402Y005756D01*
X016402Y005597D02*
X016327Y005597D01*
X016327Y005439D02*
X016402Y005439D01*
X016402Y005280D02*
X016327Y005280D01*
X016327Y005122D02*
X016402Y005122D01*
X016430Y004963D02*
X016300Y004963D01*
X015865Y005558D02*
X015865Y006310D01*
X015845Y006329D01*
X019127Y003537D02*
X010665Y003537D01*
X010235Y003061D02*
X007609Y003061D01*
X007609Y002903D02*
X008099Y002903D01*
X008124Y002921D02*
X008062Y002876D01*
X008009Y002823D01*
X007965Y002762D01*
X007930Y002694D01*
X007907Y002623D01*
X007895Y002548D01*
X007895Y002530D01*
X008655Y002530D01*
X008655Y002490D01*
X007895Y002490D01*
X007895Y002472D01*
X007907Y002398D01*
X007930Y002326D01*
X007965Y002259D01*
X008009Y002197D01*
X008062Y002144D01*
X008124Y002100D01*
X008191Y002065D01*
X008263Y002042D01*
X008337Y002030D01*
X008655Y002030D01*
X008655Y002490D01*
X008695Y002490D01*
X008695Y002030D01*
X009013Y002030D01*
X009088Y002042D01*
X009159Y002065D01*
X009227Y002100D01*
X009288Y002144D01*
X009341Y002197D01*
X009386Y002259D01*
X009420Y002326D01*
X009443Y002398D01*
X009455Y002472D01*
X009455Y002490D01*
X008695Y002490D01*
X008695Y002530D01*
X008655Y002530D01*
X008655Y002990D01*
X008337Y002990D01*
X008263Y002978D01*
X008191Y002955D01*
X008124Y002921D01*
X007956Y002744D02*
X007572Y002744D01*
X007476Y002586D02*
X007901Y002586D01*
X007902Y002427D02*
X007236Y002427D01*
X006903Y002427D02*
X006236Y002427D01*
X006476Y002586D02*
X006663Y002586D01*
X005903Y002427D02*
X002922Y002427D01*
X003308Y002269D02*
X007960Y002269D01*
X008109Y002110D02*
X003399Y002110D01*
X003491Y001952D02*
X015462Y001952D01*
X015462Y001793D02*
X003485Y001793D01*
X003442Y001635D02*
X015471Y001635D01*
X015833Y001635D02*
X015896Y001635D01*
X015896Y001511D02*
X016111Y001511D01*
X016157Y001524D01*
X016198Y001547D01*
X016231Y001581D01*
X016255Y001622D01*
X016267Y001668D01*
X016267Y002141D01*
X015896Y002141D01*
X015896Y001511D01*
X015896Y001793D02*
X015833Y001793D01*
X015833Y001952D02*
X015896Y001952D01*
X015896Y002110D02*
X015833Y002110D01*
X015833Y002269D02*
X015896Y002269D01*
X015896Y002427D02*
X015833Y002427D01*
X015833Y002586D02*
X015896Y002586D01*
X015896Y002744D02*
X015833Y002744D01*
X016242Y002744D02*
X016487Y002744D01*
X016498Y002763D02*
X016474Y002722D01*
X016462Y002676D01*
X016462Y002203D01*
X016833Y002203D01*
X016833Y002141D01*
X016462Y002141D01*
X016462Y001668D01*
X016474Y001622D01*
X016498Y001581D01*
X016532Y001547D01*
X016573Y001524D01*
X016618Y001511D01*
X016833Y001511D01*
X016833Y002141D01*
X016896Y002141D01*
X016896Y002203D01*
X017267Y002203D01*
X017267Y002676D01*
X017255Y002722D01*
X017231Y002763D01*
X017198Y002796D01*
X017157Y002820D01*
X017111Y002832D01*
X016896Y002832D01*
X016896Y002203D01*
X016833Y002203D01*
X016833Y002832D01*
X016618Y002832D01*
X016573Y002820D01*
X016532Y002796D01*
X016498Y002763D01*
X016462Y002586D02*
X016267Y002586D01*
X016267Y002427D02*
X016462Y002427D01*
X016462Y002269D02*
X016267Y002269D01*
X016267Y002110D02*
X016462Y002110D01*
X016462Y001952D02*
X016267Y001952D01*
X016267Y001793D02*
X016462Y001793D01*
X016471Y001635D02*
X016258Y001635D01*
X016833Y001635D02*
X016896Y001635D01*
X016896Y001511D02*
X017111Y001511D01*
X017157Y001524D01*
X017198Y001547D01*
X017231Y001581D01*
X017255Y001622D01*
X017267Y001668D01*
X017267Y002141D01*
X016896Y002141D01*
X016896Y001511D01*
X016896Y001793D02*
X016833Y001793D01*
X016833Y001952D02*
X016896Y001952D01*
X016896Y002110D02*
X016833Y002110D01*
X016833Y002269D02*
X016896Y002269D01*
X016896Y002427D02*
X016833Y002427D01*
X016833Y002586D02*
X016896Y002586D01*
X016896Y002744D02*
X016833Y002744D01*
X017242Y002744D02*
X017487Y002744D01*
X017498Y002763D02*
X017474Y002722D01*
X017462Y002676D01*
X017462Y002203D01*
X017833Y002203D01*
X017833Y002141D01*
X017462Y002141D01*
X017462Y001668D01*
X017474Y001622D01*
X017498Y001581D01*
X017532Y001547D01*
X017573Y001524D01*
X017618Y001511D01*
X017833Y001511D01*
X017833Y002141D01*
X017896Y002141D01*
X017896Y002203D01*
X018267Y002203D01*
X018267Y002676D01*
X018255Y002722D01*
X018231Y002763D01*
X018198Y002796D01*
X018157Y002820D01*
X018111Y002832D01*
X017896Y002832D01*
X017896Y002203D01*
X017833Y002203D01*
X017833Y002832D01*
X017618Y002832D01*
X017573Y002820D01*
X017532Y002796D01*
X017498Y002763D01*
X017462Y002586D02*
X017267Y002586D01*
X017267Y002427D02*
X017462Y002427D01*
X017462Y002269D02*
X017267Y002269D01*
X017267Y002110D02*
X017462Y002110D01*
X017462Y001952D02*
X017267Y001952D01*
X017267Y001793D02*
X017462Y001793D01*
X017471Y001635D02*
X017258Y001635D01*
X017833Y001635D02*
X017896Y001635D01*
X017896Y001511D02*
X018111Y001511D01*
X018157Y001524D01*
X018198Y001547D01*
X018231Y001581D01*
X018255Y001622D01*
X018267Y001668D01*
X018267Y002141D01*
X017896Y002141D01*
X017896Y001511D01*
X017896Y001793D02*
X017833Y001793D01*
X017833Y001952D02*
X017896Y001952D01*
X017896Y002110D02*
X017833Y002110D01*
X017833Y002269D02*
X017896Y002269D01*
X017896Y002427D02*
X017833Y002427D01*
X017833Y002586D02*
X017896Y002586D01*
X017896Y002744D02*
X017833Y002744D01*
X018242Y002744D02*
X018487Y002744D01*
X018498Y002763D02*
X018474Y002722D01*
X018462Y002676D01*
X018462Y002203D01*
X018833Y002203D01*
X018833Y002832D01*
X018618Y002832D01*
X018573Y002820D01*
X018532Y002796D01*
X018498Y002763D01*
X018462Y002586D02*
X018267Y002586D01*
X018267Y002427D02*
X018462Y002427D01*
X018462Y002269D02*
X018267Y002269D01*
X018267Y002110D02*
X018462Y002110D01*
X018462Y001952D02*
X018267Y001952D01*
X018267Y001793D02*
X018462Y001793D01*
X018471Y001635D02*
X018258Y001635D01*
X018833Y001635D02*
X018896Y001635D01*
X018896Y001793D02*
X018833Y001793D01*
X018833Y001952D02*
X018896Y001952D01*
X018896Y002110D02*
X018833Y002110D01*
X018833Y002269D02*
X018896Y002269D01*
X018896Y002427D02*
X018833Y002427D01*
X018833Y002586D02*
X018896Y002586D01*
X018896Y002744D02*
X018833Y002744D01*
X019557Y003061D02*
X025125Y003061D01*
X025125Y003220D02*
X019715Y003220D01*
X019874Y003378D02*
X025125Y003378D01*
X025125Y003537D02*
X020032Y003537D01*
X022506Y004805D02*
X022815Y004805D01*
X024597Y004646D02*
X025125Y004646D01*
X025125Y004488D02*
X024779Y004488D01*
X024850Y004329D02*
X025125Y004329D01*
X025125Y004171D02*
X024870Y004171D01*
X024849Y004012D02*
X025125Y004012D01*
X025125Y003854D02*
X024776Y003854D01*
X024590Y003695D02*
X025125Y003695D01*
X024050Y002744D02*
X024010Y002744D01*
X024010Y002586D02*
X024050Y002586D01*
X024050Y002427D02*
X024010Y002427D01*
X024010Y002269D02*
X024050Y002269D01*
X024050Y002110D02*
X024010Y002110D01*
X024010Y001952D02*
X024050Y001952D01*
X011574Y002172D02*
X011235Y002510D01*
X008675Y002510D01*
X008207Y002510D01*
X007790Y002928D01*
X007790Y004975D01*
X007609Y004963D02*
X009556Y004963D01*
X009556Y004805D02*
X009144Y004805D01*
X009083Y004830D02*
X008268Y004830D01*
X008069Y004748D01*
X007917Y004596D01*
X007835Y004398D01*
X007835Y004183D01*
X007917Y003984D01*
X008069Y003832D01*
X008268Y003750D01*
X009083Y003750D01*
X009281Y003832D01*
X009433Y003984D01*
X009515Y004183D01*
X009515Y004398D01*
X009433Y004596D01*
X009281Y004748D01*
X009083Y004830D01*
X009383Y004646D02*
X009556Y004646D01*
X009556Y004488D02*
X009478Y004488D01*
X009515Y004329D02*
X009556Y004329D01*
X009556Y004171D02*
X009510Y004171D01*
X009556Y004012D02*
X009445Y004012D01*
X009556Y003854D02*
X009302Y003854D01*
X009604Y003695D02*
X007591Y003695D01*
X007609Y003537D02*
X009760Y003537D01*
X009918Y003378D02*
X007609Y003378D01*
X007609Y003220D02*
X010077Y003220D01*
X010394Y002903D02*
X009252Y002903D01*
X009227Y002921D02*
X009288Y002876D01*
X009341Y002823D01*
X009386Y002762D01*
X009420Y002694D01*
X009443Y002623D01*
X009455Y002548D01*
X009455Y002530D01*
X008695Y002530D01*
X008695Y002990D01*
X009013Y002990D01*
X009088Y002978D01*
X009159Y002955D01*
X009227Y002921D01*
X009395Y002744D02*
X010516Y002744D01*
X010461Y002586D02*
X009449Y002586D01*
X009448Y002427D02*
X010462Y002427D01*
X010520Y002269D02*
X009391Y002269D01*
X009241Y002110D02*
X010669Y002110D01*
X011215Y002110D02*
X011255Y002110D01*
X011255Y002269D02*
X011215Y002269D01*
X011215Y002427D02*
X011255Y002427D01*
X011235Y004290D02*
X011235Y005219D01*
X011243Y005227D01*
X009556Y005280D02*
X008854Y005280D01*
X008856Y005439D02*
X009556Y005439D01*
X009556Y005122D02*
X007609Y005122D01*
X007586Y005280D02*
X007907Y005280D01*
X007905Y005439D02*
X007512Y005439D01*
X007322Y005597D02*
X008332Y005597D01*
X008332Y005439D02*
X008428Y005439D01*
X008428Y005280D02*
X008332Y005280D01*
X007905Y005756D02*
X007496Y005756D01*
X007580Y005914D02*
X007931Y005914D01*
X008206Y004805D02*
X007609Y004805D01*
X007609Y004646D02*
X007967Y004646D01*
X007872Y004488D02*
X007609Y004488D01*
X007576Y004329D02*
X007835Y004329D01*
X007840Y004171D02*
X007486Y004171D01*
X007347Y004012D02*
X007906Y004012D01*
X008048Y003854D02*
X007522Y003854D01*
X008655Y002903D02*
X008695Y002903D01*
X008695Y002744D02*
X008655Y002744D01*
X008655Y002586D02*
X008695Y002586D01*
X008695Y002427D02*
X008655Y002427D01*
X008655Y002269D02*
X008695Y002269D01*
X008695Y002110D02*
X008655Y002110D01*
X005663Y002586D02*
X005622Y002586D01*
X004761Y002586D02*
X004756Y002586D01*
X006768Y007816D02*
X006919Y007816D01*
X003241Y010194D02*
X003204Y010194D01*
X003204Y010352D02*
X003241Y010352D01*
X002916Y010194D02*
X002757Y010194D01*
X023080Y014315D02*
X023898Y014315D01*
X023029Y014632D02*
X025125Y014632D01*
X025125Y014790D02*
X023029Y014790D01*
X023029Y014949D02*
X025125Y014949D01*
X025125Y015107D02*
X023029Y015107D01*
D26*
X022554Y012022D03*
X021136Y007258D03*
X021215Y005172D03*
X023184Y005172D03*
X009089Y007495D03*
D27*
X015845Y007195D02*
X017302Y008652D01*
X019084Y008652D01*
X019672Y008064D02*
X017730Y008064D01*
X016861Y007195D01*
X017876Y007195D02*
X018412Y007731D01*
X019247Y007731D01*
X019443Y007534D01*
X019837Y007534D01*
X019987Y007684D01*
X019987Y008064D01*
X020302Y008064D02*
X020302Y007369D01*
X020128Y007195D01*
X018853Y007195D01*
X020388Y006707D02*
X020617Y006936D01*
X020617Y008064D01*
X021561Y008064D02*
X021561Y007699D01*
X022199Y007062D01*
X022199Y006707D01*
X022554Y007337D02*
X021876Y008014D01*
X021876Y008064D01*
X019672Y011444D02*
X019076Y011444D01*
X017739Y012428D02*
X017739Y013569D01*
X017475Y013833D01*
X016609Y013833D01*
X016239Y013463D01*
X016239Y013333D01*
X017239Y014333D02*
X017408Y014333D01*
X017908Y013833D01*
X018656Y013833D01*
X018774Y013715D01*
D28*
X020624Y012652D02*
X020624Y012613D01*
M02*
