%
M48
M72
T01C0.0276
T02C0.0315
T03C0.0320
T04C0.0394
T05C0.0400
T06C0.1181
%
T01
X9089Y7495
X21136Y7258
X21215Y5172
X23184Y5172
X22554Y12022
T02
X2882Y1825
X2382Y2691
X2357Y7467
X2357Y8467
X2382Y13243
X2882Y14109
X24522Y8388
X24522Y7388
T03
X24207Y12017
X24207Y13917
T04
X3223Y10802
X3223Y4975
T05
X6069Y4817
X7069Y4817
X7069Y3243
X6069Y3243
X8675Y2510
X8675Y4290
X11235Y4290
X11235Y2510
X7069Y6392
X6069Y6392
X8675Y12038
X8675Y13818
X6479Y14345
X5479Y14345
X11235Y13818
X11235Y12038
X16239Y13333
X17239Y13333
X18239Y13333
X18239Y14333
X17239Y14333
X16239Y14333
X21470Y4172
X21470Y2392
X24030Y2392
X24030Y4172
T06
X13892Y4936
X13892Y10841
M30
