G75*
G70*
%OFA0B0*%
%FSLAX24Y24*%
%IPPOS*%
%LPD*%
%AMOC8*
5,1,8,0,0,1.08239X$1,22.5*
%
%ADD10C,0.0140*%
%ADD11OC8,0.0700*%
%ADD12C,0.1000*%
%ADD13C,0.0600*%
%ADD14R,0.0600X0.0600*%
%ADD15OC8,0.0600*%
%ADD16C,0.0520*%
%ADD17C,0.0320*%
%ADD18C,0.0160*%
%ADD19C,0.0560*%
D10*
X002912Y002054D02*
X002842Y002124D01*
X003066Y002064D01*
X003181Y001865D01*
X003121Y001641D01*
X002922Y001526D01*
X002698Y001586D01*
X002583Y001785D01*
X002643Y002009D01*
X002842Y002124D01*
X002857Y002012D01*
X002997Y001974D01*
X003069Y001850D01*
X003031Y001710D01*
X002907Y001638D01*
X002767Y001676D01*
X002695Y001800D01*
X002733Y001940D01*
X002857Y002012D01*
X002872Y001899D01*
X002928Y001884D01*
X002956Y001835D01*
X002941Y001779D01*
X002892Y001751D01*
X002836Y001766D01*
X002808Y001815D01*
X002823Y001871D01*
X002872Y001899D01*
X002412Y002920D02*
X002342Y002990D01*
X002566Y002930D01*
X002681Y002731D01*
X002621Y002507D01*
X002422Y002392D01*
X002198Y002452D01*
X002083Y002651D01*
X002143Y002875D01*
X002342Y002990D01*
X002357Y002878D01*
X002497Y002840D01*
X002569Y002716D01*
X002531Y002576D01*
X002407Y002504D01*
X002267Y002542D01*
X002195Y002666D01*
X002233Y002806D01*
X002357Y002878D01*
X002372Y002765D01*
X002428Y002750D01*
X002456Y002701D01*
X002441Y002645D01*
X002392Y002617D01*
X002336Y002632D01*
X002308Y002681D01*
X002323Y002737D01*
X002372Y002765D01*
X002551Y013357D02*
X002621Y013427D01*
X002681Y013203D01*
X002566Y013004D01*
X002342Y012944D01*
X002143Y013059D01*
X002083Y013283D01*
X002198Y013482D01*
X002422Y013542D01*
X002621Y013427D01*
X002531Y013358D01*
X002569Y013218D01*
X002497Y013094D01*
X002357Y013056D01*
X002233Y013128D01*
X002195Y013268D01*
X002267Y013392D01*
X002407Y013430D01*
X002531Y013358D01*
X002441Y013289D01*
X002456Y013233D01*
X002428Y013184D01*
X002372Y013169D01*
X002323Y013197D01*
X002308Y013253D01*
X002336Y013302D01*
X002392Y013317D01*
X002441Y013289D01*
X003051Y014223D02*
X003121Y014293D01*
X003181Y014069D01*
X003066Y013870D01*
X002842Y013810D01*
X002643Y013925D01*
X002583Y014149D01*
X002698Y014348D01*
X002922Y014408D01*
X003121Y014293D01*
X003031Y014224D01*
X003069Y014084D01*
X002997Y013960D01*
X002857Y013922D01*
X002733Y013994D01*
X002695Y014134D01*
X002767Y014258D01*
X002907Y014296D01*
X003031Y014224D01*
X002941Y014155D01*
X002956Y014099D01*
X002928Y014050D01*
X002872Y014035D01*
X002823Y014063D01*
X002808Y014119D01*
X002836Y014168D01*
X002892Y014183D01*
X002941Y014155D01*
D11*
X002357Y008467D03*
X002357Y007467D03*
X024522Y007388D03*
X024522Y008388D03*
D12*
X003223Y010802D03*
X003223Y004975D03*
D13*
X006069Y005117D02*
X006069Y004517D01*
X006069Y003543D02*
X006069Y002943D01*
X007069Y002943D02*
X007069Y003543D01*
X007069Y004517D02*
X007069Y005117D01*
X007069Y006092D02*
X007069Y006692D01*
X006069Y006692D02*
X006069Y006092D01*
X008375Y004290D02*
X008975Y004290D01*
X010935Y004290D02*
X011535Y004290D01*
X011535Y002510D02*
X010935Y002510D01*
X008975Y002510D02*
X008375Y002510D01*
X008375Y012038D02*
X008975Y012038D01*
X008975Y013818D02*
X008375Y013818D01*
X006479Y014045D02*
X006479Y014645D01*
X005479Y014645D02*
X005479Y014045D01*
X010935Y013818D02*
X011535Y013818D01*
X011535Y012038D02*
X010935Y012038D01*
X021170Y004172D02*
X021770Y004172D01*
X023730Y004172D02*
X024330Y004172D01*
X024330Y002392D02*
X023730Y002392D01*
X021770Y002392D02*
X021170Y002392D01*
D14*
X016239Y013333D03*
D15*
X017239Y013333D03*
X018239Y013333D03*
X018239Y014333D03*
X017239Y014333D03*
X016239Y014333D03*
D16*
X024207Y013917D03*
X024207Y012017D03*
D17*
X007069Y006392D02*
X007069Y006342D01*
X007069Y004817D01*
X007069Y003243D01*
X007069Y002286D01*
X006683Y001900D01*
X002957Y001900D01*
X003223Y002166D01*
X003223Y004975D01*
X004286Y006038D01*
X004286Y011471D01*
X002514Y013243D01*
X002382Y013243D01*
X002957Y001900D02*
X002882Y001825D01*
D18*
X002029Y002175D02*
X002029Y001144D01*
X025125Y001144D01*
X025125Y015184D01*
X005588Y015184D01*
X005785Y015103D01*
X005937Y014951D01*
X006013Y014766D01*
X006034Y014829D01*
X006068Y014897D01*
X006113Y014958D01*
X006166Y015011D01*
X006227Y015056D01*
X006295Y015090D01*
X006366Y015113D01*
X006441Y015125D01*
X006459Y015125D01*
X006459Y014365D01*
X006499Y014365D01*
X006959Y014365D01*
X006959Y014683D01*
X006947Y014757D01*
X006924Y014829D01*
X006889Y014897D01*
X006845Y014958D01*
X006791Y015011D01*
X006730Y015056D01*
X006663Y015090D01*
X006591Y015113D01*
X006517Y015125D01*
X006499Y015125D01*
X006499Y014365D01*
X006499Y014325D01*
X006959Y014325D01*
X006959Y014007D01*
X006947Y013933D01*
X006924Y013861D01*
X006889Y013793D01*
X006845Y013732D01*
X006791Y013679D01*
X006730Y013634D01*
X006663Y013600D01*
X006591Y013577D01*
X006517Y013565D01*
X006499Y013565D01*
X006499Y014325D01*
X006459Y014325D01*
X006459Y013565D01*
X006441Y013565D01*
X006366Y013577D01*
X006295Y013600D01*
X006227Y013634D01*
X006166Y013679D01*
X006113Y013732D01*
X006068Y013793D01*
X006034Y013861D01*
X006013Y013924D01*
X005937Y013739D01*
X005785Y013587D01*
X005586Y013505D01*
X005371Y013505D01*
X005173Y013587D01*
X005021Y013739D01*
X004939Y013938D01*
X004939Y014752D01*
X005021Y014951D01*
X005173Y015103D01*
X005369Y015184D01*
X002029Y015184D01*
X002029Y013759D01*
X002343Y013843D01*
X002249Y014192D01*
X002494Y014615D01*
X002966Y014742D01*
X003389Y014497D01*
X003515Y014025D01*
X003271Y013602D01*
X002922Y013509D01*
X002961Y013361D01*
X004512Y011810D01*
X004625Y011698D01*
X004686Y011551D01*
X004686Y005958D01*
X004625Y005811D01*
X003955Y005141D01*
X003963Y005122D01*
X003963Y004828D01*
X003850Y004556D01*
X003642Y004348D01*
X003623Y004340D01*
X003623Y002300D01*
X006518Y002300D01*
X006669Y002452D01*
X006669Y002579D01*
X006612Y002637D01*
X006569Y002739D01*
X006527Y002637D01*
X006375Y002485D01*
X006177Y002403D01*
X005962Y002403D01*
X005763Y002485D01*
X005612Y002637D01*
X005529Y002835D01*
X005529Y003650D01*
X005612Y003849D01*
X005763Y004000D01*
X005835Y004030D01*
X005763Y004060D01*
X005612Y004212D01*
X005529Y004410D01*
X005529Y005225D01*
X005612Y005423D01*
X005763Y005575D01*
X005835Y005605D01*
X005763Y005634D01*
X005612Y005786D01*
X005529Y005985D01*
X005529Y006800D01*
X005612Y006998D01*
X005763Y007150D01*
X005962Y007232D01*
X006177Y007232D01*
X006375Y007150D01*
X006527Y006998D01*
X006569Y006896D01*
X006612Y006998D01*
X006763Y007150D01*
X006962Y007232D01*
X007177Y007232D01*
X007375Y007150D01*
X007527Y006998D01*
X007609Y006800D01*
X007609Y006662D01*
X008367Y006662D01*
X007243Y007786D01*
X007175Y007814D01*
X007085Y007904D01*
X007037Y008022D01*
X007037Y010783D01*
X007085Y010901D01*
X007175Y010991D01*
X007175Y010991D01*
X007917Y011732D01*
X007835Y011930D01*
X007835Y012145D01*
X007917Y012344D01*
X008069Y012495D01*
X008268Y012578D01*
X009083Y012578D01*
X009281Y012495D01*
X009433Y012344D01*
X009515Y012145D01*
X009515Y011930D01*
X009433Y011732D01*
X009281Y011580D01*
X009083Y011498D01*
X008588Y011498D01*
X007677Y010587D01*
X007677Y008257D01*
X008588Y007346D01*
X008569Y007391D01*
X008569Y007598D01*
X008648Y007789D01*
X008794Y007935D01*
X008986Y008015D01*
X009192Y008015D01*
X009384Y007935D01*
X009504Y007815D01*
X019822Y007815D01*
X019940Y007766D01*
X020030Y007676D01*
X020663Y007043D01*
X020616Y007155D01*
X020616Y007362D01*
X020695Y007553D01*
X020816Y007674D01*
X020816Y010303D01*
X018326Y012793D01*
X018015Y012793D01*
X017739Y013070D01*
X017462Y012793D01*
X017015Y012793D01*
X016779Y013030D01*
X016779Y012985D01*
X016742Y012897D01*
X016675Y012830D01*
X016586Y012793D01*
X015891Y012793D01*
X015803Y012830D01*
X015735Y012897D01*
X015699Y012985D01*
X015699Y013681D01*
X015735Y013769D01*
X015803Y013837D01*
X015891Y013873D01*
X015935Y013873D01*
X015699Y014110D01*
X015699Y014557D01*
X016015Y014873D01*
X016462Y014873D01*
X016739Y014597D01*
X017015Y014873D01*
X017462Y014873D01*
X017779Y014557D01*
X017779Y014552D01*
X018040Y014813D01*
X018219Y014813D01*
X018219Y014353D01*
X018259Y014353D01*
X018719Y014353D01*
X018719Y014532D01*
X018437Y014813D01*
X018259Y014813D01*
X018259Y014353D01*
X018259Y014313D01*
X018719Y014313D01*
X018719Y014134D01*
X018457Y013873D01*
X018462Y013873D01*
X018779Y013557D01*
X018779Y013246D01*
X021318Y010707D01*
X021408Y010617D01*
X021456Y010499D01*
X021456Y007674D01*
X021577Y007553D01*
X021656Y007362D01*
X021656Y007155D01*
X021577Y006964D01*
X021562Y006948D01*
X021712Y006948D01*
X022234Y007470D01*
X022234Y011607D01*
X022113Y011728D01*
X022034Y011919D01*
X022034Y012126D01*
X022113Y012317D01*
X022259Y012463D01*
X022450Y012542D01*
X022657Y012542D01*
X022848Y012463D01*
X022994Y012317D01*
X023074Y012126D01*
X023074Y011919D01*
X022994Y011728D01*
X022874Y011607D01*
X022874Y007273D01*
X022825Y007156D01*
X022735Y007066D01*
X022735Y007066D01*
X022116Y006447D01*
X022116Y006447D01*
X022066Y006397D01*
X022145Y006397D01*
X022262Y006349D01*
X022352Y006259D01*
X022352Y006259D01*
X022966Y005645D01*
X023080Y005692D01*
X023287Y005692D01*
X023478Y005613D01*
X023624Y005466D01*
X023704Y005275D01*
X023704Y005068D01*
X023624Y004877D01*
X023478Y004731D01*
X023287Y004652D01*
X023080Y004652D01*
X022889Y004731D01*
X022743Y004877D01*
X022682Y005024D01*
X021949Y005757D01*
X020049Y005757D01*
X019931Y005806D01*
X019841Y005896D01*
X019271Y006466D01*
X019232Y006466D01*
X020206Y005492D01*
X020800Y005492D01*
X020920Y005613D01*
X021112Y005692D01*
X021318Y005692D01*
X021510Y005613D01*
X021656Y005466D01*
X021735Y005275D01*
X021735Y005068D01*
X021656Y004877D01*
X021510Y004731D01*
X021464Y004712D01*
X021878Y004712D01*
X022076Y004630D01*
X022228Y004478D01*
X022310Y004279D01*
X022310Y004065D01*
X022228Y003866D01*
X022076Y003714D01*
X021878Y003632D01*
X021063Y003632D01*
X020865Y003714D01*
X020713Y003866D01*
X020630Y004065D01*
X020630Y004279D01*
X020713Y004478D01*
X020865Y004630D01*
X021015Y004692D01*
X020920Y004731D01*
X020800Y004852D01*
X020010Y004852D01*
X019892Y004900D01*
X019802Y004991D01*
X018771Y006022D01*
X007609Y006022D01*
X007609Y005985D01*
X007527Y005786D01*
X007469Y005729D01*
X007469Y005481D01*
X007527Y005423D01*
X007609Y005225D01*
X007609Y004410D01*
X007527Y004212D01*
X007469Y004154D01*
X007469Y003906D01*
X007527Y003849D01*
X007609Y003650D01*
X007609Y002835D01*
X007527Y002637D01*
X007469Y002579D01*
X007469Y002206D01*
X007408Y002059D01*
X007296Y001947D01*
X006910Y001561D01*
X006763Y001500D01*
X003406Y001500D01*
X003389Y001437D01*
X002966Y001192D01*
X002494Y001319D01*
X002249Y001742D01*
X002343Y002091D01*
X002029Y002175D01*
X002029Y002110D02*
X002272Y002110D01*
X002305Y001952D02*
X002029Y001952D01*
X002029Y001793D02*
X002263Y001793D01*
X002311Y001635D02*
X002029Y001635D01*
X002029Y001476D02*
X002403Y001476D01*
X002498Y001318D02*
X002029Y001318D01*
X002029Y001159D02*
X025125Y001159D01*
X025125Y001318D02*
X003183Y001318D01*
X003400Y001476D02*
X025125Y001476D01*
X025125Y001635D02*
X006984Y001635D01*
X007142Y001793D02*
X025125Y001793D01*
X025125Y001952D02*
X024523Y001952D01*
X024515Y001947D02*
X024582Y001981D01*
X024643Y002026D01*
X024697Y002079D01*
X024741Y002140D01*
X024775Y002208D01*
X024799Y002280D01*
X024810Y002354D01*
X024810Y002372D01*
X024050Y002372D01*
X024050Y001912D01*
X024368Y001912D01*
X024443Y001924D01*
X024515Y001947D01*
X024719Y002110D02*
X025125Y002110D01*
X025125Y002269D02*
X024795Y002269D01*
X024810Y002412D02*
X024810Y002430D01*
X024799Y002504D01*
X024775Y002576D01*
X024741Y002644D01*
X024697Y002705D01*
X024643Y002758D01*
X024582Y002803D01*
X024515Y002837D01*
X024443Y002860D01*
X024368Y002872D01*
X024050Y002872D01*
X024050Y002412D01*
X024010Y002412D01*
X024010Y002372D01*
X023250Y002372D01*
X023250Y002354D01*
X023262Y002280D01*
X023286Y002208D01*
X023320Y002140D01*
X023364Y002079D01*
X023418Y002026D01*
X023479Y001981D01*
X023546Y001947D01*
X023618Y001924D01*
X023693Y001912D01*
X024010Y001912D01*
X024010Y002372D01*
X024050Y002372D01*
X024050Y002412D01*
X024810Y002412D01*
X024810Y002427D02*
X025125Y002427D01*
X025125Y002586D02*
X024771Y002586D01*
X024657Y002744D02*
X025125Y002744D01*
X025125Y002903D02*
X011812Y002903D01*
X011787Y002921D02*
X011848Y002876D01*
X011901Y002823D01*
X011946Y002762D01*
X011980Y002694D01*
X012003Y002623D01*
X012015Y002548D01*
X012015Y002530D01*
X011255Y002530D01*
X011215Y002530D01*
X011215Y002490D01*
X010455Y002490D01*
X010455Y002472D01*
X010467Y002398D01*
X010490Y002326D01*
X010525Y002259D01*
X010569Y002197D01*
X010622Y002144D01*
X010684Y002100D01*
X010751Y002065D01*
X010823Y002042D01*
X010897Y002030D01*
X011215Y002030D01*
X011215Y002490D01*
X011255Y002490D01*
X011255Y002030D01*
X011573Y002030D01*
X011648Y002042D01*
X011719Y002065D01*
X011787Y002100D01*
X011848Y002144D01*
X011901Y002197D01*
X011946Y002259D01*
X011980Y002326D01*
X012003Y002398D01*
X012015Y002472D01*
X012015Y002490D01*
X011255Y002490D01*
X011255Y002530D01*
X011255Y002990D01*
X011573Y002990D01*
X011648Y002978D01*
X011719Y002955D01*
X011787Y002921D01*
X011955Y002744D02*
X020844Y002744D01*
X020858Y002758D02*
X020804Y002705D01*
X020760Y002644D01*
X020726Y002576D01*
X020702Y002504D01*
X020690Y002430D01*
X020690Y002412D01*
X021450Y002412D01*
X021450Y002372D01*
X020690Y002372D01*
X020690Y002354D01*
X020702Y002280D01*
X020726Y002208D01*
X020760Y002140D01*
X020804Y002079D01*
X020858Y002026D01*
X020919Y001981D01*
X020986Y001947D01*
X021058Y001924D01*
X021133Y001912D01*
X021450Y001912D01*
X021450Y002372D01*
X021490Y002372D01*
X021490Y001912D01*
X021808Y001912D01*
X021883Y001924D01*
X021955Y001947D01*
X022022Y001981D01*
X022083Y002026D01*
X022137Y002079D01*
X022181Y002140D01*
X022215Y002208D01*
X022239Y002280D01*
X022250Y002354D01*
X022250Y002372D01*
X021490Y002372D01*
X021490Y002412D01*
X021450Y002412D01*
X021450Y002872D01*
X021133Y002872D01*
X021058Y002860D01*
X020986Y002837D01*
X020919Y002803D01*
X020858Y002758D01*
X020730Y002586D02*
X012009Y002586D01*
X012008Y002427D02*
X020690Y002427D01*
X020706Y002269D02*
X011951Y002269D01*
X011801Y002110D02*
X020782Y002110D01*
X020978Y001952D02*
X007301Y001952D01*
X007429Y002110D02*
X008109Y002110D01*
X008124Y002100D02*
X008191Y002065D01*
X008263Y002042D01*
X008337Y002030D01*
X008655Y002030D01*
X008655Y002490D01*
X007895Y002490D01*
X007895Y002472D01*
X007907Y002398D01*
X007930Y002326D01*
X007965Y002259D01*
X008009Y002197D01*
X008062Y002144D01*
X008124Y002100D01*
X007960Y002269D02*
X007469Y002269D01*
X007469Y002427D02*
X007902Y002427D01*
X007895Y002530D02*
X008655Y002530D01*
X008655Y002490D01*
X008695Y002490D01*
X008695Y002030D01*
X009013Y002030D01*
X009088Y002042D01*
X009159Y002065D01*
X009227Y002100D01*
X009288Y002144D01*
X009341Y002197D01*
X009386Y002259D01*
X009420Y002326D01*
X009443Y002398D01*
X009455Y002472D01*
X009455Y002490D01*
X008695Y002490D01*
X008695Y002530D01*
X008655Y002530D01*
X008655Y002990D01*
X008337Y002990D01*
X008263Y002978D01*
X008191Y002955D01*
X008124Y002921D01*
X008062Y002876D01*
X008009Y002823D01*
X007965Y002762D01*
X007930Y002694D01*
X007907Y002623D01*
X007895Y002548D01*
X007895Y002530D01*
X007901Y002586D02*
X007476Y002586D01*
X007572Y002744D02*
X007956Y002744D01*
X008099Y002903D02*
X007609Y002903D01*
X007609Y003061D02*
X025125Y003061D01*
X025125Y003220D02*
X007609Y003220D01*
X007609Y003378D02*
X025125Y003378D01*
X025125Y003537D02*
X007609Y003537D01*
X007591Y003695D02*
X020911Y003695D01*
X020725Y003854D02*
X011862Y003854D01*
X011841Y003832D02*
X011993Y003984D01*
X012075Y004183D01*
X012075Y004398D01*
X011993Y004596D01*
X011841Y004748D01*
X011643Y004830D01*
X010828Y004830D01*
X010629Y004748D01*
X010477Y004596D01*
X010395Y004398D01*
X010395Y004183D01*
X010477Y003984D01*
X010629Y003832D01*
X010828Y003750D01*
X011643Y003750D01*
X011841Y003832D01*
X012005Y004012D02*
X013585Y004012D01*
X013699Y003965D02*
X014085Y003965D01*
X014442Y004113D01*
X014715Y004386D01*
X014863Y004743D01*
X014863Y005129D01*
X014715Y005485D01*
X014442Y005758D01*
X014085Y005906D01*
X013699Y005906D01*
X013342Y005758D01*
X013069Y005485D01*
X012922Y005129D01*
X012922Y004743D01*
X013069Y004386D01*
X013342Y004113D01*
X013699Y003965D01*
X013285Y004171D02*
X012070Y004171D01*
X012075Y004329D02*
X013126Y004329D01*
X013027Y004488D02*
X012038Y004488D01*
X011943Y004646D02*
X012962Y004646D01*
X012922Y004805D02*
X011704Y004805D01*
X010766Y004805D02*
X009144Y004805D01*
X009083Y004830D02*
X008268Y004830D01*
X008069Y004748D01*
X007917Y004596D01*
X007835Y004398D01*
X007835Y004183D01*
X007917Y003984D01*
X008069Y003832D01*
X008268Y003750D01*
X009083Y003750D01*
X009281Y003832D01*
X009433Y003984D01*
X009515Y004183D01*
X009515Y004398D01*
X009433Y004596D01*
X009281Y004748D01*
X009083Y004830D01*
X009383Y004646D02*
X010527Y004646D01*
X010432Y004488D02*
X009478Y004488D01*
X009515Y004329D02*
X010395Y004329D01*
X010400Y004171D02*
X009510Y004171D01*
X009445Y004012D02*
X010466Y004012D01*
X010608Y003854D02*
X009302Y003854D01*
X009088Y002978D02*
X009013Y002990D01*
X008695Y002990D01*
X008695Y002530D01*
X009455Y002530D01*
X009455Y002548D01*
X009443Y002623D01*
X009420Y002694D01*
X009386Y002762D01*
X009341Y002823D01*
X009288Y002876D01*
X009227Y002921D01*
X009159Y002955D01*
X009088Y002978D01*
X009252Y002903D02*
X010659Y002903D01*
X010684Y002921D02*
X010622Y002876D01*
X010569Y002823D01*
X010525Y002762D01*
X010490Y002694D01*
X010467Y002623D01*
X010455Y002548D01*
X010455Y002530D01*
X011215Y002530D01*
X011215Y002990D01*
X010897Y002990D01*
X010823Y002978D01*
X010751Y002955D01*
X010684Y002921D01*
X010516Y002744D02*
X009395Y002744D01*
X009449Y002586D02*
X010461Y002586D01*
X010462Y002427D02*
X009448Y002427D01*
X009391Y002269D02*
X010520Y002269D01*
X010669Y002110D02*
X009241Y002110D01*
X008695Y002110D02*
X008655Y002110D01*
X008655Y002269D02*
X008695Y002269D01*
X008695Y002427D02*
X008655Y002427D01*
X008655Y002586D02*
X008695Y002586D01*
X008695Y002744D02*
X008655Y002744D01*
X008655Y002903D02*
X008695Y002903D01*
X008048Y003854D02*
X007522Y003854D01*
X007469Y004012D02*
X007906Y004012D01*
X007840Y004171D02*
X007486Y004171D01*
X007576Y004329D02*
X007835Y004329D01*
X007872Y004488D02*
X007609Y004488D01*
X007609Y004646D02*
X007967Y004646D01*
X008206Y004805D02*
X007609Y004805D01*
X007609Y004963D02*
X012922Y004963D01*
X012922Y005122D02*
X007609Y005122D01*
X007586Y005280D02*
X012984Y005280D01*
X013050Y005439D02*
X007512Y005439D01*
X007469Y005597D02*
X013181Y005597D01*
X013340Y005756D02*
X007496Y005756D01*
X007580Y005914D02*
X018878Y005914D01*
X019037Y005756D02*
X014445Y005756D01*
X014603Y005597D02*
X019195Y005597D01*
X019354Y005439D02*
X014734Y005439D01*
X014800Y005280D02*
X019512Y005280D01*
X019671Y005122D02*
X014863Y005122D01*
X014863Y004963D02*
X019829Y004963D01*
X020073Y005172D02*
X021215Y005172D01*
X021691Y004963D02*
X022707Y004963D01*
X022815Y004805D02*
X021583Y004805D01*
X021735Y005122D02*
X022584Y005122D01*
X022426Y005280D02*
X021733Y005280D01*
X021667Y005439D02*
X022267Y005439D01*
X022109Y005597D02*
X021525Y005597D01*
X021950Y005756D02*
X019942Y005756D01*
X019823Y005914D02*
X019784Y005914D01*
X019665Y006073D02*
X019625Y006073D01*
X019506Y006231D02*
X019467Y006231D01*
X019348Y006390D02*
X019308Y006390D01*
X018903Y006342D02*
X020073Y005172D01*
X020101Y005597D02*
X020905Y005597D01*
X020113Y006077D02*
X022081Y006077D01*
X022987Y005172D01*
X023184Y005172D01*
X023660Y004963D02*
X025125Y004963D01*
X025125Y004805D02*
X023552Y004805D01*
X023623Y004712D02*
X023425Y004630D01*
X023273Y004478D01*
X023190Y004279D01*
X023190Y004065D01*
X023273Y003866D01*
X023425Y003714D01*
X023623Y003632D01*
X024438Y003632D01*
X024636Y003714D01*
X024788Y003866D01*
X024870Y004065D01*
X024870Y004279D01*
X024788Y004478D01*
X024636Y004630D01*
X024438Y004712D01*
X023623Y004712D01*
X023464Y004646D02*
X022037Y004646D01*
X022219Y004488D02*
X023282Y004488D01*
X023211Y004329D02*
X022290Y004329D01*
X022310Y004171D02*
X023190Y004171D01*
X023212Y004012D02*
X022289Y004012D01*
X022216Y003854D02*
X023285Y003854D01*
X023471Y003695D02*
X022030Y003695D01*
X021883Y002860D02*
X021808Y002872D01*
X021490Y002872D01*
X021490Y002412D01*
X022250Y002412D01*
X022250Y002430D01*
X022239Y002504D01*
X022215Y002576D01*
X022181Y002644D01*
X022137Y002705D01*
X022083Y002758D01*
X022022Y002803D01*
X021955Y002837D01*
X021883Y002860D01*
X022097Y002744D02*
X023404Y002744D01*
X023418Y002758D02*
X023364Y002705D01*
X023320Y002644D01*
X023286Y002576D01*
X023262Y002504D01*
X023250Y002430D01*
X023250Y002412D01*
X024010Y002412D01*
X024010Y002872D01*
X023693Y002872D01*
X023618Y002860D01*
X023546Y002837D01*
X023479Y002803D01*
X023418Y002758D01*
X023290Y002586D02*
X022211Y002586D01*
X022250Y002427D02*
X023250Y002427D01*
X023266Y002269D02*
X022235Y002269D01*
X022159Y002110D02*
X023342Y002110D01*
X023538Y001952D02*
X021963Y001952D01*
X021490Y001952D02*
X021450Y001952D01*
X021450Y002110D02*
X021490Y002110D01*
X021490Y002269D02*
X021450Y002269D01*
X021450Y002427D02*
X021490Y002427D01*
X021490Y002586D02*
X021450Y002586D01*
X021450Y002744D02*
X021490Y002744D01*
X020652Y004012D02*
X014199Y004012D01*
X014500Y004171D02*
X020630Y004171D01*
X020651Y004329D02*
X014658Y004329D01*
X014757Y004488D02*
X020722Y004488D01*
X020904Y004646D02*
X014823Y004646D01*
X014863Y004805D02*
X020847Y004805D01*
X020113Y006077D02*
X019404Y006786D01*
X008695Y006786D01*
X007396Y008085D01*
X007357Y008085D01*
X007357Y010719D01*
X008675Y012038D01*
X008252Y012571D02*
X003751Y012571D01*
X003593Y012730D02*
X018390Y012730D01*
X018548Y012571D02*
X011658Y012571D01*
X011643Y012578D02*
X011841Y012495D01*
X011993Y012344D01*
X012075Y012145D01*
X012075Y011930D01*
X011993Y011732D01*
X011841Y011580D01*
X011643Y011498D01*
X010828Y011498D01*
X010629Y011580D01*
X010477Y011732D01*
X010395Y011930D01*
X010395Y012145D01*
X010477Y012344D01*
X010629Y012495D01*
X010828Y012578D01*
X011643Y012578D01*
X011924Y012413D02*
X018707Y012413D01*
X018865Y012254D02*
X012030Y012254D01*
X012075Y012096D02*
X019024Y012096D01*
X019182Y011937D02*
X012075Y011937D01*
X012012Y011779D02*
X013619Y011779D01*
X013699Y011812D02*
X013342Y011664D01*
X013069Y011391D01*
X012922Y011034D01*
X012922Y010648D01*
X013069Y010291D01*
X013342Y010018D01*
X013699Y009871D01*
X014085Y009871D01*
X014442Y010018D01*
X014715Y010291D01*
X014863Y010648D01*
X014863Y011034D01*
X014715Y011391D01*
X014442Y011664D01*
X014085Y011812D01*
X013699Y011812D01*
X013299Y011620D02*
X011881Y011620D01*
X012967Y011145D02*
X008235Y011145D01*
X008393Y011303D02*
X013033Y011303D01*
X013140Y011462D02*
X008552Y011462D01*
X008076Y010986D02*
X012922Y010986D01*
X012922Y010828D02*
X007918Y010828D01*
X007759Y010669D02*
X012922Y010669D01*
X012979Y010511D02*
X007677Y010511D01*
X007677Y010352D02*
X013044Y010352D01*
X013167Y010194D02*
X007677Y010194D01*
X007677Y010035D02*
X013326Y010035D01*
X013684Y009877D02*
X007677Y009877D01*
X007677Y009718D02*
X020816Y009718D01*
X020816Y009560D02*
X007677Y009560D01*
X007677Y009401D02*
X020816Y009401D01*
X020816Y009243D02*
X007677Y009243D01*
X007677Y009084D02*
X020816Y009084D01*
X020816Y008926D02*
X007677Y008926D01*
X007677Y008767D02*
X020816Y008767D01*
X020816Y008609D02*
X007677Y008609D01*
X007677Y008450D02*
X020816Y008450D01*
X020816Y008292D02*
X007677Y008292D01*
X007801Y008133D02*
X020816Y008133D01*
X020816Y007975D02*
X009289Y007975D01*
X009503Y007816D02*
X020816Y007816D01*
X020800Y007658D02*
X020048Y007658D01*
X020206Y007499D02*
X020673Y007499D01*
X020616Y007341D02*
X020365Y007341D01*
X020523Y007182D02*
X020616Y007182D01*
X021136Y007258D02*
X021136Y010436D01*
X018239Y013333D01*
X018779Y013364D02*
X025125Y013364D01*
X025125Y013522D02*
X024519Y013522D01*
X024490Y013493D02*
X024631Y013634D01*
X024707Y013818D01*
X024707Y014017D01*
X024631Y014200D01*
X024490Y014341D01*
X024307Y014417D01*
X024108Y014417D01*
X023924Y014341D01*
X023783Y014200D01*
X023707Y014017D01*
X023707Y013818D01*
X023783Y013634D01*
X023924Y013493D01*
X024108Y013417D01*
X024307Y013417D01*
X024490Y013493D01*
X024650Y013681D02*
X025125Y013681D01*
X025125Y013839D02*
X024707Y013839D01*
X024707Y013998D02*
X025125Y013998D01*
X025125Y014156D02*
X024649Y014156D01*
X024517Y014315D02*
X025125Y014315D01*
X025125Y014473D02*
X018719Y014473D01*
X018619Y014632D02*
X025125Y014632D01*
X025125Y014790D02*
X018461Y014790D01*
X018259Y014790D02*
X018219Y014790D01*
X018219Y014632D02*
X018259Y014632D01*
X018259Y014473D02*
X018219Y014473D01*
X018259Y014315D02*
X023898Y014315D01*
X023765Y014156D02*
X018719Y014156D01*
X018582Y013998D02*
X023707Y013998D01*
X023707Y013839D02*
X018496Y013839D01*
X018655Y013681D02*
X023764Y013681D01*
X023895Y013522D02*
X018779Y013522D01*
X018819Y013205D02*
X025125Y013205D01*
X025125Y013047D02*
X018978Y013047D01*
X019136Y012888D02*
X025125Y012888D01*
X025125Y012730D02*
X019295Y012730D01*
X019453Y012571D02*
X025125Y012571D01*
X025125Y012413D02*
X024519Y012413D01*
X024490Y012441D02*
X024307Y012517D01*
X024108Y012517D01*
X023924Y012441D01*
X023783Y012300D01*
X023707Y012117D01*
X023707Y011918D01*
X023783Y011734D01*
X023924Y011593D01*
X024108Y011517D01*
X024307Y011517D01*
X024490Y011593D01*
X024631Y011734D01*
X024707Y011918D01*
X024707Y012117D01*
X024631Y012300D01*
X024490Y012441D01*
X024650Y012254D02*
X025125Y012254D01*
X025125Y012096D02*
X024707Y012096D01*
X024707Y011937D02*
X025125Y011937D01*
X025125Y011779D02*
X024650Y011779D01*
X024517Y011620D02*
X025125Y011620D01*
X025125Y011462D02*
X022874Y011462D01*
X022887Y011620D02*
X023897Y011620D01*
X023765Y011779D02*
X023016Y011779D01*
X023074Y011937D02*
X023707Y011937D01*
X023707Y012096D02*
X023074Y012096D01*
X023020Y012254D02*
X023764Y012254D01*
X023896Y012413D02*
X022899Y012413D01*
X022554Y012022D02*
X022554Y007337D01*
X021845Y006628D01*
X020624Y006628D01*
X019758Y007495D01*
X009089Y007495D01*
X008889Y007975D02*
X007959Y007975D01*
X008118Y007816D02*
X008675Y007816D01*
X008594Y007658D02*
X008276Y007658D01*
X008435Y007499D02*
X008569Y007499D01*
X007847Y007182D02*
X007298Y007182D01*
X007502Y007024D02*
X008005Y007024D01*
X008164Y006865D02*
X007582Y006865D01*
X007609Y006707D02*
X008322Y006707D01*
X007688Y007341D02*
X004686Y007341D01*
X004686Y007499D02*
X007530Y007499D01*
X007371Y007658D02*
X004686Y007658D01*
X004686Y007816D02*
X007173Y007816D01*
X007056Y007975D02*
X004686Y007975D01*
X004686Y008133D02*
X007037Y008133D01*
X007037Y008292D02*
X004686Y008292D01*
X004686Y008450D02*
X007037Y008450D01*
X007037Y008609D02*
X004686Y008609D01*
X004686Y008767D02*
X007037Y008767D01*
X007037Y008926D02*
X004686Y008926D01*
X004686Y009084D02*
X007037Y009084D01*
X007037Y009243D02*
X004686Y009243D01*
X004686Y009401D02*
X007037Y009401D01*
X007037Y009560D02*
X004686Y009560D01*
X004686Y009718D02*
X007037Y009718D01*
X007037Y009877D02*
X004686Y009877D01*
X004686Y010035D02*
X007037Y010035D01*
X007037Y010194D02*
X004686Y010194D01*
X004686Y010352D02*
X007037Y010352D01*
X007037Y010511D02*
X004686Y010511D01*
X004686Y010669D02*
X007037Y010669D01*
X007055Y010828D02*
X004686Y010828D01*
X004686Y010986D02*
X007171Y010986D01*
X007330Y011145D02*
X004686Y011145D01*
X004686Y011303D02*
X007488Y011303D01*
X007647Y011462D02*
X004686Y011462D01*
X004657Y011620D02*
X007805Y011620D01*
X007898Y011779D02*
X004544Y011779D01*
X004385Y011937D02*
X007835Y011937D01*
X007835Y012096D02*
X004227Y012096D01*
X004068Y012254D02*
X007880Y012254D01*
X007986Y012413D02*
X003910Y012413D01*
X003434Y012888D02*
X015744Y012888D01*
X015699Y013047D02*
X003276Y013047D01*
X003117Y013205D02*
X015699Y013205D01*
X015699Y013364D02*
X011691Y013364D01*
X011719Y013373D02*
X011787Y013407D01*
X011848Y013452D01*
X011901Y013505D01*
X011946Y013566D01*
X011980Y013633D01*
X012003Y013705D01*
X012015Y013780D01*
X012015Y013798D01*
X011255Y013798D01*
X011255Y013838D01*
X011215Y013838D01*
X011215Y014298D01*
X010897Y014298D01*
X010823Y014286D01*
X010751Y014263D01*
X010684Y014228D01*
X010622Y014184D01*
X010569Y014130D01*
X010525Y014069D01*
X010490Y014002D01*
X010467Y013930D01*
X010455Y013855D01*
X010455Y013838D01*
X011215Y013838D01*
X011215Y013798D01*
X010455Y013798D01*
X010455Y013780D01*
X010467Y013705D01*
X010490Y013633D01*
X010525Y013566D01*
X010569Y013505D01*
X010622Y013452D01*
X010684Y013407D01*
X010751Y013373D01*
X010823Y013350D01*
X010897Y013338D01*
X011215Y013338D01*
X011215Y013798D01*
X011255Y013798D01*
X011255Y013338D01*
X011573Y013338D01*
X011648Y013350D01*
X011719Y013373D01*
X011914Y013522D02*
X015699Y013522D01*
X015699Y013681D02*
X011995Y013681D01*
X012015Y013838D02*
X012015Y013855D01*
X012003Y013930D01*
X011980Y014002D01*
X011946Y014069D01*
X011901Y014130D01*
X011848Y014184D01*
X011787Y014228D01*
X011719Y014263D01*
X011648Y014286D01*
X011573Y014298D01*
X011255Y014298D01*
X011255Y013838D01*
X012015Y013838D01*
X012015Y013839D02*
X015809Y013839D01*
X015811Y013998D02*
X011981Y013998D01*
X011876Y014156D02*
X015699Y014156D01*
X015699Y014315D02*
X006959Y014315D01*
X006959Y014473D02*
X015699Y014473D01*
X015773Y014632D02*
X006959Y014632D01*
X006936Y014790D02*
X015932Y014790D01*
X016545Y014790D02*
X016932Y014790D01*
X016773Y014632D02*
X016704Y014632D01*
X017545Y014790D02*
X018017Y014790D01*
X017858Y014632D02*
X017704Y014632D01*
X017716Y013047D02*
X017762Y013047D01*
X017920Y012888D02*
X017557Y012888D01*
X016920Y012888D02*
X016733Y012888D01*
X014644Y011462D02*
X019658Y011462D01*
X019499Y011620D02*
X014486Y011620D01*
X014165Y011779D02*
X019341Y011779D01*
X019770Y012254D02*
X022087Y012254D01*
X022034Y012096D02*
X019929Y012096D01*
X020087Y011937D02*
X022034Y011937D01*
X022092Y011779D02*
X020246Y011779D01*
X020404Y011620D02*
X022220Y011620D01*
X022234Y011462D02*
X020563Y011462D01*
X020721Y011303D02*
X022234Y011303D01*
X022234Y011145D02*
X020880Y011145D01*
X021038Y010986D02*
X022234Y010986D01*
X022234Y010828D02*
X021197Y010828D01*
X021355Y010669D02*
X022234Y010669D01*
X022234Y010511D02*
X021452Y010511D01*
X021456Y010352D02*
X022234Y010352D01*
X022234Y010194D02*
X021456Y010194D01*
X021456Y010035D02*
X022234Y010035D01*
X022234Y009877D02*
X021456Y009877D01*
X021456Y009718D02*
X022234Y009718D01*
X022234Y009560D02*
X021456Y009560D01*
X021456Y009401D02*
X022234Y009401D01*
X022234Y009243D02*
X021456Y009243D01*
X021456Y009084D02*
X022234Y009084D01*
X022234Y008926D02*
X021456Y008926D01*
X021456Y008767D02*
X022234Y008767D01*
X022234Y008609D02*
X021456Y008609D01*
X021456Y008450D02*
X022234Y008450D01*
X022234Y008292D02*
X021456Y008292D01*
X021456Y008133D02*
X022234Y008133D01*
X022234Y007975D02*
X021456Y007975D01*
X021456Y007816D02*
X022234Y007816D01*
X022234Y007658D02*
X021472Y007658D01*
X021599Y007499D02*
X022234Y007499D01*
X022105Y007341D02*
X021656Y007341D01*
X021656Y007182D02*
X021946Y007182D01*
X021788Y007024D02*
X021602Y007024D01*
X021136Y007258D02*
X021136Y007298D01*
X022217Y006548D02*
X025125Y006548D01*
X025125Y006390D02*
X022163Y006390D01*
X022380Y006231D02*
X025125Y006231D01*
X025125Y006073D02*
X022538Y006073D01*
X022697Y005914D02*
X025125Y005914D01*
X025125Y005756D02*
X022855Y005756D01*
X023494Y005597D02*
X025125Y005597D01*
X025125Y005439D02*
X023636Y005439D01*
X023702Y005280D02*
X025125Y005280D01*
X025125Y005122D02*
X023704Y005122D01*
X024597Y004646D02*
X025125Y004646D01*
X025125Y004488D02*
X024779Y004488D01*
X024850Y004329D02*
X025125Y004329D01*
X025125Y004171D02*
X024870Y004171D01*
X024849Y004012D02*
X025125Y004012D01*
X025125Y003854D02*
X024776Y003854D01*
X024590Y003695D02*
X025125Y003695D01*
X024050Y002744D02*
X024010Y002744D01*
X024010Y002586D02*
X024050Y002586D01*
X024050Y002427D02*
X024010Y002427D01*
X024010Y002269D02*
X024050Y002269D01*
X024050Y002110D02*
X024010Y002110D01*
X024010Y001952D02*
X024050Y001952D01*
X018903Y006342D02*
X007069Y006342D01*
X006637Y007024D02*
X006502Y007024D01*
X006298Y007182D02*
X006841Y007182D01*
X005841Y007182D02*
X004686Y007182D01*
X004686Y007024D02*
X005637Y007024D01*
X005556Y006865D02*
X004686Y006865D01*
X004686Y006707D02*
X005529Y006707D01*
X005529Y006548D02*
X004686Y006548D01*
X004686Y006390D02*
X005529Y006390D01*
X005529Y006231D02*
X004686Y006231D01*
X004686Y006073D02*
X005529Y006073D01*
X005559Y005914D02*
X004668Y005914D01*
X004569Y005756D02*
X005642Y005756D01*
X005816Y005597D02*
X004411Y005597D01*
X004252Y005439D02*
X005627Y005439D01*
X005552Y005280D02*
X004094Y005280D01*
X003963Y005122D02*
X005529Y005122D01*
X005529Y004963D02*
X003963Y004963D01*
X003953Y004805D02*
X005529Y004805D01*
X005529Y004646D02*
X003888Y004646D01*
X003782Y004488D02*
X005529Y004488D01*
X005563Y004329D02*
X003623Y004329D01*
X003623Y004171D02*
X005653Y004171D01*
X005792Y004012D02*
X003623Y004012D01*
X003623Y003854D02*
X005617Y003854D01*
X005548Y003695D02*
X003623Y003695D01*
X003623Y003537D02*
X005529Y003537D01*
X005529Y003378D02*
X003623Y003378D01*
X003623Y003220D02*
X005529Y003220D01*
X005529Y003061D02*
X003623Y003061D01*
X003623Y002903D02*
X005529Y002903D01*
X005567Y002744D02*
X003623Y002744D01*
X003623Y002586D02*
X005663Y002586D01*
X005903Y002427D02*
X003623Y002427D01*
X002823Y003108D02*
X002771Y003198D01*
X002299Y003325D01*
X002029Y003169D01*
X002029Y006960D01*
X002112Y006877D01*
X002601Y006877D01*
X002947Y007223D01*
X002947Y007711D01*
X002691Y007967D01*
X002947Y008223D01*
X002947Y008711D01*
X002601Y009057D01*
X002112Y009057D01*
X002029Y008974D01*
X002029Y012765D01*
X002299Y012610D01*
X002522Y012669D01*
X003886Y011305D01*
X003886Y010955D01*
X003868Y011021D01*
X003834Y011103D01*
X003790Y011180D01*
X003735Y011251D01*
X003672Y011314D01*
X003601Y011368D01*
X003524Y011413D01*
X003442Y011447D01*
X003356Y011470D01*
X003267Y011482D01*
X003241Y011482D01*
X003241Y010820D01*
X003204Y010820D01*
X003204Y010783D01*
X002543Y010783D01*
X002543Y010757D01*
X002555Y010669D01*
X002554Y010669D02*
X002029Y010669D01*
X002029Y010511D02*
X002607Y010511D01*
X002612Y010500D02*
X002656Y010423D01*
X002711Y010352D01*
X002029Y010352D01*
X002029Y010194D02*
X002916Y010194D01*
X002921Y010191D02*
X003004Y010156D01*
X003090Y010133D01*
X003178Y010122D01*
X003204Y010122D01*
X003204Y010783D01*
X003241Y010783D01*
X003241Y010122D01*
X003267Y010122D01*
X003356Y010133D01*
X003442Y010156D01*
X003524Y010191D01*
X003601Y010235D01*
X003672Y010289D01*
X003735Y010352D01*
X003886Y010352D01*
X003790Y010423D02*
X003834Y010500D01*
X003868Y010583D01*
X003886Y010649D01*
X003886Y006204D01*
X003389Y005707D01*
X003370Y005715D01*
X003076Y005715D01*
X002804Y005602D01*
X002596Y005394D01*
X002483Y005122D01*
X002483Y004828D01*
X002596Y004556D01*
X002804Y004348D01*
X002823Y004340D01*
X002823Y003108D01*
X002823Y003220D02*
X002691Y003220D01*
X002823Y003378D02*
X002029Y003378D01*
X002029Y003220D02*
X002117Y003220D01*
X002029Y003537D02*
X002823Y003537D01*
X002823Y003695D02*
X002029Y003695D01*
X002029Y003854D02*
X002823Y003854D01*
X002823Y004012D02*
X002029Y004012D01*
X002029Y004171D02*
X002823Y004171D01*
X002823Y004329D02*
X002029Y004329D01*
X002029Y004488D02*
X002664Y004488D01*
X002558Y004646D02*
X002029Y004646D01*
X002029Y004805D02*
X002492Y004805D01*
X002483Y004963D02*
X002029Y004963D01*
X002029Y005122D02*
X002483Y005122D01*
X002548Y005280D02*
X002029Y005280D01*
X002029Y005439D02*
X002640Y005439D01*
X002799Y005597D02*
X002029Y005597D01*
X002029Y005756D02*
X003438Y005756D01*
X003596Y005914D02*
X002029Y005914D01*
X002029Y006073D02*
X003755Y006073D01*
X003886Y006231D02*
X002029Y006231D01*
X002029Y006390D02*
X003886Y006390D01*
X003886Y006548D02*
X002029Y006548D01*
X002029Y006707D02*
X003886Y006707D01*
X003886Y006865D02*
X002029Y006865D01*
X002748Y007024D02*
X003886Y007024D01*
X003886Y007182D02*
X002906Y007182D01*
X002947Y007341D02*
X003886Y007341D01*
X003886Y007499D02*
X002947Y007499D01*
X002947Y007658D02*
X003886Y007658D01*
X003886Y007816D02*
X002842Y007816D01*
X002699Y007975D02*
X003886Y007975D01*
X003886Y008133D02*
X002857Y008133D01*
X002947Y008292D02*
X003886Y008292D01*
X003886Y008450D02*
X002947Y008450D01*
X002947Y008609D02*
X003886Y008609D01*
X003886Y008767D02*
X002891Y008767D01*
X002733Y008926D02*
X003886Y008926D01*
X003886Y009084D02*
X002029Y009084D01*
X002029Y009243D02*
X003886Y009243D01*
X003886Y009401D02*
X002029Y009401D01*
X002029Y009560D02*
X003886Y009560D01*
X003886Y009718D02*
X002029Y009718D01*
X002029Y009877D02*
X003886Y009877D01*
X003886Y010035D02*
X002029Y010035D01*
X002612Y010500D02*
X002578Y010583D01*
X002555Y010669D01*
X002543Y010820D02*
X003204Y010820D01*
X003204Y011482D01*
X003178Y011482D01*
X003090Y011470D01*
X003004Y011447D01*
X002921Y011413D01*
X002844Y011368D01*
X002774Y011314D01*
X002711Y011251D01*
X002656Y011180D01*
X002612Y011103D01*
X002578Y011021D01*
X002555Y010935D01*
X002543Y010846D01*
X002543Y010820D01*
X002543Y010828D02*
X002029Y010828D01*
X002029Y010986D02*
X002568Y010986D01*
X002636Y011145D02*
X002029Y011145D01*
X002029Y011303D02*
X002763Y011303D01*
X003058Y011462D02*
X002029Y011462D01*
X002029Y011620D02*
X003571Y011620D01*
X003730Y011462D02*
X003387Y011462D01*
X003241Y011462D02*
X003204Y011462D01*
X003204Y011303D02*
X003241Y011303D01*
X003241Y011145D02*
X003204Y011145D01*
X003204Y010986D02*
X003241Y010986D01*
X003241Y010828D02*
X003204Y010828D01*
X003204Y010669D02*
X003241Y010669D01*
X003241Y010511D02*
X003204Y010511D01*
X003204Y010352D02*
X003241Y010352D01*
X003241Y010194D02*
X003204Y010194D01*
X002921Y010191D02*
X002844Y010235D01*
X002774Y010289D01*
X002711Y010352D01*
X003530Y010194D02*
X003886Y010194D01*
X003735Y010352D02*
X003790Y010423D01*
X003838Y010511D02*
X003886Y010511D01*
X003877Y010986D02*
X003886Y010986D01*
X003886Y011145D02*
X003810Y011145D01*
X003886Y011303D02*
X003683Y011303D01*
X003413Y011779D02*
X002029Y011779D01*
X002029Y011937D02*
X003254Y011937D01*
X003096Y012096D02*
X002029Y012096D01*
X002029Y012254D02*
X002937Y012254D01*
X002779Y012413D02*
X002029Y012413D01*
X002029Y012571D02*
X002620Y012571D01*
X002091Y012730D02*
X002029Y012730D01*
X002029Y013839D02*
X002329Y013839D01*
X002301Y013998D02*
X002029Y013998D01*
X002029Y014156D02*
X002259Y014156D01*
X002320Y014315D02*
X002029Y014315D01*
X002029Y014473D02*
X002411Y014473D01*
X002554Y014632D02*
X002029Y014632D01*
X002029Y014790D02*
X004954Y014790D01*
X004939Y014632D02*
X003157Y014632D01*
X003396Y014473D02*
X004939Y014473D01*
X004939Y014315D02*
X003438Y014315D01*
X003480Y014156D02*
X004939Y014156D01*
X004939Y013998D02*
X003499Y013998D01*
X003408Y013839D02*
X004980Y013839D01*
X005080Y013681D02*
X003316Y013681D01*
X002973Y013522D02*
X005330Y013522D01*
X005628Y013522D02*
X007997Y013522D01*
X008009Y013505D02*
X008062Y013452D01*
X008124Y013407D01*
X008191Y013373D01*
X008263Y013350D01*
X008337Y013338D01*
X008655Y013338D01*
X008655Y013798D01*
X007895Y013798D01*
X007895Y013780D01*
X007907Y013705D01*
X007930Y013633D01*
X007965Y013566D01*
X008009Y013505D01*
X007915Y013681D02*
X006793Y013681D01*
X006913Y013839D02*
X007895Y013839D01*
X007895Y013838D02*
X008655Y013838D01*
X008655Y014298D01*
X008337Y014298D01*
X008263Y014286D01*
X008191Y014263D01*
X008124Y014228D01*
X008062Y014184D01*
X008009Y014130D01*
X007965Y014069D01*
X007930Y014002D01*
X007907Y013930D01*
X007895Y013855D01*
X007895Y013838D01*
X007929Y013998D02*
X006957Y013998D01*
X006959Y014156D02*
X008035Y014156D01*
X008655Y014156D02*
X008695Y014156D01*
X008695Y014298D02*
X008695Y013838D01*
X008655Y013838D01*
X008655Y013798D01*
X008695Y013798D01*
X008695Y013838D01*
X009455Y013838D01*
X009455Y013855D01*
X009443Y013930D01*
X009420Y014002D01*
X009386Y014069D01*
X009341Y014130D01*
X009288Y014184D01*
X009227Y014228D01*
X009159Y014263D01*
X009088Y014286D01*
X009013Y014298D01*
X008695Y014298D01*
X008695Y013998D02*
X008655Y013998D01*
X008655Y013839D02*
X008695Y013839D01*
X008695Y013798D02*
X009455Y013798D01*
X009455Y013780D01*
X009443Y013705D01*
X009420Y013633D01*
X009386Y013566D01*
X009341Y013505D01*
X009288Y013452D01*
X009227Y013407D01*
X009159Y013373D01*
X009088Y013350D01*
X009013Y013338D01*
X008695Y013338D01*
X008695Y013798D01*
X008695Y013681D02*
X008655Y013681D01*
X008655Y013522D02*
X008695Y013522D01*
X008695Y013364D02*
X008655Y013364D01*
X008219Y013364D02*
X002961Y013364D01*
X002029Y014949D02*
X005020Y014949D01*
X005183Y015107D02*
X002029Y015107D01*
X005774Y015107D02*
X006348Y015107D01*
X006459Y015107D02*
X006499Y015107D01*
X006610Y015107D02*
X025125Y015107D01*
X025125Y014949D02*
X006852Y014949D01*
X006499Y014949D02*
X006459Y014949D01*
X006459Y014790D02*
X006499Y014790D01*
X006499Y014632D02*
X006459Y014632D01*
X006459Y014473D02*
X006499Y014473D01*
X006499Y014315D02*
X006459Y014315D01*
X006459Y014156D02*
X006499Y014156D01*
X006499Y013998D02*
X006459Y013998D01*
X006459Y013839D02*
X006499Y013839D01*
X006499Y013681D02*
X006459Y013681D01*
X006164Y013681D02*
X005878Y013681D01*
X005978Y013839D02*
X006045Y013839D01*
X006003Y014790D02*
X006021Y014790D01*
X005938Y014949D02*
X006106Y014949D01*
X009316Y014156D02*
X010595Y014156D01*
X010489Y013998D02*
X009421Y013998D01*
X009455Y013839D02*
X010455Y013839D01*
X010475Y013681D02*
X009435Y013681D01*
X009354Y013522D02*
X010557Y013522D01*
X010779Y013364D02*
X009131Y013364D01*
X009098Y012571D02*
X010812Y012571D01*
X010546Y012413D02*
X009364Y012413D01*
X009470Y012254D02*
X010440Y012254D01*
X010395Y012096D02*
X009515Y012096D01*
X009515Y011937D02*
X010395Y011937D01*
X010458Y011779D02*
X009452Y011779D01*
X009321Y011620D02*
X010589Y011620D01*
X011215Y013364D02*
X011255Y013364D01*
X011255Y013522D02*
X011215Y013522D01*
X011215Y013681D02*
X011255Y013681D01*
X011255Y013839D02*
X011215Y013839D01*
X011215Y013998D02*
X011255Y013998D01*
X011255Y014156D02*
X011215Y014156D01*
X014751Y011303D02*
X019816Y011303D01*
X019975Y011145D02*
X014817Y011145D01*
X014863Y010986D02*
X020133Y010986D01*
X020292Y010828D02*
X014863Y010828D01*
X014863Y010669D02*
X020450Y010669D01*
X020609Y010511D02*
X014806Y010511D01*
X014740Y010352D02*
X020767Y010352D01*
X020816Y010194D02*
X014617Y010194D01*
X014459Y010035D02*
X020816Y010035D01*
X020816Y009877D02*
X014100Y009877D01*
X019612Y012413D02*
X022209Y012413D01*
X022874Y011303D02*
X025125Y011303D01*
X025125Y011145D02*
X022874Y011145D01*
X022874Y010986D02*
X025125Y010986D01*
X025125Y010828D02*
X022874Y010828D01*
X022874Y010669D02*
X025125Y010669D01*
X025125Y010511D02*
X022874Y010511D01*
X022874Y010352D02*
X025125Y010352D01*
X025125Y010194D02*
X022874Y010194D01*
X022874Y010035D02*
X025125Y010035D01*
X025125Y009877D02*
X022874Y009877D01*
X022874Y009718D02*
X025125Y009718D01*
X025125Y009560D02*
X022874Y009560D01*
X022874Y009401D02*
X025125Y009401D01*
X025125Y009243D02*
X022874Y009243D01*
X022874Y009084D02*
X025125Y009084D01*
X025125Y008926D02*
X024819Y008926D01*
X024766Y008978D02*
X024278Y008978D01*
X023932Y008633D01*
X023932Y008144D01*
X024230Y007846D01*
X023992Y007608D01*
X023992Y007388D01*
X023992Y007169D01*
X024303Y006858D01*
X024522Y006858D01*
X024522Y007388D01*
X024522Y007388D01*
X023992Y007388D01*
X024522Y007388D01*
X024522Y007388D01*
X024522Y006858D01*
X024742Y006858D01*
X025052Y007169D01*
X025052Y007388D01*
X024522Y007388D01*
X024522Y007388D01*
X025052Y007388D01*
X025052Y007608D01*
X024814Y007846D01*
X025112Y008144D01*
X025112Y008633D01*
X024766Y008978D01*
X024978Y008767D02*
X025125Y008767D01*
X025112Y008609D02*
X025125Y008609D01*
X025112Y008450D02*
X025125Y008450D01*
X025112Y008292D02*
X025125Y008292D01*
X025125Y008133D02*
X025101Y008133D01*
X025125Y007975D02*
X024943Y007975D01*
X024844Y007816D02*
X025125Y007816D01*
X025125Y007658D02*
X025002Y007658D01*
X025052Y007499D02*
X025125Y007499D01*
X025125Y007341D02*
X025052Y007341D01*
X025052Y007182D02*
X025125Y007182D01*
X025125Y007024D02*
X024907Y007024D01*
X024748Y006865D02*
X025125Y006865D01*
X025125Y006707D02*
X022376Y006707D01*
X022534Y006865D02*
X024296Y006865D01*
X024137Y007024D02*
X022693Y007024D01*
X022836Y007182D02*
X023992Y007182D01*
X023992Y007341D02*
X022874Y007341D01*
X022874Y007499D02*
X023992Y007499D01*
X024042Y007658D02*
X022874Y007658D01*
X022874Y007816D02*
X024200Y007816D01*
X024101Y007975D02*
X022874Y007975D01*
X022874Y008133D02*
X023943Y008133D01*
X023932Y008292D02*
X022874Y008292D01*
X022874Y008450D02*
X023932Y008450D01*
X023932Y008609D02*
X022874Y008609D01*
X022874Y008767D02*
X024067Y008767D01*
X024225Y008926D02*
X022874Y008926D01*
X024522Y007341D02*
X024522Y007341D01*
X024522Y007182D02*
X024522Y007182D01*
X024522Y007024D02*
X024522Y007024D01*
X024522Y006865D02*
X024522Y006865D01*
X011255Y002903D02*
X011215Y002903D01*
X011215Y002744D02*
X011255Y002744D01*
X011255Y002586D02*
X011215Y002586D01*
X011215Y002427D02*
X011255Y002427D01*
X011255Y002269D02*
X011215Y002269D01*
X011215Y002110D02*
X011255Y002110D01*
X006663Y002586D02*
X006476Y002586D01*
X006645Y002427D02*
X006236Y002427D01*
D19*
X009089Y007495D03*
X021136Y007258D03*
X021215Y005172D03*
X023184Y005172D03*
X022554Y012022D03*
M02*
